# WaveFront *.obj file (generated by Autodesk ATF)

mtllib Propeller.mtl

g Body1

v 0.098125 0.015497 0.001000
v 0.098637 0.015302 0.001000
v 0.099095 0.015001 0.001000
v 0.099476 0.014607 0.001000
v 0.099763 0.014140 0.001000
v 0.099940 0.013621 0.001000
v 0.100000 0.013076 0.001000
v 0.100000 0.013076 -0.001000
v 0.099940 0.013621 -0.001000
v 0.099763 0.014140 -0.001000
v 0.099476 0.014607 -0.001000
v 0.099095 0.015001 -0.001000
v 0.098637 0.015302 -0.001000
v 0.098125 0.015497 -0.001000
v 0.092163 0.016908 -0.001000
v 0.086149 0.018079 -0.001000
v 0.080093 0.019007 -0.001000
v 0.074005 0.019691 -0.001000
v 0.067894 0.020129 -0.001000
v 0.061771 0.020322 -0.001000
v 0.055644 0.020268 -0.001000
v 0.049525 0.019968 -0.001000
v 0.043423 0.019422 -0.001000
v 0.037348 0.018631 -0.001000
v 0.031309 0.017597 -0.001000
v 0.025317 0.016321 -0.001000
v 0.019381 0.014804 -0.001000
v 0.013511 0.013051 -0.001000
v 0.007716 0.011063 -0.001000
v 0.002005 0.008843 -0.001000
v 0.002005 0.008843 0.001000
v 0.007716 0.011063 0.001000
v 0.013511 0.013051 0.001000
v 0.019381 0.014804 0.001000
v 0.025317 0.016321 0.001000
v 0.031309 0.017597 0.001000
v 0.037348 0.018631 0.001000
v 0.043423 0.019422 0.001000
v 0.049525 0.019968 0.001000
v 0.055644 0.020268 0.001000
v 0.061771 0.020322 0.001000
v 0.067894 0.020129 0.001000
v 0.074005 0.019691 0.001000
v 0.080093 0.019007 0.001000
v 0.086149 0.018079 0.001000
v 0.092163 0.016908 0.001000
v 0.100000 0.002500 -0.001000
v 0.099915 0.001853 -0.001000
v 0.099665 0.001250 -0.001000
v 0.099268 0.000732 -0.001000
v 0.098750 0.000335 -0.001000
v 0.098147 0.000085 -0.001000
v 0.097500 0.000000 -0.001000
v 0.017664 0.000000 -0.001000
v 0.015785 -0.000114 -0.001000
v 0.013934 -0.000455 -0.001000
v 0.012138 -0.001018 -0.001000
v 0.010423 -0.001795 -0.001000
v 0.008815 -0.002774 -0.001000
v 0.007338 -0.003940 -0.001000
v 0.006013 -0.005277 -0.001000
v 0.006842 -0.004145 -0.001000
v 0.007461 -0.002887 -0.001000
v 0.007851 -0.001539 -0.001000
v 0.007999 -0.000144 -0.001000
v 0.007901 0.001255 -0.001000
v 0.007560 0.002616 -0.001000
v 0.006987 0.003896 -0.001000
v 0.006200 0.005056 -0.001000
v 0.005221 0.006061 -0.001000
v 0.004082 0.006880 -0.001000
v 0.002818 0.007487 -0.001000
v 0.001467 0.007864 -0.001000
v 0.000071 0.008000 -0.001000
v -0.001327 0.007889 -0.001000
v -0.000194 0.008124 -0.001000
v 0.000919 0.008442 -0.001000
v 0.100000 0.002500 0.001000
v 0.099915 0.001853 0.001000
v 0.099665 0.001250 0.001000
v 0.099268 0.000732 0.001000
v 0.098750 0.000335 0.001000
v 0.098147 0.000085 0.001000
v 0.097500 0.000000 0.001000
v 0.017664 0.000000 0.001000
v -0.100000 -0.002500 0.001000
v -0.099915 -0.001853 0.001000
v -0.099665 -0.001250 0.001000
v -0.099268 -0.000732 0.001000
v -0.098750 -0.000335 0.001000
v -0.098147 -0.000085 0.001000
v -0.097500 0.000000 0.001000
v -0.097500 0.000000 -0.001000
v -0.098147 -0.000085 -0.001000
v -0.098750 -0.000335 -0.001000
v -0.099268 -0.000732 -0.001000
v -0.099665 -0.001250 -0.001000
v -0.099915 -0.001853 -0.001000
v -0.100000 -0.002500 -0.001000
v -0.017664 0.000000 0.001000
v -0.017664 0.000000 -0.001000
v -0.100000 -0.013076 0.001000
v -0.099940 -0.013621 0.001000
v -0.099763 -0.014140 0.001000
v -0.099476 -0.014607 0.001000
v -0.099095 -0.015001 0.001000
v -0.098637 -0.015302 0.001000
v -0.098125 -0.015497 0.001000
v -0.092163 -0.016908 0.001000
v -0.086149 -0.018079 0.001000
v -0.080093 -0.019007 0.001000
v -0.074005 -0.019691 0.001000
v -0.067894 -0.020129 0.001000
v -0.061771 -0.020322 0.001000
v -0.055644 -0.020268 0.001000
v -0.049525 -0.019968 0.001000
v -0.043423 -0.019422 0.001000
v -0.037348 -0.018631 0.001000
v -0.031309 -0.017597 0.001000
v -0.025317 -0.016321 0.001000
v -0.019381 -0.014804 0.001000
v -0.013511 -0.013051 0.001000
v -0.007716 -0.011063 0.001000
v -0.002005 -0.008843 0.001000
v -0.000919 -0.008442 0.001000
v 0.000194 -0.008124 0.001000
v 0.001327 -0.007889 0.001000
v -0.000071 -0.008000 0.001000
v -0.001467 -0.007864 0.001000
v -0.002818 -0.007487 0.001000
v -0.004082 -0.006880 0.001000
v -0.005221 -0.006061 0.001000
v -0.006200 -0.005056 0.001000
v -0.006987 -0.003896 0.001000
v -0.007560 -0.002616 0.001000
v -0.007901 -0.001255 0.001000
v -0.007999 0.000144 0.001000
v -0.007851 0.001539 0.001000
v -0.007461 0.002887 0.001000
v -0.006842 0.004145 0.001000
v -0.006013 0.005277 0.001000
v -0.007338 0.003940 0.001000
v -0.008815 0.002774 0.001000
v -0.010423 0.001795 0.001000
v -0.012138 0.001018 0.001000
v -0.013934 0.000455 0.001000
v -0.015785 0.000114 0.001000
v -0.100000 -0.013076 -0.001000
v -0.099940 -0.013621 -0.001000
v -0.099763 -0.014140 -0.001000
v -0.099476 -0.014607 -0.001000
v -0.099095 -0.015001 -0.001000
v -0.098637 -0.015302 -0.001000
v -0.098125 -0.015497 -0.001000
v -0.092163 -0.016908 -0.001000
v -0.086149 -0.018079 -0.001000
v -0.080093 -0.019007 -0.001000
v -0.074005 -0.019691 -0.001000
v -0.067894 -0.020129 -0.001000
v -0.061771 -0.020322 -0.001000
v -0.055644 -0.020268 -0.001000
v -0.049525 -0.019968 -0.001000
v -0.043423 -0.019422 -0.001000
v -0.037348 -0.018631 -0.001000
v -0.031309 -0.017597 -0.001000
v -0.025317 -0.016321 -0.001000
v -0.019381 -0.014804 -0.001000
v -0.013511 -0.013051 -0.001000
v -0.007716 -0.011063 -0.001000
v -0.002005 -0.008843 -0.001000
v 0.015785 -0.000114 0.001000
v 0.013934 -0.000455 0.001000
v 0.012138 -0.001018 0.001000
v 0.010423 -0.001795 0.001000
v 0.008815 -0.002774 0.001000
v 0.007338 -0.003940 0.001000
v 0.006013 -0.005277 0.001000
v -0.000919 -0.008442 -0.001000
v 0.000194 -0.008124 -0.001000
v 0.001327 -0.007889 -0.001000
v -0.006013 0.005277 -0.001000
v -0.007338 0.003940 -0.001000
v -0.008815 0.002774 -0.001000
v -0.010423 0.001795 -0.001000
v -0.012138 0.001018 -0.001000
v -0.013934 0.000455 -0.001000
v -0.015785 0.000114 -0.001000
v -0.001327 0.007889 0.001000
v -0.000194 0.008124 0.001000
v 0.000919 0.008442 0.001000
v -0.006842 0.004145 -0.001000
v -0.007461 0.002887 -0.001000
v -0.007851 0.001539 -0.001000
v -0.007999 0.000144 -0.001000
v -0.007901 -0.001255 -0.001000
v -0.007560 -0.002616 -0.001000
v -0.006987 -0.003896 -0.001000
v -0.006200 -0.005056 -0.001000
v -0.005221 -0.006061 -0.001000
v -0.004082 -0.006880 -0.001000
v -0.002818 -0.007487 -0.001000
v -0.001467 -0.007864 -0.001000
v -0.000071 -0.008000 -0.001000
v 0.000071 0.008000 0.001000
v 0.001467 0.007864 0.001000
v 0.002818 0.007487 0.001000
v 0.004082 0.006880 0.001000
v 0.005221 0.006061 0.001000
v 0.006200 0.005056 0.001000
v 0.006987 0.003896 0.001000
v 0.007560 0.002616 0.001000
v 0.007901 0.001255 0.001000
v 0.007999 -0.000144 0.001000
v 0.007851 -0.001539 0.001000
v 0.007461 -0.002887 0.001000
v 0.006842 -0.004145 0.001000
v -0.002500 -0.000000 -0.003000
v -0.002415 -0.000647 -0.003000
v -0.002165 -0.001250 -0.003000
v -0.001768 -0.001768 -0.003000
v -0.001250 -0.002165 -0.003000
v -0.000647 -0.002415 -0.003000
v 0.000000 -0.002500 -0.003000
v 0.000647 -0.002415 -0.003000
v 0.001250 -0.002165 -0.003000
v 0.001768 -0.001768 -0.003000
v 0.002165 -0.001250 -0.003000
v 0.002415 -0.000647 -0.003000
v 0.002500 0.000000 -0.003000
v 0.002415 0.000647 -0.003000
v 0.002165 0.001250 -0.003000
v 0.001768 0.001768 -0.003000
v 0.001250 0.002165 -0.003000
v 0.000647 0.002415 -0.003000
v 0.000000 0.002500 -0.003000
v -0.000647 0.002415 -0.003000
v -0.001250 0.002165 -0.003000
v -0.001768 0.001768 -0.003000
v -0.002165 0.001250 -0.003000
v -0.002415 0.000647 -0.003000
v -0.008000 -0.000000 -0.003000
v -0.007871 0.001428 -0.003000
v -0.007490 0.002811 -0.003000
v -0.006868 0.004103 -0.003000
v -0.006025 0.005264 -0.003000
v -0.004988 0.006255 -0.003000
v -0.003791 0.007045 -0.003000
v -0.002472 0.007608 -0.003000
v -0.001074 0.007928 -0.003000
v 0.000359 0.007992 -0.003000
v 0.001780 0.007799 -0.003000
v 0.003144 0.007356 -0.003000
v 0.004407 0.006677 -0.003000
v 0.005529 0.005782 -0.003000
v 0.006472 0.004702 -0.003000
v 0.007208 0.003471 -0.003000
v 0.007712 0.002128 -0.003000
v 0.007968 0.000717 -0.003000
v 0.007968 -0.000717 -0.003000
v 0.007712 -0.002128 -0.003000
v 0.007208 -0.003471 -0.003000
v 0.006472 -0.004702 -0.003000
v 0.005529 -0.005782 -0.003000
v 0.004407 -0.006677 -0.003000
v 0.003144 -0.007356 -0.003000
v 0.001780 -0.007799 -0.003000
v 0.000359 -0.007992 -0.003000
v -0.001074 -0.007928 -0.003000
v -0.002472 -0.007608 -0.003000
v -0.003791 -0.007045 -0.003000
v -0.004988 -0.006255 -0.003000
v -0.006025 -0.005264 -0.003000
v -0.006868 -0.004103 -0.003000
v -0.007490 -0.002811 -0.003000
v -0.007871 -0.001428 -0.003000
v -0.002500 -0.000000 0.003000
v -0.002415 -0.000647 0.003000
v -0.002165 -0.001250 0.003000
v -0.001768 -0.001768 0.003000
v -0.001250 -0.002165 0.003000
v -0.000647 -0.002415 0.003000
v 0.000000 -0.002500 0.003000
v 0.000647 -0.002415 0.003000
v 0.001250 -0.002165 0.003000
v 0.001768 -0.001768 0.003000
v 0.002165 -0.001250 0.003000
v 0.002415 -0.000647 0.003000
v 0.002500 0.000000 0.003000
v 0.002415 0.000647 0.003000
v 0.002165 0.001250 0.003000
v 0.001768 0.001768 0.003000
v 0.001250 0.002165 0.003000
v 0.000647 0.002415 0.003000
v 0.000000 0.002500 0.003000
v -0.000647 0.002415 0.003000
v -0.001250 0.002165 0.003000
v -0.001768 0.001768 0.003000
v -0.002165 0.001250 0.003000
v -0.002415 0.000647 0.003000
v -0.008000 -0.000000 0.003000
v -0.007871 0.001428 0.003000
v -0.007490 0.002811 0.003000
v -0.006868 0.004103 0.003000
v -0.006025 0.005264 0.003000
v -0.004988 0.006255 0.003000
v -0.003791 0.007045 0.003000
v -0.002472 0.007608 0.003000
v -0.001074 0.007928 0.003000
v 0.000359 0.007992 0.003000
v 0.001780 0.007799 0.003000
v 0.003144 0.007356 0.003000
v 0.004407 0.006677 0.003000
v 0.005529 0.005782 0.003000
v 0.006472 0.004702 0.003000
v 0.007208 0.003471 0.003000
v 0.007712 0.002128 0.003000
v 0.007968 0.000717 0.003000
v 0.007968 -0.000717 0.003000
v 0.007712 -0.002128 0.003000
v 0.007208 -0.003471 0.003000
v 0.006472 -0.004702 0.003000
v 0.005529 -0.005782 0.003000
v 0.004407 -0.006677 0.003000
v 0.003144 -0.007356 0.003000
v 0.001780 -0.007799 0.003000
v 0.000359 -0.007992 0.003000
v -0.001074 -0.007928 0.003000
v -0.002472 -0.007608 0.003000
v -0.003791 -0.007045 0.003000
v -0.004988 -0.006255 0.003000
v -0.006025 -0.005264 0.003000
v -0.006868 -0.004103 0.003000
v -0.007490 -0.002811 0.003000
v -0.007871 -0.001428 0.003000
vt 0.100000 0.164775 0.000000
vt -0.100000 0.164775 0.000000
vt 0.100000 0.109850 0.000000
vt -0.100000 0.109850 0.000000
vt -0.100000 0.054925 0.000000
vt 0.100000 0.054925 0.000000
vt -0.100000 -0.000000 0.000000
vt 0.100000 -0.000000 0.000000
vt -0.100000 -0.054925 0.000000
vt 0.100000 -0.054925 0.000000
vt -0.100000 -0.109850 0.000000
vt 0.100000 -0.109850 0.000000
vt 0.100000 -0.164775 0.000000
vt -0.100000 -0.164775 0.000000
vt -0.100000 0.193990 0.000000
vt 0.100000 0.193990 0.000000
vt -0.100000 0.806689 0.000000
vt 0.100000 0.806689 0.000000
vt -0.100000 1.419389 0.000000
vt 0.100000 1.419389 0.000000
vt -0.100000 2.032088 0.000000
vt 0.100000 2.032088 0.000000
vt -0.100000 2.644787 0.000000
vt 0.100000 2.644787 0.000000
vt -0.100000 3.257487 0.000000
vt 0.100000 3.257487 0.000000
vt -0.100000 3.870186 0.000000
vt 0.100000 3.870186 0.000000
vt -0.100000 4.482886 0.000000
vt 0.100000 4.482886 0.000000
vt -0.100000 5.095585 0.000000
vt 0.100000 5.095585 0.000000
vt -0.100000 5.708284 0.000000
vt 0.100000 5.708284 0.000000
vt -0.100000 6.320984 0.000000
vt 0.100000 6.320984 0.000000
vt -0.100000 6.933683 0.000000
vt 0.100000 6.933683 0.000000
vt -0.100000 7.546382 0.000000
vt 0.100000 7.546382 0.000000
vt -0.100000 8.159082 0.000000
vt 0.100000 8.159082 0.000000
vt -0.100000 8.771781 0.000000
vt 0.100000 8.771781 0.000000
vt -0.100000 9.384480 0.000000
vt 0.100000 9.384480 0.000000
vt -0.100000 9.997180 0.000000
vt 0.100000 9.997180 0.000000
vt -4.863733 0.513660 0.000000
vt -4.909519 0.483522 0.000000
vt -4.812479 0.533095 0.000000
vt -4.947636 0.444130 0.000000
vt -4.216304 0.674251 0.000000
vt -4.976252 0.397377 0.000000
vt -4.993991 0.345512 0.000000
vt -5.000000 0.291028 0.000000
vt -3.614936 0.791325 0.000000
vt -3.009348 0.884128 0.000000
vt 0.657703 0.925617 0.000000
vt -2.400518 0.952510 0.000000
vt 0.047482 0.980206 0.000000
vt -1.789431 0.996359 0.000000
vt -0.564441 1.010219 0.000000
vt -1.177075 1.015606 0.000000
vt -5.000000 -0.766581 0.000000
vt 2.468315 0.615469 0.000000
vt 1.869099 0.743101 0.000000
vt 1.265236 0.846539 0.000000
vt -4.991481 -0.831286 0.000000
vt -4.750000 -1.016581 0.000000
vt 3.233648 -1.016581 0.000000
vt 3.061916 0.463851 0.000000
vt 3.648941 0.288490 0.000000
vt 4.380050 -0.510951 0.000000
vt 4.477889 -0.410446 0.000000
vt -4.966506 -0.891581 0.000000
vt -4.926777 -0.943358 0.000000
vt -4.875000 -0.983088 0.000000
vt -4.814705 -1.008063 0.000000
vt 3.421519 -1.028009 0.000000
vt 4.209904 -0.891087 0.000000
vt 4.243966 -0.755023 0.000000
vt 4.301268 -0.626999 0.000000
vt 3.606621 -1.062124 0.000000
vt 4.200130 -1.031009 0.000000
vt 3.786222 -1.118423 0.000000
vt 4.214944 -1.170488 0.000000
vt 3.957676 -1.196077 0.000000
vt 4.118453 -1.293939 0.000000
vt 4.253891 -1.305235 0.000000
vt 4.266184 -1.410567 0.000000
vt 4.315773 -1.431109 0.000000
vt 4.398689 -1.544241 0.000000
vt 4.228441 0.089671 0.000000
vt 4.591778 -0.328574 0.000000
vt 4.718215 -0.267851 0.000000
vt 4.799480 -0.132284 0.000000
vt 4.853315 -0.230144 0.000000
vt 4.908089 -0.172357 0.000000
vt 4.992923 -0.216613 0.000000
vt 5.019386 -0.204213 0.000000
vt 5.132750 -0.227672 0.000000
vt 0.100000 0.196350 0.000000
vt -0.100000 0.196350 0.000000
vt 0.100000 0.130900 0.000000
vt -0.100000 0.130900 0.000000
vt 0.100000 0.065450 0.000000
vt -0.100000 0.065450 0.000000
vt 0.100000 -0.000000 0.000000
vt -0.100000 -0.000000 0.000000
vt 0.100000 -0.065450 0.000000
vt -0.100000 -0.065450 0.000000
vt 0.100000 -0.130900 0.000000
vt -0.100000 -0.130900 0.000000
vt 0.100000 -0.196350 0.000000
vt -0.100000 -0.196350 0.000000
vt 8.950000 0.100000 0.000000
vt 0.966352 0.100000 0.000000
vt 8.950000 -0.100000 0.000000
vt 0.966352 -0.100000 0.000000
vt 0.100000 0.196350 0.000000
vt -0.100000 0.196350 0.000000
vt 0.100000 0.130900 0.000000
vt -0.100000 0.130900 0.000000
vt 0.100000 0.065450 0.000000
vt -0.100000 0.065450 0.000000
vt 0.100000 -0.000000 0.000000
vt -0.100000 -0.000000 0.000000
vt 0.100000 -0.065450 0.000000
vt -0.100000 -0.065450 0.000000
vt 0.100000 -0.130900 0.000000
vt -0.100000 -0.130900 0.000000
vt 0.100000 -0.196350 0.000000
vt -0.100000 -0.196350 0.000000
vt 8.950000 0.100000 0.000000
vt 0.966352 0.100000 0.000000
vt 8.950000 -0.100000 0.000000
vt 0.966352 -0.100000 0.000000
vt -4.814705 1.008063 0.000000
vt -4.875000 0.983088 0.000000
vt -4.750000 1.016581 0.000000
vt -4.926777 0.943358 0.000000
vt -4.966506 0.891581 0.000000
vt -4.991481 0.831286 0.000000
vt -5.000000 0.766581 0.000000
vt 3.233648 1.016581 0.000000
vt 3.061916 -0.463851 0.000000
vt 3.648941 -0.288490 0.000000
vt 2.468315 -0.615469 0.000000
vt -5.000000 -0.291028 0.000000
vt 1.869099 -0.743101 0.000000
vt 1.265236 -0.846539 0.000000
vt 0.657703 -0.925617 0.000000
vt -3.009348 -0.884128 0.000000
vt -2.400518 -0.952510 0.000000
vt -4.993991 -0.345512 0.000000
vt -4.216304 -0.674251 0.000000
vt -3.614936 -0.791325 0.000000
vt -4.976252 -0.397377 0.000000
vt -4.947636 -0.444130 0.000000
vt -4.812479 -0.533095 0.000000
vt -4.909519 -0.483522 0.000000
vt -4.863733 -0.513660 0.000000
vt 0.047482 -0.980206 0.000000
vt -1.789431 -0.996359 0.000000
vt -0.564441 -1.010219 0.000000
vt -1.177075 -1.015606 0.000000
vt 4.228441 -0.089671 0.000000
vt 4.477889 0.410446 0.000000
vt 4.380050 0.510951 0.000000
vt 4.301268 0.626999 0.000000
vt 4.243966 0.755023 0.000000
vt 4.799480 0.132284 0.000000
vt 4.718215 0.267851 0.000000
vt 4.591778 0.328574 0.000000
vt 4.853315 0.230144 0.000000
vt 4.908089 0.172357 0.000000
vt 4.992923 0.216613 0.000000
vt 5.019386 0.204213 0.000000
vt 5.132750 0.227672 0.000000
vt 4.209904 0.891087 0.000000
vt 3.421519 1.028009 0.000000
vt 3.606621 1.062124 0.000000
vt 4.200130 1.031009 0.000000
vt 3.786222 1.118423 0.000000
vt 4.214944 1.170488 0.000000
vt 3.957676 1.196077 0.000000
vt 4.118453 1.293939 0.000000
vt 4.253891 1.305235 0.000000
vt 4.266184 1.410567 0.000000
vt 4.315773 1.431109 0.000000
vt 4.398689 1.544241 0.000000
vt 0.100000 0.164775 0.000000
vt -0.100000 0.164775 0.000000
vt 0.100000 0.109850 0.000000
vt -0.100000 0.109850 0.000000
vt -0.100000 0.054925 0.000000
vt 0.100000 0.054925 0.000000
vt -0.100000 -0.000000 0.000000
vt 0.100000 -0.000000 0.000000
vt -0.100000 -0.054925 0.000000
vt 0.100000 -0.054925 0.000000
vt -0.100000 -0.109850 0.000000
vt 0.100000 -0.109850 0.000000
vt 0.100000 -0.164775 0.000000
vt -0.100000 -0.164775 0.000000
vt -0.100000 0.193990 0.000000
vt 0.100000 0.193990 0.000000
vt -0.100000 0.806689 0.000000
vt 0.100000 0.806689 0.000000
vt -0.100000 1.419389 0.000000
vt 0.100000 1.419389 0.000000
vt -0.100000 2.032088 0.000000
vt 0.100000 2.032088 0.000000
vt -0.100000 2.644787 0.000000
vt 0.100000 2.644787 0.000000
vt -0.100000 3.257487 0.000000
vt 0.100000 3.257487 0.000000
vt -0.100000 3.870186 0.000000
vt 0.100000 3.870186 0.000000
vt -0.100000 4.482886 0.000000
vt 0.100000 4.482886 0.000000
vt -0.100000 5.095585 0.000000
vt 0.100000 5.095585 0.000000
vt -0.100000 5.708284 0.000000
vt 0.100000 5.708284 0.000000
vt -0.100000 6.320984 0.000000
vt 0.100000 6.320984 0.000000
vt -0.100000 6.933683 0.000000
vt 0.100000 6.933683 0.000000
vt -0.100000 7.546382 0.000000
vt 0.100000 7.546382 0.000000
vt -0.100000 8.159082 0.000000
vt 0.100000 8.159082 0.000000
vt -0.100000 8.771781 0.000000
vt 0.100000 8.771781 0.000000
vt -0.100000 9.384480 0.000000
vt 0.100000 9.384480 0.000000
vt -0.100000 9.997180 0.000000
vt 0.100000 9.997180 0.000000
vt 0.100000 0.659171 0.000000
vt -0.100000 0.659171 0.000000
vt 0.100000 0.470837 0.000000
vt -0.100000 0.470837 0.000000
vt 0.100000 0.282502 0.000000
vt -0.100000 0.282502 0.000000
vt 0.100000 0.094167 0.000000
vt -0.100000 0.094167 0.000000
vt 0.100000 -0.094167 0.000000
vt -0.100000 -0.094167 0.000000
vt 0.100000 -0.282502 0.000000
vt -0.100000 -0.282502 0.000000
vt 0.100000 -0.470837 0.000000
vt -0.100000 -0.470837 0.000000
vt 0.100000 -0.659171 0.000000
vt -0.100000 -0.659171 0.000000
vt 0.100000 0.173689 0.000000
vt -0.100000 0.173689 0.000000
vt 0.100000 0.057896 0.000000
vt -0.100000 0.057896 0.000000
vt -0.100000 -0.057896 0.000000
vt -0.100000 -0.173689 0.000000
vt 0.100000 -0.173689 0.000000
vt 0.100000 -0.057896 0.000000
vt 0.100000 0.659171 0.000000
vt -0.100000 0.659171 0.000000
vt 0.100000 0.470837 0.000000
vt -0.100000 0.470837 0.000000
vt 0.100000 0.282502 0.000000
vt -0.100000 0.282502 0.000000
vt 0.100000 0.094167 0.000000
vt -0.100000 0.094167 0.000000
vt 0.100000 -0.094167 0.000000
vt -0.100000 -0.094167 0.000000
vt 0.100000 -0.282502 0.000000
vt -0.100000 -0.282502 0.000000
vt 0.100000 -0.470837 0.000000
vt -0.100000 -0.470837 0.000000
vt 0.100000 -0.659171 0.000000
vt -0.100000 -0.659171 0.000000
vt 0.100000 0.173689 0.000000
vt -0.100000 0.173689 0.000000
vt 0.100000 0.057896 0.000000
vt -0.100000 0.057896 0.000000
vt -0.100000 -0.057896 0.000000
vt -0.100000 -0.173689 0.000000
vt 0.100000 -0.173689 0.000000
vt 0.100000 -0.057896 0.000000
vt 4.991481 0.831286 0.000000
vt 4.750000 1.016581 0.000000
vt 5.000000 0.766581 0.000000
vt -3.233648 1.016581 0.000000
vt -3.061916 -0.463851 0.000000
vt -3.648941 -0.288490 0.000000
vt -4.380050 0.510951 0.000000
vt -4.477889 0.410446 0.000000
vt 4.966506 0.891581 0.000000
vt 4.926777 0.943358 0.000000
vt 4.875000 0.983088 0.000000
vt 4.814705 1.008063 0.000000
vt -3.421519 1.028009 0.000000
vt -4.209904 0.891087 0.000000
vt -4.243966 0.755023 0.000000
vt -4.301268 0.626999 0.000000
vt -3.606621 1.062124 0.000000
vt -4.200130 1.031009 0.000000
vt -3.786222 1.118423 0.000000
vt -4.214944 1.170488 0.000000
vt -3.957676 1.196077 0.000000
vt -4.118453 1.293939 0.000000
vt -4.253891 1.305235 0.000000
vt -4.266184 1.410567 0.000000
vt -4.315773 1.431109 0.000000
vt -4.398689 1.544241 0.000000
vt -4.228441 -0.089671 0.000000
vt -4.591778 0.328574 0.000000
vt -4.718215 0.267851 0.000000
vt -4.799480 0.132284 0.000000
vt -4.853315 0.230144 0.000000
vt -4.908089 0.172357 0.000000
vt -4.992923 0.216613 0.000000
vt -5.019386 0.204213 0.000000
vt -5.132750 0.227672 0.000000
vt -2.468315 -0.615469 0.000000
vt 5.000000 -0.291028 0.000000
vt -1.869099 -0.743101 0.000000
vt -1.265236 -0.846539 0.000000
vt -0.657703 -0.925617 0.000000
vt 3.009348 -0.884128 0.000000
vt 3.614936 -0.791325 0.000000
vt 2.400518 -0.952510 0.000000
vt -0.047482 -0.980206 0.000000
vt 1.789431 -0.996359 0.000000
vt 0.564441 -1.010219 0.000000
vt 1.177075 -1.015606 0.000000
vt 4.216304 -0.674251 0.000000
vt 4.993991 -0.345512 0.000000
vt 4.976252 -0.397377 0.000000
vt 4.947636 -0.444130 0.000000
vt 4.812479 -0.533095 0.000000
vt 4.909519 -0.483522 0.000000
vt 4.863733 -0.513660 0.000000
vt 0.250000 -0.100000 0.000000
vt 1.307609 -0.100000 0.000000
vt 0.250000 0.100000 0.000000
vt 1.307609 0.100000 0.000000
vt 1.307609 0.100000 0.000000
vt 0.250000 0.100000 0.000000
vt 1.307609 -0.100000 0.000000
vt 0.250000 -0.100000 0.000000
vt 4.993991 0.345512 0.000000
vt 4.216304 0.674251 0.000000
vt 5.000000 0.291028 0.000000
vt 3.614936 0.791325 0.000000
vt 3.009348 0.884128 0.000000
vt 4.976252 0.397377 0.000000
vt 4.947636 0.444130 0.000000
vt 4.812479 0.533095 0.000000
vt 4.909519 0.483522 0.000000
vt 4.863733 0.513660 0.000000
vt -0.657703 0.925617 0.000000
vt 2.400518 0.952510 0.000000
vt -0.047482 0.980206 0.000000
vt 1.789431 0.996359 0.000000
vt 0.564441 1.010219 0.000000
vt 1.177075 1.015606 0.000000
vt -1.265236 0.846539 0.000000
vt -1.869099 0.743101 0.000000
vt -2.468315 0.615469 0.000000
vt 5.000000 -0.766581 0.000000
vt -3.061916 0.463851 0.000000
vt -3.233648 -1.016581 0.000000
vt -3.648941 0.288490 0.000000
vt -4.380050 -0.510951 0.000000
vt -4.477889 -0.410446 0.000000
vt -4.228441 0.089671 0.000000
vt -4.591778 -0.328574 0.000000
vt -4.718215 -0.267851 0.000000
vt -4.799480 -0.132284 0.000000
vt -4.853315 -0.230144 0.000000
vt -4.908089 -0.172357 0.000000
vt -4.992923 -0.216613 0.000000
vt -5.019386 -0.204213 0.000000
vt -5.132750 -0.227672 0.000000
vt -4.301268 -0.626999 0.000000
vt -4.243966 -0.755023 0.000000
vt -4.209904 -0.891087 0.000000
vt -4.200130 -1.031009 0.000000
vt -3.606621 -1.062124 0.000000
vt -3.421519 -1.028009 0.000000
vt -3.786222 -1.118423 0.000000
vt -4.214944 -1.170488 0.000000
vt -3.957676 -1.196077 0.000000
vt -4.118453 -1.293939 0.000000
vt -4.253891 -1.305235 0.000000
vt -4.266184 -1.410567 0.000000
vt -4.315773 -1.431109 0.000000
vt -4.398689 -1.544241 0.000000
vt 4.750000 -1.016581 0.000000
vt 4.991481 -0.831286 0.000000
vt 4.966506 -0.891581 0.000000
vt 4.926777 -0.943358 0.000000
vt 4.875000 -0.983088 0.000000
vt 4.814705 -1.008063 0.000000
vt 0.241481 -0.064705 0.000000
vt 0.787144 -0.142846 0.000000
vt 0.250000 -0.000000 0.000000
vt 0.800000 -0.000000 0.000000
vt 0.787144 0.142846 0.000000
vt 0.748988 -0.281100 0.000000
vt 0.216506 -0.125000 0.000000
vt 0.686759 -0.410319 0.000000
vt 0.602457 -0.526351 0.000000
vt 0.176777 -0.176777 0.000000
vt 0.498792 -0.625465 0.000000
vt 0.125000 -0.216506 0.000000
vt 0.379095 -0.704476 0.000000
vt 0.247214 -0.760845 0.000000
vt 0.064705 -0.241481 0.000000
vt 0.107387 -0.792760 0.000000
vt -0.000000 -0.250000 0.000000
vt -0.035892 -0.799194 0.000000
vt -0.064705 -0.241481 0.000000
vt -0.178017 -0.779942 0.000000
vt -0.314420 -0.735622 0.000000
vt -0.125000 -0.216506 0.000000
vt -0.440718 -0.667659 0.000000
vt -0.176777 -0.176777 0.000000
vt -0.552850 -0.578236 0.000000
vt -0.647214 -0.470228 0.000000
vt -0.216506 -0.125000 0.000000
vt -0.720775 -0.347107 0.000000
vt -0.241481 -0.064705 0.000000
vt -0.771170 -0.212829 0.000000
vt -0.796779 -0.071711 0.000000
vt -0.250000 0.000000 0.000000
vt -0.796779 0.071711 0.000000
vt -0.241481 0.064705 0.000000
vt -0.771170 0.212829 0.000000
vt -0.720775 0.347107 0.000000
vt -0.216506 0.125000 0.000000
vt -0.647214 0.470228 0.000000
vt -0.176777 0.176777 0.000000
vt -0.552850 0.578236 0.000000
vt -0.440718 0.667659 0.000000
vt -0.125000 0.216506 0.000000
vt -0.314420 0.735622 0.000000
vt -0.064705 0.241481 0.000000
vt -0.178017 0.779942 0.000000
vt -0.035892 0.799194 0.000000
vt -0.000000 0.250000 0.000000
vt 0.107387 0.792760 0.000000
vt 0.064705 0.241481 0.000000
vt 0.247214 0.760845 0.000000
vt 0.125000 0.216506 0.000000
vt 0.379095 0.704476 0.000000
vt 0.498792 0.625465 0.000000
vt 0.176777 0.176777 0.000000
vt 0.602457 0.526351 0.000000
vt 0.216506 0.125000 0.000000
vt 0.686759 0.410319 0.000000
vt 0.748988 0.281100 0.000000
vt 0.241481 0.064705 0.000000
vt -0.300000 0.719948 0.000000
vt 0.300000 0.719948 0.000000
vt -0.300000 0.785398 0.000000
vt 0.300000 0.785398 0.000000
vt -0.300000 -0.785398 0.000000
vt 0.300000 -0.785398 0.000000
vt -0.300000 -0.719948 0.000000
vt 0.300000 -0.719948 0.000000
vt -0.300000 -0.654498 0.000000
vt 0.300000 -0.654498 0.000000
vt -0.300000 -0.589049 0.000000
vt 0.300000 -0.589049 0.000000
vt -0.300000 -0.523599 0.000000
vt 0.300000 -0.523599 0.000000
vt -0.300000 -0.458149 0.000000
vt 0.300000 -0.458149 0.000000
vt -0.300000 -0.392699 0.000000
vt 0.300000 -0.392699 0.000000
vt -0.300000 -0.327249 0.000000
vt 0.300000 -0.327249 0.000000
vt -0.300000 -0.261799 0.000000
vt 0.300000 -0.261799 0.000000
vt -0.300000 -0.196350 0.000000
vt 0.300000 -0.196350 0.000000
vt -0.300000 -0.130900 0.000000
vt 0.300000 -0.130900 0.000000
vt -0.300000 -0.065450 0.000000
vt 0.300000 -0.065450 0.000000
vt -0.300000 0.000000 0.000000
vt 0.300000 0.000000 0.000000
vt -0.300000 0.065450 0.000000
vt 0.300000 0.065450 0.000000
vt -0.300000 0.130900 0.000000
vt 0.300000 0.130900 0.000000
vt -0.300000 0.196350 0.000000
vt 0.300000 0.196350 0.000000
vt -0.300000 0.261799 0.000000
vt 0.300000 0.261799 0.000000
vt -0.300000 0.327249 0.000000
vt 0.300000 0.327249 0.000000
vt -0.300000 0.392699 0.000000
vt 0.300000 0.392699 0.000000
vt -0.300000 0.458149 0.000000
vt 0.300000 0.458149 0.000000
vt -0.300000 0.523599 0.000000
vt 0.300000 0.523599 0.000000
vt -0.300000 0.589049 0.000000
vt 0.300000 0.589049 0.000000
vt -0.300000 0.654498 0.000000
vt 0.300000 0.654498 0.000000
vt -0.100000 -0.435759 0.000000
vt -0.300000 -0.502655 0.000000
vt -0.100000 -0.576202 0.000000
vt -0.300000 -0.646270 0.000000
vt 0.300000 -0.646270 0.000000
vt 0.300000 -0.789886 0.000000
vt -0.300000 -0.789886 0.000000
vt 0.300000 -0.933502 0.000000
vt -0.300000 -0.933502 0.000000
vt 0.300000 -1.077117 0.000000
vt -0.300000 -1.077117 0.000000
vt 0.100000 -1.123270 0.000000
vt -0.100000 -1.123270 0.000000
vt -0.300000 -1.220733 0.000000
vt -0.100000 -1.263714 0.000000
vt -0.300000 -1.364349 0.000000
vt -0.100000 -1.404157 0.000000
vt -0.300000 -1.507964 0.000000
vt -0.100000 -1.544600 0.000000
vt -0.300000 -1.651580 0.000000
vt -0.100000 -1.685044 0.000000
vt -0.300000 -1.795196 0.000000
vt -0.100000 -1.825487 0.000000
vt -0.300000 -1.938811 0.000000
vt -0.100000 -1.965930 0.000000
vt -0.300000 -2.082427 0.000000
vt -0.100000 -2.106373 0.000000
vt -0.300000 -2.226043 0.000000
vt -0.100000 -2.246817 0.000000
vt -0.300000 -2.369658 0.000000
vt -0.100000 -2.387260 0.000000
vt -0.300000 -2.513274 0.000000
vt -0.100000 -2.527703 0.000000
vt -0.100000 2.498845 0.000000
vt -0.300000 2.513274 0.000000
vt -0.300000 2.369658 0.000000
vt -0.100000 2.358402 0.000000
vt -0.300000 2.226043 0.000000
vt -0.100000 2.217959 0.000000
vt -0.300000 2.082427 0.000000
vt -0.100000 2.077515 0.000000
vt -0.300000 1.938811 0.000000
vt -0.100000 1.937072 0.000000
vt -0.300000 1.795196 0.000000
vt 0.300000 1.795196 0.000000
vt 0.300000 1.651580 0.000000
vt -0.300000 1.651580 0.000000
vt 0.300000 1.507964 0.000000
vt -0.300000 1.507964 0.000000
vt 0.100000 1.390004 0.000000
vt -0.100000 1.390004 0.000000
vt -0.300000 1.364349 0.000000
vt -0.100000 1.249560 0.000000
vt -0.300000 1.220733 0.000000
vt -0.100000 1.109117 0.000000
vt -0.300000 1.077117 0.000000
vt -0.100000 0.968674 0.000000
vt -0.300000 0.933502 0.000000
vt -0.100000 0.828231 0.000000
vt -0.300000 0.789886 0.000000
vt -0.100000 0.687787 0.000000
vt -0.300000 0.646270 0.000000
vt -0.100000 0.547344 0.000000
vt -0.300000 0.502655 0.000000
vt -0.100000 0.406901 0.000000
vt -0.300000 0.359039 0.000000
vt -0.100000 0.266458 0.000000
vt -0.300000 0.215423 0.000000
vt -0.100000 0.126014 0.000000
vt -0.300000 0.071808 0.000000
vt -0.100000 -0.014429 0.000000
vt -0.300000 -0.071808 0.000000
vt -0.100000 -0.154872 0.000000
vt -0.300000 -0.215423 0.000000
vt -0.100000 -0.295315 0.000000
vt -0.300000 -0.359039 0.000000
vt 0.300000 1.364349 0.000000
vt 0.100000 1.249560 0.000000
vt 0.300000 1.220733 0.000000
vt 0.100000 1.109117 0.000000
vt 0.300000 1.077117 0.000000
vt 0.100000 0.968674 0.000000
vt 0.300000 0.933502 0.000000
vt 0.100000 0.828231 0.000000
vt 0.300000 0.789886 0.000000
vt 0.100000 0.687787 0.000000
vt 0.300000 0.646270 0.000000
vt 0.100000 0.547344 0.000000
vt 0.300000 0.502655 0.000000
vt 0.100000 0.406901 0.000000
vt 0.300000 0.359039 0.000000
vt 0.100000 0.266458 0.000000
vt 0.300000 0.215423 0.000000
vt 0.100000 0.126014 0.000000
vt 0.300000 0.071808 0.000000
vt 0.100000 -0.014429 0.000000
vt 0.300000 -0.071808 0.000000
vt 0.100000 -0.154872 0.000000
vt 0.300000 -0.215423 0.000000
vt 0.100000 -0.295315 0.000000
vt 0.300000 -0.359039 0.000000
vt 0.100000 -0.435759 0.000000
vt 0.300000 -0.502655 0.000000
vt 0.100000 -0.576202 0.000000
vt 0.300000 -1.220733 0.000000
vt 0.100000 -1.263714 0.000000
vt 0.300000 -1.364349 0.000000
vt 0.100000 -1.404157 0.000000
vt 0.300000 -1.507964 0.000000
vt 0.100000 -1.544600 0.000000
vt 0.300000 -1.651580 0.000000
vt 0.100000 -1.685044 0.000000
vt 0.300000 -1.795196 0.000000
vt 0.100000 -1.825487 0.000000
vt 0.300000 -1.938811 0.000000
vt 0.100000 -1.965930 0.000000
vt 0.300000 -2.082427 0.000000
vt 0.100000 -2.106373 0.000000
vt 0.300000 -2.226043 0.000000
vt 0.100000 -2.246817 0.000000
vt 0.300000 -2.369658 0.000000
vt 0.100000 -2.387260 0.000000
vt 0.300000 -2.513274 0.000000
vt 0.300000 2.513274 0.000000
vt 0.100000 2.639288 0.000000
vt 0.100000 2.498845 0.000000
vt 0.300000 2.369658 0.000000
vt 0.100000 2.358402 0.000000
vt 0.300000 2.226043 0.000000
vt 0.100000 2.217959 0.000000
vt 0.300000 2.082427 0.000000
vt 0.100000 2.077515 0.000000
vt 0.300000 1.938811 0.000000
vt 0.100000 1.937072 0.000000
vt -0.241481 0.064705 0.000000
vt -0.787144 0.142846 0.000000
vt -0.250000 -0.000000 0.000000
vt -0.800000 -0.000000 0.000000
vt -0.787144 -0.142846 0.000000
vt -0.748988 0.281100 0.000000
vt -0.216506 0.125000 0.000000
vt -0.686759 0.410319 0.000000
vt -0.602457 0.526351 0.000000
vt -0.176777 0.176777 0.000000
vt -0.498792 0.625465 0.000000
vt -0.125000 0.216506 0.000000
vt -0.379095 0.704476 0.000000
vt -0.247214 0.760845 0.000000
vt -0.064705 0.241481 0.000000
vt -0.107387 0.792760 0.000000
vt 0.000000 0.250000 0.000000
vt 0.035892 0.799194 0.000000
vt 0.064705 0.241481 0.000000
vt 0.178017 0.779942 0.000000
vt 0.314420 0.735622 0.000000
vt 0.125000 0.216506 0.000000
vt 0.440718 0.667659 0.000000
vt 0.176777 0.176777 0.000000
vt 0.552850 0.578236 0.000000
vt 0.647214 0.470228 0.000000
vt 0.216506 0.125000 0.000000
vt 0.720775 0.347107 0.000000
vt 0.241481 0.064705 0.000000
vt 0.771170 0.212829 0.000000
vt 0.796779 0.071711 0.000000
vt 0.250000 0.000000 0.000000
vt 0.796779 -0.071711 0.000000
vt 0.241481 -0.064705 0.000000
vt 0.771170 -0.212829 0.000000
vt 0.720775 -0.347107 0.000000
vt 0.216506 -0.125000 0.000000
vt 0.647214 -0.470228 0.000000
vt 0.176777 -0.176777 0.000000
vt 0.552850 -0.578236 0.000000
vt 0.440718 -0.667659 0.000000
vt 0.125000 -0.216506 0.000000
vt 0.314420 -0.735622 0.000000
vt 0.064705 -0.241481 0.000000
vt 0.178017 -0.779942 0.000000
vt 0.035892 -0.799194 0.000000
vt 0.000000 -0.250000 0.000000
vt -0.107387 -0.792760 0.000000
vt -0.064705 -0.241481 0.000000
vt -0.247214 -0.760845 0.000000
vt -0.125000 -0.216506 0.000000
vt -0.379095 -0.704476 0.000000
vt -0.498792 -0.625465 0.000000
vt -0.176777 -0.176777 0.000000
vt -0.602457 -0.526351 0.000000
vt -0.216506 -0.125000 0.000000
vt -0.686759 -0.410319 0.000000
vt -0.748988 -0.281100 0.000000
vt -0.241481 -0.064705 0.000000
vn 24.991780 96.826706 0.000000
vn 24.991780 96.826706 0.000000
vn 45.493171 89.052633 0.000000
vn 45.493171 89.052633 0.000000
vn 63.807508 76.997415 0.000000
vn 63.807508 76.997415 0.000000
vn 79.054342 61.240599 0.000000
vn 79.054342 61.240599 0.000000
vn 90.500693 42.539683 0.000000
vn 90.500693 42.539683 0.000000
vn 97.596284 21.793700 0.000000
vn 97.596284 21.793700 0.000000
vn 100.000000 -0.000000 0.000000
vn 100.000000 -0.000000 0.000000
vn 21.078870 97.753165 0.000000
vn 21.078870 97.753165 0.000000
vn 17.131876 98.521565 0.000000
vn 17.131876 98.521565 0.000000
vn 13.157182 99.130664 0.000000
vn 13.157182 99.130664 0.000000
vn 9.161213 99.579477 0.000000
vn 9.161213 99.579477 0.000000
vn 5.150432 99.867277 0.000000
vn 5.150432 99.867277 0.000000
vn 1.131322 99.993600 0.000000
vn 1.131322 99.993600 0.000000
vn -2.889616 99.958242 -0.000000
vn -2.889616 99.958242 -0.000000
vn -6.905883 99.761259 -0.000000
vn -6.905883 99.761259 -0.000000
vn -10.910983 99.402970 -0.000000
vn -10.910983 99.402970 -0.000000
vn -14.898440 98.883955 -0.000000
vn -14.898440 98.883955 -0.000000
vn -18.861809 98.205052 -0.000000
vn -18.861809 98.205052 -0.000000
vn -22.794679 97.367359 -0.000000
vn -22.794679 97.367359 -0.000000
vn -26.690692 96.372231 -0.000000
vn -26.690692 96.372231 -0.000000
vn -30.543548 95.221277 -0.000000
vn -30.543548 95.221277 -0.000000
vn -34.347018 93.916358 -0.000000
vn -34.347018 93.916358 -0.000000
vn -38.094952 92.459584 -0.000000
vn -38.094952 92.459584 -0.000000
vn 0.000000 0.000000 -100.000000
vn 0.000000 0.000000 -100.000000
vn 0.000000 0.000000 -100.000000
vn 0.000000 0.000000 -100.000000
vn 0.000000 0.000000 -100.000000
vn 0.000000 0.000000 -100.000000
vn 0.000000 0.000000 -100.000000
vn 0.000000 0.000000 -100.000000
vn 0.000000 0.000000 -100.000000
vn 0.000000 0.000000 -100.000000
vn 0.000000 0.000000 -100.000000
vn 0.000000 0.000000 -100.000000
vn 0.000000 0.000000 -100.000000
vn 0.000000 0.000000 -100.000000
vn 0.000000 0.000000 -100.000000
vn 0.000000 0.000000 -100.000000
vn 0.000000 0.000000 -100.000000
vn 0.000000 0.000000 -100.000000
vn 0.000000 0.000000 -100.000000
vn 0.000000 0.000000 -100.000000
vn 0.000000 0.000000 -100.000000
vn 0.000000 0.000000 -100.000000
vn 0.000000 0.000000 -100.000000
vn 0.000000 0.000000 -100.000000
vn 0.000000 0.000000 -100.000000
vn 0.000000 0.000000 -100.000000
vn 0.000000 0.000000 -100.000000
vn 0.000000 0.000000 -100.000000
vn 0.000000 0.000000 -100.000000
vn 0.000000 0.000000 -100.000000
vn 0.000000 0.000000 -100.000000
vn 0.000000 0.000000 -100.000000
vn 0.000000 0.000000 -100.000000
vn 0.000000 0.000000 -100.000000
vn 0.000000 0.000000 -100.000000
vn 0.000000 0.000000 -100.000000
vn 0.000000 0.000000 -100.000000
vn 0.000000 0.000000 -100.000000
vn 0.000000 0.000000 -100.000000
vn 0.000000 0.000000 -100.000000
vn 0.000000 0.000000 -100.000000
vn 0.000000 0.000000 -100.000000
vn 0.000000 0.000000 -100.000000
vn 0.000000 0.000000 -100.000000
vn 0.000000 0.000000 -100.000000
vn 0.000000 0.000000 -100.000000
vn 0.000000 0.000000 -100.000000
vn 0.000000 0.000000 -100.000000
vn 0.000000 0.000000 -100.000000
vn 0.000000 0.000000 -100.000000
vn 0.000000 0.000000 -100.000000
vn 0.000000 0.000000 -100.000000
vn 0.000000 0.000000 -100.000000
vn 0.000000 0.000000 -100.000000
vn 100.000000 0.000000 0.000000
vn 100.000000 0.000000 0.000000
vn 96.592583 -25.881905 0.000000
vn 96.592583 -25.881905 0.000000
vn 86.602540 -50.000000 0.000000
vn 86.602540 -50.000000 0.000000
vn 70.710678 -70.710678 0.000000
vn 70.710678 -70.710678 0.000000
vn 50.000000 -86.602540 0.000000
vn 50.000000 -86.602540 0.000000
vn 25.881905 -96.592583 0.000000
vn 25.881905 -96.592583 0.000000
vn 0.000000 -100.000000 0.000000
vn 0.000000 -100.000000 0.000000
vn 0.000000 -100.000000 0.000000
vn 0.000000 -100.000000 0.000000
vn -100.000000 0.000000 0.000000
vn -100.000000 0.000000 0.000000
vn -96.592583 25.881905 -0.000000
vn -96.592583 25.881905 -0.000000
vn -86.602540 50.000000 -0.000000
vn -86.602540 50.000000 -0.000000
vn -70.710678 70.710678 -0.000000
vn -70.710678 70.710678 -0.000000
vn -50.000000 86.602540 -0.000000
vn -50.000000 86.602540 -0.000000
vn -25.881905 96.592583 -0.000000
vn -25.881905 96.592583 -0.000000
vn -0.000000 100.000000 -0.000000
vn -0.000000 100.000000 -0.000000
vn 0.000000 100.000000 0.000000
vn 0.000000 100.000000 0.000000
vn 0.000000 0.000000 100.000000
vn 0.000000 0.000000 100.000000
vn 0.000000 0.000000 100.000000
vn 0.000000 0.000000 100.000000
vn 0.000000 0.000000 100.000000
vn 0.000000 0.000000 100.000000
vn 0.000000 0.000000 100.000000
vn 0.000000 0.000000 100.000000
vn 0.000000 0.000000 100.000000
vn 0.000000 0.000000 100.000000
vn 0.000000 0.000000 100.000000
vn 0.000000 0.000000 100.000000
vn 0.000000 0.000000 100.000000
vn 0.000000 0.000000 100.000000
vn 0.000000 0.000000 100.000000
vn 0.000000 0.000000 100.000000
vn 0.000000 0.000000 100.000000
vn 0.000000 0.000000 100.000000
vn 0.000000 0.000000 100.000000
vn 0.000000 0.000000 100.000000
vn 0.000000 0.000000 100.000000
vn 0.000000 0.000000 100.000000
vn 0.000000 0.000000 100.000000
vn 0.000000 0.000000 100.000000
vn 0.000000 0.000000 100.000000
vn 0.000000 0.000000 100.000000
vn 0.000000 0.000000 100.000000
vn 0.000000 0.000000 100.000000
vn 0.000000 0.000000 100.000000
vn 0.000000 0.000000 100.000000
vn 0.000000 0.000000 100.000000
vn 0.000000 0.000000 100.000000
vn 0.000000 0.000000 100.000000
vn 0.000000 0.000000 100.000000
vn 0.000000 0.000000 100.000000
vn 0.000000 0.000000 100.000000
vn 0.000000 0.000000 100.000000
vn 0.000000 0.000000 100.000000
vn 0.000000 0.000000 100.000000
vn 0.000000 0.000000 100.000000
vn 0.000000 0.000000 100.000000
vn 0.000000 0.000000 100.000000
vn 0.000000 0.000000 100.000000
vn 0.000000 0.000000 100.000000
vn 0.000000 0.000000 100.000000
vn 0.000000 0.000000 100.000000
vn 0.000000 0.000000 100.000000
vn 0.000000 0.000000 100.000000
vn 0.000000 0.000000 100.000000
vn 0.000000 0.000000 100.000000
vn 0.000000 0.000000 100.000000
vn 0.000000 0.000000 100.000000
vn 0.000000 0.000000 100.000000
vn 0.000000 0.000000 100.000000
vn -24.991780 -96.826706 0.000000
vn -24.991780 -96.826706 0.000000
vn -45.493171 -89.052633 0.000000
vn -45.493171 -89.052633 0.000000
vn -63.807508 -76.997415 0.000000
vn -63.807508 -76.997415 0.000000
vn -79.054342 -61.240599 0.000000
vn -79.054342 -61.240599 0.000000
vn -90.500693 -42.539683 0.000000
vn -90.500693 -42.539683 0.000000
vn -97.596284 -21.793700 0.000000
vn -97.596284 -21.793700 0.000000
vn -100.000000 0.000000 -0.000000
vn -100.000000 0.000000 -0.000000
vn -21.078870 -97.753165 0.000000
vn -21.078870 -97.753165 0.000000
vn -17.131876 -98.521565 0.000000
vn -17.131876 -98.521565 0.000000
vn -13.157182 -99.130664 0.000000
vn -13.157182 -99.130664 0.000000
vn -9.161213 -99.579477 0.000000
vn -9.161213 -99.579477 0.000000
vn -5.150432 -99.867277 0.000000
vn -5.150432 -99.867277 0.000000
vn -1.131322 -99.993600 0.000000
vn -1.131322 -99.993600 0.000000
vn 2.889616 -99.958242 0.000000
vn 2.889616 -99.958242 0.000000
vn 6.905883 -99.761259 0.000000
vn 6.905883 -99.761259 0.000000
vn 10.910983 -99.402970 0.000000
vn 10.910983 -99.402970 0.000000
vn 14.898440 -98.883955 0.000000
vn 14.898440 -98.883955 0.000000
vn 18.861809 -98.205052 0.000000
vn 18.861809 -98.205052 0.000000
vn 22.794679 -97.367359 0.000000
vn 22.794679 -97.367359 0.000000
vn 26.690692 -96.372231 0.000000
vn 26.690692 -96.372231 0.000000
vn 30.543548 -95.221277 0.000000
vn 30.543548 -95.221277 0.000000
vn 34.347018 -93.916358 0.000000
vn 34.347018 -93.916358 0.000000
vn 38.094952 -92.459584 0.000000
vn 38.094952 -92.459584 0.000000
vn 75.163923 -65.957446 0.000000
vn 75.163923 -65.957446 0.000000
vn 66.615216 -74.581586 0.000000
vn 66.615216 -74.581586 0.000000
vn 57.084227 -82.105974 0.000000
vn 57.084227 -82.105974 0.000000
vn 46.711496 -88.419659 0.000000
vn 46.711496 -88.419659 0.000000
vn 35.649975 -93.429542 0.000000
vn 35.649975 -93.429542 0.000000
vn 24.062773 -97.061748 0.000000
vn 24.062773 -97.061748 0.000000
vn 12.120750 -99.262719 0.000000
vn 12.120750 -99.262719 0.000000
vn 16.593712 -98.613633 0.000000
vn 16.593712 -98.613633 0.000000
vn 23.907505 -97.100109 0.000000
vn 23.907505 -97.100109 0.000000
vn 31.087936 -95.044938 0.000000
vn 31.087936 -95.044938 0.000000
vn -75.163923 65.957446 0.000000
vn -75.163923 65.957446 0.000000
vn -66.615216 74.581586 0.000000
vn -66.615216 74.581586 0.000000
vn -57.084227 82.105974 0.000000
vn -57.084227 82.105974 0.000000
vn -46.711496 88.419659 0.000000
vn -46.711496 88.419659 0.000000
vn -35.649975 93.429542 0.000000
vn -35.649975 93.429542 0.000000
vn -24.062773 97.061748 0.000000
vn -24.062773 97.061748 0.000000
vn -12.120750 99.262719 0.000000
vn -12.120750 99.262719 0.000000
vn -16.593712 98.613633 0.000000
vn -16.593712 98.613633 0.000000
vn -23.907505 97.100109 0.000000
vn -23.907505 97.100109 0.000000
vn -31.087936 95.044938 0.000000
vn -31.087936 95.044938 0.000000
vn 0.000000 0.000000 -100.000000
vn 0.000000 0.000000 -100.000000
vn 0.000000 0.000000 -100.000000
vn 0.000000 0.000000 -100.000000
vn 0.000000 0.000000 -100.000000
vn 0.000000 0.000000 -100.000000
vn 0.000000 0.000000 -100.000000
vn 0.000000 0.000000 -100.000000
vn 0.000000 0.000000 -100.000000
vn 0.000000 0.000000 -100.000000
vn 0.000000 0.000000 -100.000000
vn 0.000000 0.000000 -100.000000
vn 0.000000 0.000000 -100.000000
vn 0.000000 0.000000 -100.000000
vn 0.000000 0.000000 -100.000000
vn 0.000000 0.000000 -100.000000
vn 0.000000 0.000000 -100.000000
vn 0.000000 0.000000 -100.000000
vn 0.000000 0.000000 -100.000000
vn 0.000000 0.000000 -100.000000
vn 0.000000 0.000000 -100.000000
vn 0.000000 0.000000 -100.000000
vn 0.000000 0.000000 -100.000000
vn 0.000000 0.000000 -100.000000
vn 0.000000 0.000000 -100.000000
vn 0.000000 0.000000 -100.000000
vn 0.000000 0.000000 -100.000000
vn 0.000000 0.000000 -100.000000
vn 0.000000 0.000000 -100.000000
vn 0.000000 0.000000 -100.000000
vn 0.000000 0.000000 -100.000000
vn 0.000000 0.000000 -100.000000
vn 0.000000 0.000000 -100.000000
vn 0.000000 0.000000 -100.000000
vn 0.000000 0.000000 -100.000000
vn 0.000000 0.000000 -100.000000
vn 0.000000 0.000000 -100.000000
vn 0.000000 0.000000 -100.000000
vn 0.000000 0.000000 -100.000000
vn 0.000000 0.000000 -100.000000
vn 0.000000 0.000000 -100.000000
vn 0.000000 0.000000 -100.000000
vn 0.000000 0.000000 -100.000000
vn 0.000000 0.000000 -100.000000
vn 0.000000 0.000000 -100.000000
vn 0.000000 0.000000 -100.000000
vn 0.000000 0.000000 -100.000000
vn 0.000000 0.000000 -100.000000
vn 0.000000 0.000000 -100.000000
vn 0.000000 0.000000 -100.000000
vn 0.000000 0.000000 -100.000000
vn 0.000000 0.000000 -100.000000
vn 0.000000 0.000000 -100.000000
vn 0.000000 0.000000 -100.000000
vn 0.000000 0.000000 100.000000
vn 0.000000 0.000000 100.000000
vn 0.000000 0.000000 100.000000
vn 0.000000 0.000000 100.000000
vn 0.000000 0.000000 100.000000
vn 0.000000 0.000000 100.000000
vn 0.000000 0.000000 100.000000
vn 0.000000 0.000000 100.000000
vn 0.000000 0.000000 100.000000
vn 0.000000 0.000000 100.000000
vn 0.000000 0.000000 100.000000
vn 0.000000 0.000000 100.000000
vn 0.000000 0.000000 100.000000
vn 0.000000 0.000000 100.000000
vn 0.000000 0.000000 100.000000
vn 0.000000 0.000000 100.000000
vn 0.000000 0.000000 100.000000
vn 0.000000 0.000000 100.000000
vn 0.000000 0.000000 100.000000
vn 0.000000 0.000000 100.000000
vn 0.000000 0.000000 100.000000
vn 0.000000 0.000000 100.000000
vn 0.000000 0.000000 100.000000
vn 0.000000 0.000000 100.000000
vn 0.000000 0.000000 100.000000
vn 0.000000 0.000000 100.000000
vn 0.000000 0.000000 100.000000
vn 0.000000 0.000000 100.000000
vn 0.000000 0.000000 100.000000
vn 0.000000 0.000000 100.000000
vn 0.000000 0.000000 100.000000
vn 0.000000 0.000000 100.000000
vn 0.000000 0.000000 100.000000
vn 0.000000 0.000000 100.000000
vn 0.000000 0.000000 100.000000
vn 0.000000 0.000000 100.000000
vn 0.000000 0.000000 100.000000
vn 0.000000 0.000000 100.000000
vn 0.000000 0.000000 100.000000
vn 0.000000 0.000000 100.000000
vn 0.000000 0.000000 100.000000
vn 0.000000 0.000000 100.000000
vn 0.000000 0.000000 100.000000
vn 0.000000 0.000000 100.000000
vn 0.000000 0.000000 100.000000
vn 0.000000 0.000000 100.000000
vn 0.000000 0.000000 100.000000
vn 0.000000 0.000000 100.000000
vn 0.000000 0.000000 100.000000
vn 0.000000 0.000000 100.000000
vn 0.000000 0.000000 100.000000
vn 0.000000 0.000000 100.000000
vn 0.000000 0.000000 100.000000
vn 0.000000 0.000000 100.000000
vn 0.000000 0.000000 -100.000000
vn 0.000000 0.000000 -100.000000
vn 0.000000 0.000000 -100.000000
vn 0.000000 0.000000 -100.000000
vn 0.000000 0.000000 -100.000000
vn 0.000000 0.000000 -100.000000
vn 0.000000 0.000000 -100.000000
vn 0.000000 0.000000 -100.000000
vn 0.000000 0.000000 -100.000000
vn 0.000000 0.000000 -100.000000
vn 0.000000 0.000000 -100.000000
vn 0.000000 0.000000 -100.000000
vn 0.000000 0.000000 -100.000000
vn 0.000000 0.000000 -100.000000
vn 0.000000 0.000000 -100.000000
vn 0.000000 0.000000 -100.000000
vn 0.000000 0.000000 -100.000000
vn 0.000000 0.000000 -100.000000
vn 0.000000 0.000000 -100.000000
vn 0.000000 0.000000 -100.000000
vn 0.000000 0.000000 -100.000000
vn 0.000000 0.000000 -100.000000
vn 0.000000 0.000000 -100.000000
vn 0.000000 0.000000 -100.000000
vn 0.000000 0.000000 -100.000000
vn 0.000000 0.000000 -100.000000
vn 0.000000 0.000000 -100.000000
vn 0.000000 0.000000 -100.000000
vn 0.000000 0.000000 -100.000000
vn 0.000000 0.000000 -100.000000
vn 0.000000 0.000000 -100.000000
vn 0.000000 0.000000 -100.000000
vn 0.000000 0.000000 -100.000000
vn 0.000000 0.000000 -100.000000
vn 0.000000 0.000000 -100.000000
vn 0.000000 0.000000 -100.000000
vn 0.000000 0.000000 -100.000000
vn 0.000000 0.000000 -100.000000
vn 0.000000 0.000000 -100.000000
vn 0.000000 0.000000 -100.000000
vn 0.000000 0.000000 -100.000000
vn 0.000000 0.000000 -100.000000
vn 0.000000 0.000000 -100.000000
vn 0.000000 0.000000 -100.000000
vn 0.000000 0.000000 -100.000000
vn 0.000000 0.000000 -100.000000
vn 0.000000 0.000000 -100.000000
vn 0.000000 0.000000 -100.000000
vn 0.000000 0.000000 -100.000000
vn 0.000000 0.000000 -100.000000
vn 0.000000 0.000000 -100.000000
vn 0.000000 0.000000 -100.000000
vn 0.000000 0.000000 -100.000000
vn 0.000000 0.000000 -100.000000
vn 0.000000 0.000000 -100.000000
vn 0.000000 0.000000 -100.000000
vn 0.000000 0.000000 -100.000000
vn 0.000000 0.000000 -100.000000
vn 0.000000 0.000000 -100.000000
vn 96.592583 -25.881905 0.000000
vn 96.592583 -25.881905 0.000000
vn 100.000000 -0.000000 0.000000
vn 100.000000 -0.000000 0.000000
vn 96.592583 25.881905 0.000000
vn 96.592583 25.881905 0.000000
vn 86.602540 50.000000 0.000000
vn 86.602540 50.000000 0.000000
vn 70.710678 70.710678 0.000000
vn 70.710678 70.710678 0.000000
vn 50.000000 86.602540 0.000000
vn 50.000000 86.602540 0.000000
vn 25.881905 96.592583 0.000000
vn 25.881905 96.592583 0.000000
vn -0.000000 100.000000 0.000000
vn -0.000000 100.000000 0.000000
vn -25.881905 96.592583 0.000000
vn -25.881905 96.592583 0.000000
vn -50.000000 86.602540 0.000000
vn -50.000000 86.602540 0.000000
vn -70.710678 70.710678 0.000000
vn -70.710678 70.710678 0.000000
vn -86.602540 50.000000 0.000000
vn -86.602540 50.000000 0.000000
vn -96.592583 25.881905 0.000000
vn -96.592583 25.881905 0.000000
vn -100.000000 0.000000 0.000000
vn -100.000000 0.000000 0.000000
vn -96.592583 -25.881905 0.000000
vn -96.592583 -25.881905 0.000000
vn -86.602540 -50.000000 0.000000
vn -86.602540 -50.000000 0.000000
vn -70.710678 -70.710678 0.000000
vn -70.710678 -70.710678 0.000000
vn -50.000000 -86.602540 0.000000
vn -50.000000 -86.602540 0.000000
vn -25.881905 -96.592583 0.000000
vn -25.881905 -96.592583 0.000000
vn -0.000000 -100.000000 0.000000
vn -0.000000 -100.000000 0.000000
vn 25.881905 -96.592583 0.000000
vn 25.881905 -96.592583 0.000000
vn 50.000000 -86.602540 0.000000
vn 50.000000 -86.602540 0.000000
vn 70.710678 -70.710678 0.000000
vn 70.710678 -70.710678 0.000000
vn 86.602540 -50.000000 0.000000
vn 86.602540 -50.000000 0.000000
vn 85.528361 -51.816016 0.000000
vn 80.901699 -58.778525 0.000000
vn 69.106265 -72.279486 0.000000
vn 69.106265 -72.279486 0.000000
vn 55.089698 -83.457325 0.000000
vn 55.089698 -83.457325 0.000000
vn 39.302503 -91.952777 0.000000
vn 39.302503 -91.952777 0.000000
vn 22.252093 -97.492791 0.000000
vn 22.252093 -97.492791 0.000000
vn 4.486483 -99.899307 0.000000
vn -0.884572 -99.996088 0.000000
vn -13.423327 -99.094976 0.000000
vn -18.335665 -98.304646 0.000000
vn -30.901699 -95.105652 0.000000
vn -35.223117 -93.591303 0.000000
vn -47.386866 -88.059553 0.000000
vn -51.027804 -86.000949 0.000000
vn -62.348980 -78.183148 0.000000
vn -65.263889 -75.766911 0.000000
vn -75.307147 -65.793873 0.000000
vn -77.493751 -63.203787 0.000000
vn -85.844879 -51.289928 0.000000
vn -87.341442 -48.697767 0.000000
vn -93.623487 -35.137482 0.000000
vn -94.504243 -32.694771 0.000000
vn -98.392959 -17.855689 0.000000
vn -98.761969 -15.686732 0.000000
vn -100.000000 -0.000000 0.000000
vn -99.983735 1.803520 -0.000000
vn -98.392959 17.855689 -0.000000
vn -98.131986 19.238332 -0.000000
vn -93.623487 35.137482 -0.000000
vn -93.263643 36.081753 -0.000000
vn -85.844879 51.289928 -0.000000
vn -85.528361 51.816016 -0.000000
vn -75.307147 65.793873 -0.000000
vn -62.348980 78.183148 -0.000000
vn -62.348980 78.183148 -0.000000
vn -47.386866 88.059553 -0.000000
vn -47.386866 88.059553 -0.000000
vn -30.901699 95.105652 -0.000000
vn -30.901699 95.105652 -0.000000
vn -13.423327 99.094976 -0.000000
vn 0.884572 99.996088 0.000000
vn 4.486483 99.899307 0.000000
vn 18.335665 98.304646 0.000000
vn 22.252093 97.492791 0.000000
vn 35.223117 93.591303 0.000000
vn 39.302503 91.952777 0.000000
vn 51.027804 86.000949 0.000000
vn 55.089698 83.457325 0.000000
vn 65.263889 75.766911 0.000000
vn 69.106265 72.279486 0.000000
vn 77.493751 63.203787 0.000000
vn 80.901699 58.778525 0.000000
vn 87.341442 48.697767 0.000000
vn 90.096887 43.388374 0.000000
vn 94.504243 32.694771 0.000000
vn 96.396286 26.603685 0.000000
vn 98.761969 15.686732 0.000000
vn 99.597429 8.963931 0.000000
vn 99.983735 -1.803520 0.000000
vn 99.597429 -8.963931 0.000000
vn 98.131986 -19.238332 0.000000
vn 96.396286 -26.603685 0.000000
vn 93.263643 -36.081753 0.000000
vn 90.096887 -43.388374 0.000000
vn -13.423327 99.094976 -0.000000
vn 0.884572 99.996088 0.000000
vn 4.486483 99.899307 0.000000
vn 18.335665 98.304646 0.000000
vn 22.252093 97.492791 0.000000
vn 35.223117 93.591303 0.000000
vn 39.302503 91.952777 0.000000
vn 51.027804 86.000949 0.000000
vn 55.089698 83.457325 0.000000
vn 65.263889 75.766911 0.000000
vn 69.106265 72.279486 0.000000
vn 77.493751 63.203787 0.000000
vn 80.901699 58.778525 0.000000
vn 87.341442 48.697767 0.000000
vn 90.096887 43.388374 0.000000
vn 94.504243 32.694771 0.000000
vn 96.396286 26.603685 0.000000
vn 98.761969 15.686732 0.000000
vn 99.597429 8.963931 0.000000
vn 99.983735 -1.803520 0.000000
vn 99.597429 -8.963931 0.000000
vn 98.131986 -19.238332 0.000000
vn 96.396286 -26.603685 0.000000
vn 93.263643 -36.081753 0.000000
vn 90.096887 -43.388374 0.000000
vn 85.528361 -51.816016 0.000000
vn 80.901699 -58.778525 0.000000
vn 4.486483 -99.899307 0.000000
vn -0.884572 -99.996088 0.000000
vn -13.423327 -99.094976 0.000000
vn -18.335665 -98.304646 0.000000
vn -30.901699 -95.105652 0.000000
vn -35.223117 -93.591303 0.000000
vn -47.386866 -88.059553 0.000000
vn -51.027804 -86.000949 0.000000
vn -62.348980 -78.183148 0.000000
vn -65.263889 -75.766911 0.000000
vn -75.307147 -65.793873 0.000000
vn -77.493751 -63.203787 0.000000
vn -85.844879 -51.289928 0.000000
vn -87.341442 -48.697767 0.000000
vn -93.623487 -35.137482 0.000000
vn -94.504243 -32.694771 0.000000
vn -98.392959 -17.855689 0.000000
vn -98.761969 -15.686732 0.000000
vn -100.000000 -0.000000 0.000000
vn -99.983735 1.803520 -0.000000
vn -98.392959 17.855689 -0.000000
vn -98.131986 19.238332 -0.000000
vn -93.623487 35.137482 -0.000000
vn -93.263643 36.081753 -0.000000
vn -85.844879 51.289928 -0.000000
vn -85.528361 51.816016 -0.000000
vn -75.307147 65.793873 -0.000000
vn 0.000000 0.000000 100.000000
vn 0.000000 0.000000 100.000000
vn 0.000000 0.000000 100.000000
vn 0.000000 0.000000 100.000000
vn 0.000000 0.000000 100.000000
vn 0.000000 0.000000 100.000000
vn 0.000000 0.000000 100.000000
vn 0.000000 0.000000 100.000000
vn 0.000000 0.000000 100.000000
vn 0.000000 0.000000 100.000000
vn 0.000000 0.000000 100.000000
vn 0.000000 0.000000 100.000000
vn 0.000000 0.000000 100.000000
vn 0.000000 0.000000 100.000000
vn 0.000000 0.000000 100.000000
vn 0.000000 0.000000 100.000000
vn 0.000000 0.000000 100.000000
vn 0.000000 0.000000 100.000000
vn 0.000000 0.000000 100.000000
vn 0.000000 0.000000 100.000000
vn 0.000000 0.000000 100.000000
vn 0.000000 0.000000 100.000000
vn 0.000000 0.000000 100.000000
vn 0.000000 0.000000 100.000000
vn 0.000000 0.000000 100.000000
vn 0.000000 0.000000 100.000000
vn 0.000000 0.000000 100.000000
vn 0.000000 0.000000 100.000000
vn 0.000000 0.000000 100.000000
vn 0.000000 0.000000 100.000000
vn 0.000000 0.000000 100.000000
vn 0.000000 0.000000 100.000000
vn 0.000000 0.000000 100.000000
vn 0.000000 0.000000 100.000000
vn 0.000000 0.000000 100.000000
vn 0.000000 0.000000 100.000000
vn 0.000000 0.000000 100.000000
vn 0.000000 0.000000 100.000000
vn 0.000000 0.000000 100.000000
vn 0.000000 0.000000 100.000000
vn 0.000000 0.000000 100.000000
vn 0.000000 0.000000 100.000000
vn 0.000000 0.000000 100.000000
vn 0.000000 0.000000 100.000000
vn 0.000000 0.000000 100.000000
vn 0.000000 0.000000 100.000000
vn 0.000000 0.000000 100.000000
vn 0.000000 0.000000 100.000000
vn 0.000000 0.000000 100.000000
vn 0.000000 0.000000 100.000000
vn 0.000000 0.000000 100.000000
vn 0.000000 0.000000 100.000000
vn 0.000000 0.000000 100.000000
vn 0.000000 0.000000 100.000000
vn 0.000000 0.000000 100.000000
vn 0.000000 0.000000 100.000000
vn 0.000000 0.000000 100.000000
vn 0.000000 0.000000 100.000000
vn 0.000000 0.000000 100.000000
usemtl Steel_-_Satin
f 14/1/1 1/2/2 13/3/3
f 13/3/3 1/2/2 2/4/4
f 13/3/3 2/4/4 3/5/5
f 13/3/3 3/5/5 12/6/6
f 12/6/6 3/5/5 4/7/7
f 12/6/6 4/7/7 11/8/8
f 11/8/8 4/7/7 5/9/9
f 11/8/8 5/9/9 10/10/10
f 10/10/10 5/9/9 6/11/11
f 10/10/10 6/11/11 9/12/12
f 9/12/12 6/11/11 8/13/13
f 8/13/13 6/11/11 7/14/14
f 1/15/2 14/16/1 46/17/15
f 46/17/15 14/16/1 15/18/16
f 46/17/15 15/18/16 45/19/17
f 45/19/17 15/18/16 16/20/18
f 45/19/17 16/20/18 44/21/19
f 44/21/19 16/20/18 17/22/20
f 44/21/19 17/22/20 43/23/21
f 43/23/21 17/22/20 18/24/22
f 43/23/21 18/24/22 42/25/23
f 42/25/23 18/24/22 19/26/24
f 42/25/23 19/26/24 41/27/25
f 41/27/25 19/26/24 20/28/26
f 41/27/25 20/28/26 40/29/27
f 40/29/27 20/28/26 21/30/28
f 40/29/27 21/30/28 39/31/29
f 39/31/29 21/30/28 22/32/30
f 39/31/29 22/32/30 38/33/31
f 38/33/31 22/32/30 23/34/32
f 38/33/31 23/34/32 37/35/33
f 37/35/33 23/34/32 24/36/34
f 37/35/33 24/36/34 36/37/35
f 36/37/35 24/36/34 25/38/36
f 36/37/35 25/38/36 35/39/37
f 35/39/37 25/38/36 26/40/38
f 35/39/37 26/40/38 34/41/39
f 34/41/39 26/40/38 27/42/40
f 34/41/39 27/42/40 33/43/41
f 33/43/41 27/42/40 28/44/42
f 33/43/41 28/44/42 32/45/43
f 32/45/43 28/44/42 29/46/44
f 32/45/43 29/46/44 31/47/45
f 31/47/45 29/46/44 30/48/46
f 13/49/47 12/50/48 14/51/49
f 14/51/49 12/50/48 11/52/50
f 14/51/49 11/52/50 15/53/51
f 15/53/51 11/52/50 10/54/52
f 15/53/51 10/54/52 9/55/53
f 9/55/53 8/56/54 15/53/51
f 15/53/51 8/56/54 16/57/55
f 16/57/55 8/56/54 17/58/56
f 17/58/56 8/56/54 23/59/57
f 17/58/56 23/59/57 18/60/58
f 18/60/58 23/59/57 22/61/59
f 18/60/58 22/61/59 19/62/60
f 19/62/60 22/61/59 21/63/61
f 19/62/60 21/63/61 20/64/62
f 47/65/63 26/66/64 8/56/54
f 8/56/54 26/66/64 25/67/65
f 8/56/54 25/67/65 24/68/66
f 48/69/67 53/70/68 47/65/63
f 47/65/63 53/70/68 54/71/69
f 47/65/63 54/71/69 27/72/70
f 27/72/70 54/71/69 28/73/71
f 28/73/71 54/71/69 69/74/72
f 28/73/71 69/74/72 70/75/73
f 48/69/67 49/76/74 53/70/68
f 53/70/68 49/76/74 50/77/75
f 53/70/68 50/77/75 51/78/76
f 51/78/76 52/79/77 53/70/68
f 55/80/78 66/81/79 54/71/69
f 54/71/69 66/81/79 67/82/80
f 54/71/69 67/82/80 68/83/81
f 55/80/78 56/84/82 66/81/79
f 66/81/79 56/84/82 65/85/83
f 65/85/83 56/84/82 57/86/84
f 65/85/83 57/86/84 64/87/85
f 64/87/85 57/86/84 58/88/86
f 64/87/85 58/88/86 59/89/87
f 64/87/85 59/89/87 63/90/88
f 63/90/88 59/89/87 60/91/89
f 63/90/88 60/91/89 62/92/90
f 62/92/90 60/91/89 61/93/91
f 68/83/81 69/74/72 54/71/69
f 28/73/71 70/75/73 29/94/92
f 29/94/92 70/75/73 71/95/93
f 29/94/92 71/95/93 72/96/94
f 29/94/92 72/96/94 30/97/95
f 30/97/95 72/96/94 73/98/96
f 30/97/95 73/98/96 77/99/97
f 77/99/97 73/98/96 74/100/98
f 77/99/97 74/100/98 76/101/99
f 76/101/99 74/100/98 75/102/100
f 27/72/70 26/66/64 47/65/63
f 24/68/66 23/59/57 8/56/54
f 47/103/101 78/104/102 48/105/103
f 48/105/103 78/104/102 79/106/104
f 48/105/103 79/106/104 49/107/105
f 49/107/105 79/106/104 80/108/106
f 49/107/105 80/108/106 50/109/107
f 50/109/107 80/108/106 81/110/108
f 50/109/107 81/110/108 51/111/109
f 51/111/109 81/110/108 82/112/110
f 51/111/109 82/112/110 52/113/111
f 52/113/111 82/112/110 83/114/112
f 52/113/111 83/114/112 53/115/113
f 53/115/113 83/114/112 84/116/114
f 84/117/114 85/118/115 53/119/113
f 53/119/113 85/118/115 54/120/116
f 99/121/117 86/122/118 98/123/119
f 98/123/119 86/122/118 87/124/120
f 98/123/119 87/124/120 97/125/121
f 97/125/121 87/124/120 88/126/122
f 97/125/121 88/126/122 96/127/123
f 96/127/123 88/126/122 89/128/124
f 96/127/123 89/128/124 95/129/125
f 95/129/125 89/128/124 90/130/126
f 95/129/125 90/130/126 94/131/127
f 94/131/127 90/130/126 91/132/128
f 94/131/127 91/132/128 93/133/129
f 93/133/129 91/132/128 92/134/130
f 92/135/130 100/136/131 93/137/129
f 93/137/129 100/136/131 101/138/132
f 91/139/133 90/140/134 92/141/135
f 92/141/135 90/140/134 89/142/136
f 92/141/135 89/142/136 88/143/137
f 88/143/137 87/144/138 92/141/135
f 92/141/135 87/144/138 86/145/139
f 92/141/135 86/145/139 100/146/140
f 100/146/140 86/145/139 121/147/141
f 100/146/140 121/147/141 122/148/142
f 121/147/141 86/145/139 120/149/143
f 120/149/143 86/145/139 102/150/144
f 120/149/143 102/150/144 119/151/145
f 119/151/145 102/150/144 118/152/146
f 118/152/146 102/150/144 117/153/147
f 117/153/147 102/150/144 111/154/148
f 117/153/147 111/154/148 112/155/149
f 103/156/150 109/157/151 102/150/144
f 102/150/144 109/157/151 110/158/152
f 102/150/144 110/158/152 111/154/148
f 103/156/150 104/159/153 109/157/151
f 109/157/151 104/159/153 105/160/154
f 109/157/151 105/160/154 108/161/155
f 108/161/155 105/160/154 106/162/156
f 108/161/155 106/162/156 107/163/157
f 117/153/147 112/155/149 116/164/158
f 116/164/158 112/155/149 113/165/159
f 116/164/158 113/165/159 115/166/160
f 115/166/160 113/165/159 114/167/161
f 123/168/162 132/169/163 122/148/142
f 122/148/142 132/169/163 133/170/164
f 122/148/142 133/170/164 100/146/140
f 100/146/140 133/170/164 134/171/165
f 100/146/140 134/171/165 135/172/166
f 124/173/167 130/174/168 123/168/162
f 123/168/162 130/174/168 131/175/169
f 123/168/162 131/175/169 132/169/163
f 130/174/168 124/173/167 129/176/170
f 129/176/170 124/173/167 125/177/171
f 129/176/170 125/177/171 128/178/172
f 128/178/172 125/177/171 126/179/173
f 128/178/172 126/179/173 127/180/174
f 135/172/166 136/181/175 100/146/140
f 100/146/140 136/181/175 147/182/176
f 147/182/176 136/181/175 146/183/177
f 146/183/177 136/181/175 137/184/178
f 146/183/177 137/184/178 145/185/179
f 145/185/179 137/184/178 138/186/180
f 145/185/179 138/186/180 144/187/181
f 144/187/181 138/186/180 143/188/182
f 143/188/182 138/186/180 139/189/183
f 143/188/182 139/189/183 142/190/184
f 142/190/184 139/189/183 140/191/185
f 142/190/184 140/191/185 141/192/186
f 154/193/187 108/194/188 153/195/189
f 153/195/189 108/194/188 107/196/190
f 153/195/189 107/196/190 106/197/191
f 153/195/189 106/197/191 152/198/192
f 152/198/192 106/197/191 105/199/193
f 152/198/192 105/199/193 151/200/194
f 151/200/194 105/199/193 104/201/195
f 151/200/194 104/201/195 150/202/196
f 150/202/196 104/201/195 103/203/197
f 150/202/196 103/203/197 149/204/198
f 149/204/198 103/203/197 148/205/199
f 148/205/199 103/203/197 102/206/200
f 108/207/188 154/208/187 109/209/201
f 109/209/201 154/208/187 155/210/202
f 109/209/201 155/210/202 110/211/203
f 110/211/203 155/210/202 156/212/204
f 110/211/203 156/212/204 111/213/205
f 111/213/205 156/212/204 157/214/206
f 111/213/205 157/214/206 112/215/207
f 112/215/207 157/214/206 158/216/208
f 112/215/207 158/216/208 113/217/209
f 113/217/209 158/216/208 159/218/210
f 113/217/209 159/218/210 114/219/211
f 114/219/211 159/218/210 160/220/212
f 114/219/211 160/220/212 115/221/213
f 115/221/213 160/220/212 161/222/214
f 115/221/213 161/222/214 116/223/215
f 116/223/215 161/222/214 162/224/216
f 116/223/215 162/224/216 117/225/217
f 117/225/217 162/224/216 163/226/218
f 117/225/217 163/226/218 118/227/219
f 118/227/219 163/226/218 164/228/220
f 118/227/219 164/228/220 119/229/221
f 119/229/221 164/228/220 165/230/222
f 119/229/221 165/230/222 120/231/223
f 120/231/223 165/230/222 166/232/224
f 120/231/223 166/232/224 121/233/225
f 121/233/225 166/232/224 167/234/226
f 121/233/225 167/234/226 122/235/227
f 122/235/227 167/234/226 168/236/228
f 122/235/227 168/236/228 123/237/229
f 123/237/229 168/236/228 169/238/230
f 123/237/229 169/238/230 124/239/231
f 124/239/231 169/238/230 170/240/232
f 177/241/233 61/242/234 176/243/235
f 176/243/235 61/242/234 60/244/236
f 176/243/235 60/244/236 175/245/237
f 175/245/237 60/244/236 59/246/238
f 175/245/237 59/246/238 174/247/239
f 174/247/239 59/246/238 58/248/240
f 174/247/239 58/248/240 173/249/241
f 173/249/241 58/248/240 57/250/242
f 173/249/241 57/250/242 172/251/243
f 172/251/243 57/250/242 56/252/244
f 172/251/243 56/252/244 171/253/245
f 171/253/245 56/252/244 55/254/246
f 171/253/245 55/254/246 85/255/115
f 85/255/115 55/254/246 54/256/116
f 180/257/247 127/258/248 179/259/249
f 179/259/249 127/258/248 126/260/250
f 179/259/249 126/260/250 125/261/251
f 124/262/231 170/263/232 125/261/251
f 125/261/251 170/263/232 178/264/252
f 125/261/251 178/264/252 179/259/249
f 141/265/253 181/266/254 142/267/255
f 142/267/255 181/266/254 182/268/256
f 142/267/255 182/268/256 143/269/257
f 143/269/257 182/268/256 183/270/258
f 143/269/257 183/270/258 144/271/259
f 144/271/259 183/270/258 184/272/260
f 144/271/259 184/272/260 145/273/261
f 145/273/261 184/272/260 185/274/262
f 145/273/261 185/274/262 146/275/263
f 146/275/263 185/274/262 186/276/264
f 146/275/263 186/276/264 147/277/265
f 147/277/265 186/276/264 187/278/266
f 147/277/265 187/278/266 100/279/131
f 100/279/131 187/278/266 101/280/132
f 75/281/267 188/282/268 76/283/269
f 76/283/269 188/282/268 189/284/270
f 76/283/269 189/284/270 190/285/271
f 31/286/45 30/287/46 190/285/271
f 190/285/271 30/287/46 77/288/272
f 190/285/271 77/288/272 76/283/269
f 98/289/273 93/290/274 99/291/275
f 99/291/275 93/290/274 101/292/276
f 99/291/275 101/292/276 167/293/277
f 167/293/277 101/292/276 168/294/278
f 168/294/278 101/292/276 198/295/279
f 168/294/278 198/295/279 199/296/280
f 98/289/273 97/297/281 93/290/274
f 93/290/274 97/297/281 96/298/282
f 93/290/274 96/298/282 95/299/283
f 95/299/283 94/300/284 93/290/274
f 187/301/285 195/302/286 101/292/276
f 101/292/276 195/302/286 196/303/287
f 101/292/276 196/303/287 197/304/288
f 187/301/285 186/305/289 195/302/286
f 195/302/286 186/305/289 194/306/290
f 194/306/290 186/305/289 185/307/291
f 194/306/290 185/307/291 193/308/292
f 193/308/292 185/307/291 184/309/293
f 193/308/292 184/309/293 183/310/294
f 193/308/292 183/310/294 192/311/295
f 192/311/295 183/310/294 182/312/296
f 192/311/295 182/312/296 191/313/297
f 191/313/297 182/312/296 181/314/298
f 197/304/288 198/295/279 101/292/276
f 168/294/278 199/296/280 169/315/299
f 169/315/299 199/296/280 200/316/300
f 169/315/299 200/316/300 201/317/301
f 169/315/299 201/317/301 170/318/302
f 170/318/302 201/317/301 202/319/303
f 170/318/302 202/319/303 178/320/304
f 178/320/304 202/319/303 203/321/305
f 178/320/304 203/321/305 179/322/306
f 179/322/306 203/321/305 180/323/307
f 167/293/277 166/324/308 99/291/275
f 99/291/275 166/324/308 148/325/309
f 148/325/309 166/324/308 165/326/310
f 148/325/309 165/326/310 164/327/311
f 164/327/311 163/328/312 148/325/309
f 148/325/309 163/328/312 157/329/313
f 148/325/309 157/329/313 156/330/314
f 157/329/313 163/328/312 158/331/315
f 158/331/315 163/328/312 162/332/316
f 158/331/315 162/332/316 159/333/317
f 159/333/317 162/332/316 161/334/318
f 159/333/317 161/334/318 160/335/319
f 156/330/314 155/336/320 148/325/309
f 148/325/309 155/336/320 149/337/321
f 149/337/321 155/336/320 150/338/322
f 150/338/322 155/336/320 151/339/323
f 151/339/323 155/336/320 154/340/324
f 151/339/323 154/340/324 152/341/325
f 152/341/325 154/340/324 153/342/326
f 99/343/117 148/344/199 86/345/118
f 86/345/118 148/344/199 102/346/200
f 7/347/14 78/348/102 8/349/13
f 8/349/13 78/348/102 47/350/101
f 6/351/327 46/352/328 7/353/329
f 7/353/329 46/352/328 45/354/330
f 7/353/329 45/354/330 44/355/331
f 6/351/327 5/356/332 46/352/328
f 46/352/328 5/356/332 4/357/333
f 46/352/328 4/357/333 1/358/334
f 1/358/334 4/357/333 3/359/335
f 1/358/334 3/359/335 2/360/336
f 7/353/329 44/355/331 38/361/337
f 38/361/337 44/355/331 43/362/338
f 38/361/337 43/362/338 39/363/339
f 39/363/339 43/362/338 42/364/340
f 39/363/339 42/364/340 40/365/341
f 40/365/341 42/364/340 41/366/342
f 38/361/337 37/367/343 7/353/329
f 7/353/329 37/367/343 36/368/344
f 7/353/329 36/368/344 35/369/345
f 7/353/329 35/369/345 78/370/346
f 78/370/346 35/369/345 34/371/347
f 78/370/346 34/371/347 85/372/348
f 85/372/348 34/371/347 33/373/349
f 85/372/348 33/373/349 209/374/350
f 209/374/350 33/373/349 208/375/351
f 208/375/351 33/373/349 32/376/352
f 208/375/351 32/376/352 207/377/353
f 207/377/353 32/376/352 206/378/354
f 206/378/354 32/376/352 31/379/355
f 206/378/354 31/379/355 205/380/356
f 205/380/356 31/379/355 190/381/357
f 205/380/356 190/381/357 204/382/358
f 204/382/358 190/381/357 189/383/359
f 204/382/358 189/383/359 188/384/360
f 209/374/350 210/385/361 85/372/348
f 85/372/348 210/385/361 211/386/362
f 85/372/348 211/386/362 212/387/363
f 213/388/364 172/389/365 212/387/363
f 212/387/363 172/389/365 171/390/366
f 212/387/363 171/390/366 85/372/348
f 172/389/365 213/388/364 173/391/367
f 173/391/367 213/388/364 214/392/368
f 173/391/367 214/392/368 174/393/369
f 174/393/369 214/392/368 175/394/370
f 175/394/370 214/392/368 215/395/371
f 175/394/370 215/395/371 176/396/372
f 176/396/372 215/395/371 216/397/373
f 176/396/372 216/397/373 177/398/374
f 85/372/348 84/399/375 78/370/346
f 78/370/346 84/399/375 79/400/376
f 79/400/376 84/399/375 80/401/377
f 80/401/377 84/399/375 81/402/378
f 81/402/378 84/399/375 82/403/379
f 82/403/379 84/399/375 83/404/380
f 218/405/381 275/406/382 217/407/383
f 217/407/383 275/406/382 241/408/384
f 217/407/383 241/408/384 242/409/385
f 275/406/382 218/405/381 274/410/386
f 274/410/386 218/405/381 219/411/387
f 274/410/386 219/411/387 273/412/388
f 273/412/388 219/411/387 272/413/389
f 272/413/389 219/411/387 220/414/390
f 272/413/389 220/414/390 271/415/391
f 271/415/391 220/414/390 221/416/392
f 271/415/391 221/416/392 270/417/393
f 270/417/393 221/416/392 269/418/394
f 269/418/394 221/416/392 222/419/395
f 269/418/394 222/419/395 268/420/396
f 268/420/396 222/419/395 223/421/397
f 268/420/396 223/421/397 267/422/398
f 267/422/398 223/421/397 224/423/399
f 267/422/398 224/423/399 266/424/400
f 266/424/400 224/423/399 265/425/401
f 265/425/401 224/423/399 225/426/402
f 265/425/401 225/426/402 264/427/403
f 264/427/403 225/426/402 226/428/404
f 264/427/403 226/428/404 263/429/405
f 263/429/405 226/428/404 262/430/406
f 262/430/406 226/428/404 227/431/407
f 262/430/406 227/431/407 261/432/408
f 261/432/408 227/431/407 228/433/409
f 261/432/408 228/433/409 260/434/410
f 260/434/410 228/433/409 259/435/411
f 259/435/411 228/433/409 229/436/412
f 259/435/411 229/436/412 258/437/413
f 258/437/413 229/436/412 230/438/414
f 258/437/413 230/438/414 257/439/415
f 257/439/415 230/438/414 256/440/416
f 256/440/416 230/438/414 231/441/417
f 256/440/416 231/441/417 255/442/418
f 255/442/418 231/441/417 232/443/419
f 255/442/418 232/443/419 254/444/420
f 254/444/420 232/443/419 253/445/421
f 253/445/421 232/443/419 233/446/422
f 253/445/421 233/446/422 252/447/423
f 252/447/423 233/446/422 234/448/424
f 252/447/423 234/448/424 251/449/425
f 251/449/425 234/448/424 250/450/426
f 250/450/426 234/448/424 235/451/427
f 250/450/426 235/451/427 249/452/428
f 249/452/428 235/451/427 236/453/429
f 249/452/428 236/453/429 248/454/430
f 248/454/430 236/453/429 237/455/431
f 248/454/430 237/455/431 247/456/432
f 247/456/432 237/455/431 246/457/433
f 246/457/433 237/455/431 238/458/434
f 246/457/433 238/458/434 245/459/435
f 245/459/435 238/458/434 239/460/436
f 245/459/435 239/460/436 244/461/437
f 244/461/437 239/460/436 243/462/438
f 243/462/438 239/460/436 240/463/439
f 243/462/438 240/463/439 242/409/385
f 242/409/385 240/463/439 217/407/383
f 240/464/440 299/465/441 217/466/442
f 217/466/442 299/465/441 276/467/443
f 217/468/442 276/469/443 218/470/444
f 218/470/444 276/469/443 277/471/445
f 218/470/444 277/471/445 219/472/446
f 219/472/446 277/471/445 278/473/447
f 219/472/446 278/473/447 220/474/448
f 220/474/448 278/473/447 279/475/449
f 220/474/448 279/475/449 221/476/450
f 221/476/450 279/475/449 280/477/451
f 221/476/450 280/477/451 222/478/452
f 222/478/452 280/477/451 281/479/453
f 222/478/452 281/479/453 223/480/454
f 223/480/454 281/479/453 282/481/455
f 223/480/454 282/481/455 224/482/456
f 224/482/456 282/481/455 283/483/457
f 224/482/456 283/483/457 225/484/458
f 225/484/458 283/483/457 284/485/459
f 225/484/458 284/485/459 226/486/460
f 226/486/460 284/485/459 285/487/461
f 226/486/460 285/487/461 227/488/462
f 227/488/462 285/487/461 286/489/463
f 227/488/462 286/489/463 228/490/464
f 228/490/464 286/489/463 287/491/465
f 228/490/464 287/491/465 229/492/466
f 229/492/466 287/491/465 288/493/467
f 229/492/466 288/493/467 230/494/468
f 230/494/468 288/493/467 289/495/469
f 230/494/468 289/495/469 231/496/470
f 231/496/470 289/495/469 290/497/471
f 231/496/470 290/497/471 232/498/472
f 232/498/472 290/497/471 291/499/473
f 232/498/472 291/499/473 233/500/474
f 233/500/474 291/499/473 292/501/475
f 233/500/474 292/501/475 234/502/476
f 234/502/476 292/501/475 293/503/477
f 234/502/476 293/503/477 235/504/478
f 235/504/478 293/503/477 294/505/479
f 235/504/478 294/505/479 236/506/480
f 236/506/480 294/505/479 295/507/481
f 236/506/480 295/507/481 237/508/482
f 237/508/482 295/507/481 296/509/483
f 237/508/482 296/509/483 238/510/484
f 238/510/484 296/509/483 297/511/485
f 238/510/484 297/511/485 239/512/486
f 239/512/486 297/511/485 298/513/487
f 239/512/486 298/513/487 240/464/440
f 240/464/440 298/513/487 299/465/441
f 216/514/488 321/515/489 177/516/233
f 177/516/233 321/515/489 322/517/490
f 177/516/233 322/517/490 263/518/491
f 263/518/491 322/517/490 264/519/492
f 264/519/492 322/517/490 323/520/493
f 264/519/492 323/520/493 265/521/494
f 265/521/494 323/520/493 324/522/495
f 265/521/494 324/522/495 266/523/496
f 266/523/496 324/522/495 325/524/497
f 266/523/496 325/524/497 180/525/247
f 180/525/247 325/524/497 127/526/248
f 127/526/248 325/524/497 326/527/498
f 127/526/248 326/527/498 128/528/499
f 128/528/499 326/527/498 327/529/500
f 128/528/499 327/529/500 129/530/501
f 129/530/501 327/529/500 328/531/502
f 129/530/501 328/531/502 130/532/503
f 130/532/503 328/531/502 329/533/504
f 130/532/503 329/533/504 131/534/505
f 131/534/505 329/533/504 330/535/506
f 131/534/505 330/535/506 132/536/507
f 132/536/507 330/535/506 331/537/508
f 132/536/507 331/537/508 133/538/509
f 133/538/509 331/537/508 332/539/510
f 133/538/509 332/539/510 134/540/511
f 134/540/511 332/539/510 333/541/512
f 134/540/511 333/541/512 135/542/513
f 135/542/513 333/541/512 334/543/514
f 135/542/513 334/543/514 136/544/515
f 136/544/515 334/543/514 300/545/516
f 136/544/515 300/545/516 137/546/517
f 137/547/517 300/548/516 301/549/518
f 137/547/517 301/549/518 138/550/519
f 138/550/519 301/549/518 302/551/520
f 138/550/519 302/551/520 139/552/521
f 139/552/521 302/551/520 303/553/522
f 139/552/521 303/553/522 140/554/523
f 140/554/523 303/553/522 304/555/524
f 140/554/523 304/555/524 141/556/253
f 141/556/253 304/555/524 305/557/525
f 141/556/253 305/557/525 246/558/526
f 246/558/526 305/557/525 247/559/527
f 247/559/527 305/557/525 306/560/528
f 247/559/527 306/560/528 248/561/529
f 248/561/529 306/560/528 307/562/530
f 248/561/529 307/562/530 75/563/267
f 75/563/267 307/562/530 188/564/268
f 188/564/268 307/562/530 308/565/531
f 188/564/268 308/565/531 204/566/532
f 204/566/532 308/565/531 309/567/533
f 204/566/532 309/567/533 205/568/534
f 205/568/534 309/567/533 310/569/535
f 205/568/534 310/569/535 206/570/536
f 206/570/536 310/569/535 311/571/537
f 206/570/536 311/571/537 207/572/538
f 207/572/538 311/571/537 312/573/539
f 207/572/538 312/573/539 208/574/540
f 208/574/540 312/573/539 313/575/541
f 208/574/540 313/575/541 209/576/542
f 209/576/542 313/575/541 314/577/543
f 209/576/542 314/577/543 210/578/544
f 210/578/544 314/577/543 315/579/545
f 210/578/544 315/579/545 211/580/546
f 211/580/546 315/579/545 316/581/547
f 211/580/546 316/581/547 212/582/548
f 212/582/548 316/581/547 317/583/549
f 212/582/548 317/583/549 213/584/550
f 213/584/550 317/583/549 318/585/551
f 213/584/550 318/585/551 214/586/552
f 214/586/552 318/585/551 319/587/553
f 214/586/552 319/587/553 215/588/554
f 215/588/554 319/587/553 320/589/555
f 215/588/554 320/589/555 216/514/488
f 216/514/488 320/589/555 321/515/489
f 248/561/529 75/563/267 249/590/556
f 249/590/556 75/563/267 74/591/557
f 249/590/556 74/591/557 250/592/558
f 250/592/558 74/591/557 73/593/559
f 250/592/558 73/593/559 251/594/560
f 251/594/560 73/593/559 72/595/561
f 251/594/560 72/595/561 252/596/562
f 252/596/562 72/595/561 71/597/563
f 252/596/562 71/597/563 253/598/564
f 253/598/564 71/597/563 70/599/565
f 253/598/564 70/599/565 254/600/566
f 254/600/566 70/599/565 69/601/567
f 254/600/566 69/601/567 255/602/568
f 255/602/568 69/601/567 68/603/569
f 255/602/568 68/603/569 256/604/570
f 256/604/570 68/603/569 67/605/571
f 256/604/570 67/605/571 257/606/572
f 257/606/572 67/605/571 66/607/573
f 257/606/572 66/607/573 258/608/574
f 258/608/574 66/607/573 65/609/575
f 258/608/574 65/609/575 259/610/576
f 259/610/576 65/609/575 64/611/577
f 259/610/576 64/611/577 260/612/578
f 260/612/578 64/611/577 63/613/579
f 260/612/578 63/613/579 261/614/580
f 261/614/580 63/613/579 62/615/581
f 261/614/580 62/615/581 262/616/582
f 262/616/582 62/615/581 61/617/234
f 262/616/582 61/617/234 263/518/491
f 263/518/491 61/617/234 177/516/233
f 266/523/496 180/525/247 267/618/583
f 267/618/583 180/525/247 203/619/584
f 267/618/583 203/619/584 268/620/585
f 268/620/585 203/619/584 202/621/586
f 268/620/585 202/621/586 269/622/587
f 269/622/587 202/621/586 201/623/588
f 269/622/587 201/623/588 270/624/589
f 270/624/589 201/623/588 200/625/590
f 270/624/589 200/625/590 271/626/591
f 271/626/591 200/625/590 199/627/592
f 271/626/591 199/627/592 272/628/593
f 272/628/593 199/627/592 198/629/594
f 272/628/593 198/629/594 273/630/595
f 273/630/595 198/629/594 197/631/596
f 273/630/595 197/631/596 274/632/597
f 274/632/597 197/631/596 196/633/598
f 274/632/597 196/633/598 275/634/599
f 275/634/599 196/633/598 195/635/600
f 275/634/599 195/635/600 241/636/601
f 241/637/601 195/638/600 194/639/602
f 241/637/601 194/639/602 242/640/603
f 242/640/603 194/639/602 193/641/604
f 242/640/603 193/641/604 243/642/605
f 243/642/605 193/641/604 192/643/606
f 243/642/605 192/643/606 244/644/607
f 244/644/607 192/643/606 191/645/608
f 244/644/607 191/645/608 245/646/609
f 245/646/609 191/645/608 181/647/254
f 245/646/609 181/647/254 246/558/526
f 246/558/526 181/647/254 141/556/253
f 299/648/610 301/649/611 276/650/612
f 276/650/612 301/649/611 300/651/613
f 276/650/612 300/651/613 334/652/614
f 301/649/611 299/648/610 302/653/615
f 302/653/615 299/648/610 298/654/616
f 302/653/615 298/654/616 303/655/617
f 303/655/617 298/654/616 304/656/618
f 304/656/618 298/654/616 297/657/619
f 304/656/618 297/657/619 305/658/620
f 305/658/620 297/657/619 296/659/621
f 305/658/620 296/659/621 306/660/622
f 306/660/622 296/659/621 307/661/623
f 307/661/623 296/659/621 295/662/624
f 307/661/623 295/662/624 308/663/625
f 308/663/625 295/662/624 294/664/626
f 308/663/625 294/664/626 309/665/627
f 309/665/627 294/664/626 293/666/628
f 309/665/627 293/666/628 310/667/629
f 310/667/629 293/666/628 311/668/630
f 311/668/630 293/666/628 292/669/631
f 311/668/630 292/669/631 312/670/632
f 312/670/632 292/669/631 291/671/633
f 312/670/632 291/671/633 313/672/634
f 313/672/634 291/671/633 314/673/635
f 314/673/635 291/671/633 290/674/636
f 314/673/635 290/674/636 315/675/637
f 315/675/637 290/674/636 289/676/638
f 315/675/637 289/676/638 316/677/639
f 316/677/639 289/676/638 317/678/640
f 317/678/640 289/676/638 288/679/641
f 317/678/640 288/679/641 318/680/642
f 318/680/642 288/679/641 287/681/643
f 318/680/642 287/681/643 319/682/644
f 319/682/644 287/681/643 320/683/645
f 320/683/645 287/681/643 286/684/646
f 320/683/645 286/684/646 321/685/647
f 321/685/647 286/684/646 285/686/648
f 321/685/647 285/686/648 322/687/649
f 322/687/649 285/686/648 323/688/650
f 323/688/650 285/686/648 284/689/651
f 323/688/650 284/689/651 324/690/652
f 324/690/652 284/689/651 283/691/653
f 324/690/652 283/691/653 325/692/654
f 325/692/654 283/691/653 326/693/655
f 326/693/655 283/691/653 282/694/656
f 326/693/655 282/694/656 327/695/657
f 327/695/657 282/694/656 281/696/658
f 327/695/657 281/696/658 328/697/659
f 328/697/659 281/696/658 280/698/660
f 328/697/659 280/698/660 329/699/661
f 329/699/661 280/698/660 330/700/662
f 330/700/662 280/698/660 279/701/663
f 330/700/662 279/701/663 331/702/664
f 331/702/664 279/701/663 278/703/665
f 331/702/664 278/703/665 332/704/666
f 332/704/666 278/703/665 333/705/667
f 333/705/667 278/703/665 277/706/668
f 333/705/667 277/706/668 334/652/614
f 334/652/614 277/706/668 276/650/612
# 334 vertices
# 706 texture params
# 668 normals
# 668 facets

# 1 groups
