# WaveFront *.obj file (generated by Autodesk ATF)

mtllib Propeller_CW.mtl

g Body2

v 0.100000 -0.013076 0.001000
v 0.099940 -0.013621 0.001000
v 0.099763 -0.014140 0.001000
v 0.099476 -0.014607 0.001000
v 0.099095 -0.015001 0.001000
v 0.098637 -0.015302 0.001000
v 0.098125 -0.015497 0.001000
v 0.098125 -0.015497 -0.001000
v 0.098637 -0.015302 -0.001000
v 0.099095 -0.015001 -0.001000
v 0.099476 -0.014607 -0.001000
v 0.099763 -0.014140 -0.001000
v 0.099940 -0.013621 -0.001000
v 0.100000 -0.013076 -0.001000
v 0.092163 -0.016908 0.001000
v 0.086149 -0.018079 0.001000
v 0.080093 -0.019007 0.001000
v 0.074005 -0.019691 0.001000
v 0.067894 -0.020129 0.001000
v 0.061771 -0.020322 0.001000
v 0.055644 -0.020268 0.001000
v 0.049525 -0.019968 0.001000
v 0.043423 -0.019422 0.001000
v 0.037348 -0.018631 0.001000
v 0.031309 -0.017597 0.001000
v 0.025317 -0.016321 0.001000
v 0.019381 -0.014804 0.001000
v 0.013511 -0.013051 0.001000
v 0.007716 -0.011063 0.001000
v 0.002005 -0.008843 0.001000
v 0.002005 -0.008843 -0.001000
v 0.007716 -0.011063 -0.001000
v 0.013511 -0.013051 -0.001000
v 0.019381 -0.014804 -0.001000
v 0.025317 -0.016321 -0.001000
v 0.031309 -0.017597 -0.001000
v 0.037348 -0.018631 -0.001000
v 0.043423 -0.019422 -0.001000
v 0.049525 -0.019968 -0.001000
v 0.055644 -0.020268 -0.001000
v 0.061771 -0.020322 -0.001000
v 0.067894 -0.020129 -0.001000
v 0.074005 -0.019691 -0.001000
v 0.080093 -0.019007 -0.001000
v 0.086149 -0.018079 -0.001000
v 0.092163 -0.016908 -0.001000
v 0.000919 -0.008442 -0.001000
v -0.000194 -0.008124 -0.001000
v -0.001327 -0.007889 -0.001000
v 0.000071 -0.008000 -0.001000
v 0.001467 -0.007864 -0.001000
v 0.002818 -0.007487 -0.001000
v 0.004082 -0.006880 -0.001000
v 0.005221 -0.006061 -0.001000
v 0.006200 -0.005056 -0.001000
v 0.006987 -0.003896 -0.001000
v 0.007560 -0.002616 -0.001000
v 0.007901 -0.001255 -0.001000
v 0.007999 0.000144 -0.001000
v 0.007851 0.001539 -0.001000
v 0.007461 0.002887 -0.001000
v 0.006842 0.004145 -0.001000
v 0.006013 0.005277 -0.001000
v 0.007338 0.003940 -0.001000
v 0.008815 0.002774 -0.001000
v 0.010423 0.001795 -0.001000
v 0.012138 0.001018 -0.001000
v 0.013934 0.000455 -0.001000
v 0.015785 0.000114 -0.001000
v 0.017664 0.000000 -0.001000
v 0.097500 0.000000 -0.001000
v 0.098147 -0.000085 -0.001000
v 0.098750 -0.000335 -0.001000
v 0.099268 -0.000732 -0.001000
v 0.099665 -0.001250 -0.001000
v 0.099915 -0.001853 -0.001000
v 0.100000 -0.002500 -0.001000
v 0.097500 0.000000 0.001000
v 0.098147 -0.000085 0.001000
v 0.098750 -0.000335 0.001000
v 0.099268 -0.000732 0.001000
v 0.099665 -0.001250 0.001000
v 0.099915 -0.001853 0.001000
v 0.100000 -0.002500 0.001000
v 0.017664 0.000000 0.001000
v -0.097500 0.000000 0.001000
v -0.098147 0.000085 0.001000
v -0.098750 0.000335 0.001000
v -0.099268 0.000732 0.001000
v -0.099665 0.001250 0.001000
v -0.099915 0.001853 0.001000
v -0.100000 0.002500 0.001000
v -0.100000 0.002500 -0.001000
v -0.099915 0.001853 -0.001000
v -0.099665 0.001250 -0.001000
v -0.099268 0.000732 -0.001000
v -0.098750 0.000335 -0.001000
v -0.098147 0.000085 -0.001000
v -0.097500 0.000000 -0.001000
v -0.017664 0.000000 -0.001000
v -0.017664 0.000000 0.001000
v -0.015785 -0.000114 0.001000
v -0.013934 -0.000455 0.001000
v -0.012138 -0.001018 0.001000
v -0.010423 -0.001795 0.001000
v -0.008815 -0.002774 0.001000
v -0.007338 -0.003940 0.001000
v -0.006013 -0.005277 0.001000
v -0.006842 -0.004145 0.001000
v -0.007461 -0.002887 0.001000
v -0.007851 -0.001539 0.001000
v -0.007999 -0.000144 0.001000
v -0.007901 0.001255 0.001000
v -0.007560 0.002616 0.001000
v -0.006987 0.003896 0.001000
v -0.006200 0.005056 0.001000
v -0.005221 0.006061 0.001000
v -0.004082 0.006880 0.001000
v -0.002818 0.007487 0.001000
v -0.001467 0.007864 0.001000
v -0.000071 0.008000 0.001000
v 0.001327 0.007889 0.001000
v 0.000194 0.008124 0.001000
v -0.000919 0.008442 0.001000
v -0.002005 0.008843 0.001000
v -0.007716 0.011063 0.001000
v -0.013511 0.013051 0.001000
v -0.019381 0.014804 0.001000
v -0.025317 0.016321 0.001000
v -0.031309 0.017597 0.001000
v -0.037348 0.018631 0.001000
v -0.043423 0.019422 0.001000
v -0.049525 0.019968 0.001000
v -0.055644 0.020268 0.001000
v -0.061771 0.020322 0.001000
v -0.067894 0.020129 0.001000
v -0.074005 0.019691 0.001000
v -0.080093 0.019007 0.001000
v -0.086149 0.018079 0.001000
v -0.092163 0.016908 0.001000
v -0.098125 0.015497 0.001000
v -0.098637 0.015302 0.001000
v -0.099095 0.015001 0.001000
v -0.099476 0.014607 0.001000
v -0.099763 0.014140 0.001000
v -0.099940 0.013621 0.001000
v -0.100000 0.013076 0.001000
v -0.098125 0.015497 -0.001000
v -0.098637 0.015302 -0.001000
v -0.099095 0.015001 -0.001000
v -0.099476 0.014607 -0.001000
v -0.099763 0.014140 -0.001000
v -0.099940 0.013621 -0.001000
v -0.100000 0.013076 -0.001000
v -0.002005 0.008843 -0.001000
v -0.007716 0.011063 -0.001000
v -0.013511 0.013051 -0.001000
v -0.019381 0.014804 -0.001000
v -0.025317 0.016321 -0.001000
v -0.031309 0.017597 -0.001000
v -0.037348 0.018631 -0.001000
v -0.043423 0.019422 -0.001000
v -0.049525 0.019968 -0.001000
v -0.055644 0.020268 -0.001000
v -0.061771 0.020322 -0.001000
v -0.067894 0.020129 -0.001000
v -0.074005 0.019691 -0.001000
v -0.080093 0.019007 -0.001000
v -0.086149 0.018079 -0.001000
v -0.092163 0.016908 -0.001000
v 0.006013 0.005277 0.001000
v 0.007338 0.003940 0.001000
v 0.008815 0.002774 0.001000
v 0.010423 0.001795 0.001000
v 0.012138 0.001018 0.001000
v 0.013934 0.000455 0.001000
v 0.015785 0.000114 0.001000
v 0.001327 0.007889 -0.001000
v 0.000194 0.008124 -0.001000
v -0.000919 0.008442 -0.001000
v -0.015785 -0.000114 -0.001000
v -0.013934 -0.000455 -0.001000
v -0.012138 -0.001018 -0.001000
v -0.010423 -0.001795 -0.001000
v -0.008815 -0.002774 -0.001000
v -0.007338 -0.003940 -0.001000
v -0.006013 -0.005277 -0.001000
v 0.000919 -0.008442 0.001000
v -0.000194 -0.008124 0.001000
v -0.001327 -0.007889 0.001000
v -0.000071 0.008000 -0.001000
v -0.001467 0.007864 -0.001000
v -0.002818 0.007487 -0.001000
v -0.004082 0.006880 -0.001000
v -0.005221 0.006061 -0.001000
v -0.006200 0.005056 -0.001000
v -0.006987 0.003896 -0.001000
v -0.007560 0.002616 -0.001000
v -0.007901 0.001255 -0.001000
v -0.007999 -0.000144 -0.001000
v -0.007851 -0.001539 -0.001000
v -0.007461 -0.002887 -0.001000
v -0.006842 -0.004145 -0.001000
v 0.006842 0.004145 0.001000
v 0.007461 0.002887 0.001000
v 0.007851 0.001539 0.001000
v 0.007999 0.000144 0.001000
v 0.007901 -0.001255 0.001000
v 0.007560 -0.002616 0.001000
v 0.006987 -0.003896 0.001000
v 0.006200 -0.005056 0.001000
v 0.005221 -0.006061 0.001000
v 0.004082 -0.006880 0.001000
v 0.002818 -0.007487 0.001000
v 0.001467 -0.007864 0.001000
v 0.000071 -0.008000 0.001000
v -0.002500 0.000000 -0.003000
v -0.002415 -0.000647 -0.003000
v -0.002165 -0.001250 -0.003000
v -0.001768 -0.001768 -0.003000
v -0.001250 -0.002165 -0.003000
v -0.000647 -0.002415 -0.003000
v 0.000000 -0.002500 -0.003000
v 0.000647 -0.002415 -0.003000
v 0.001250 -0.002165 -0.003000
v 0.001768 -0.001768 -0.003000
v 0.002165 -0.001250 -0.003000
v 0.002415 -0.000647 -0.003000
v 0.002500 0.000000 -0.003000
v 0.002415 0.000647 -0.003000
v 0.002165 0.001250 -0.003000
v 0.001768 0.001768 -0.003000
v 0.001250 0.002165 -0.003000
v 0.000647 0.002415 -0.003000
v 0.000000 0.002500 -0.003000
v -0.000647 0.002415 -0.003000
v -0.001250 0.002165 -0.003000
v -0.001768 0.001768 -0.003000
v -0.002165 0.001250 -0.003000
v -0.002415 0.000647 -0.003000
v -0.008000 0.000000 -0.003000
v -0.007871 0.001428 -0.003000
v -0.007490 0.002811 -0.003000
v -0.006868 0.004103 -0.003000
v -0.006025 0.005264 -0.003000
v -0.004988 0.006255 -0.003000
v -0.003791 0.007045 -0.003000
v -0.002472 0.007608 -0.003000
v -0.001074 0.007928 -0.003000
v 0.000359 0.007992 -0.003000
v 0.001780 0.007799 -0.003000
v 0.003144 0.007356 -0.003000
v 0.004407 0.006677 -0.003000
v 0.005529 0.005782 -0.003000
v 0.006472 0.004702 -0.003000
v 0.007208 0.003471 -0.003000
v 0.007712 0.002128 -0.003000
v 0.007968 0.000717 -0.003000
v 0.007968 -0.000717 -0.003000
v 0.007712 -0.002128 -0.003000
v 0.007208 -0.003471 -0.003000
v 0.006472 -0.004702 -0.003000
v 0.005529 -0.005782 -0.003000
v 0.004407 -0.006677 -0.003000
v 0.003144 -0.007356 -0.003000
v 0.001780 -0.007799 -0.003000
v 0.000359 -0.007992 -0.003000
v -0.001074 -0.007928 -0.003000
v -0.002472 -0.007608 -0.003000
v -0.003791 -0.007045 -0.003000
v -0.004988 -0.006255 -0.003000
v -0.006025 -0.005264 -0.003000
v -0.006868 -0.004103 -0.003000
v -0.007490 -0.002811 -0.003000
v -0.007871 -0.001428 -0.003000
v -0.002500 0.000000 0.003000
v -0.002415 -0.000647 0.003000
v -0.002165 -0.001250 0.003000
v -0.001768 -0.001768 0.003000
v -0.001250 -0.002165 0.003000
v -0.000647 -0.002415 0.003000
v 0.000000 -0.002500 0.003000
v 0.000647 -0.002415 0.003000
v 0.001250 -0.002165 0.003000
v 0.001768 -0.001768 0.003000
v 0.002165 -0.001250 0.003000
v 0.002415 -0.000647 0.003000
v 0.002500 0.000000 0.003000
v 0.002415 0.000647 0.003000
v 0.002165 0.001250 0.003000
v 0.001768 0.001768 0.003000
v 0.001250 0.002165 0.003000
v 0.000647 0.002415 0.003000
v 0.000000 0.002500 0.003000
v -0.000647 0.002415 0.003000
v -0.001250 0.002165 0.003000
v -0.001768 0.001768 0.003000
v -0.002165 0.001250 0.003000
v -0.002415 0.000647 0.003000
v -0.008000 0.000000 0.003000
v -0.007871 0.001428 0.003000
v -0.007490 0.002811 0.003000
v -0.006868 0.004103 0.003000
v -0.006025 0.005264 0.003000
v -0.004988 0.006255 0.003000
v -0.003791 0.007045 0.003000
v -0.002472 0.007608 0.003000
v -0.001074 0.007928 0.003000
v 0.000359 0.007992 0.003000
v 0.001780 0.007799 0.003000
v 0.003144 0.007356 0.003000
v 0.004407 0.006677 0.003000
v 0.005529 0.005782 0.003000
v 0.006472 0.004702 0.003000
v 0.007208 0.003471 0.003000
v 0.007712 0.002128 0.003000
v 0.007968 0.000717 0.003000
v 0.007968 -0.000717 0.003000
v 0.007712 -0.002128 0.003000
v 0.007208 -0.003471 0.003000
v 0.006472 -0.004702 0.003000
v 0.005529 -0.005782 0.003000
v 0.004407 -0.006677 0.003000
v 0.003144 -0.007356 0.003000
v 0.001780 -0.007799 0.003000
v 0.000359 -0.007992 0.003000
v -0.001074 -0.007928 0.003000
v -0.002472 -0.007608 0.003000
v -0.003791 -0.007045 0.003000
v -0.004988 -0.006255 0.003000
v -0.006025 -0.005264 0.003000
v -0.006868 -0.004103 0.003000
v -0.007490 -0.002811 0.003000
v -0.007871 -0.001428 0.003000
vt -0.100000 -0.164775 0.000000
vt 0.100000 -0.164775 0.000000
vt -0.100000 -0.109850 0.000000
vt 0.100000 -0.109850 0.000000
vt 0.100000 -0.054925 0.000000
vt -0.100000 -0.054925 0.000000
vt 0.100000 -0.000000 0.000000
vt -0.100000 -0.000000 0.000000
vt 0.100000 0.054925 0.000000
vt -0.100000 0.054925 0.000000
vt 0.100000 0.109850 0.000000
vt -0.100000 0.109850 0.000000
vt -0.100000 0.164775 0.000000
vt 0.100000 0.164775 0.000000
vt -0.100000 0.193990 0.000000
vt 0.100000 0.193990 0.000000
vt -0.100000 0.806689 0.000000
vt 0.100000 0.806689 0.000000
vt -0.100000 1.419389 0.000000
vt 0.100000 1.419389 0.000000
vt -0.100000 2.032088 0.000000
vt 0.100000 2.032088 0.000000
vt -0.100000 2.644787 0.000000
vt 0.100000 2.644787 0.000000
vt -0.100000 3.257487 0.000000
vt 0.100000 3.257487 0.000000
vt -0.100000 3.870186 0.000000
vt 0.100000 3.870186 0.000000
vt -0.100000 4.482886 0.000000
vt 0.100000 4.482886 0.000000
vt -0.100000 5.095585 0.000000
vt 0.100000 5.095585 0.000000
vt -0.100000 5.708284 0.000000
vt 0.100000 5.708284 0.000000
vt -0.100000 6.320984 0.000000
vt 0.100000 6.320984 0.000000
vt -0.100000 6.933683 0.000000
vt 0.100000 6.933683 0.000000
vt -0.100000 7.546382 0.000000
vt 0.100000 7.546382 0.000000
vt -0.100000 8.159082 0.000000
vt 0.100000 8.159082 0.000000
vt -0.100000 8.771781 0.000000
vt 0.100000 8.771781 0.000000
vt -0.100000 9.384480 0.000000
vt 0.100000 9.384480 0.000000
vt -0.100000 9.997180 0.000000
vt 0.100000 9.997180 0.000000
vt 4.993991 0.345512 0.000000
vt 4.216304 0.674251 0.000000
vt 5.000000 0.291028 0.000000
vt 3.614936 0.791325 0.000000
vt 3.009348 0.884128 0.000000
vt 4.976252 0.397377 0.000000
vt 4.947636 0.444130 0.000000
vt 4.812479 0.533095 0.000000
vt 4.909519 0.483522 0.000000
vt 4.863733 0.513660 0.000000
vt -0.657703 0.925617 0.000000
vt 2.400518 0.952510 0.000000
vt -0.047482 0.980206 0.000000
vt 1.789431 0.996359 0.000000
vt 0.564441 1.010219 0.000000
vt 1.177075 1.015606 0.000000
vt -1.265236 0.846539 0.000000
vt -1.869099 0.743101 0.000000
vt -2.468315 0.615469 0.000000
vt 5.000000 -0.766581 0.000000
vt -3.061916 0.463851 0.000000
vt -3.233648 -1.016581 0.000000
vt -3.648941 0.288490 0.000000
vt -4.380050 -0.510951 0.000000
vt -4.477889 -0.410446 0.000000
vt -4.228441 0.089671 0.000000
vt -4.591778 -0.328574 0.000000
vt -4.718215 -0.267851 0.000000
vt -4.799480 -0.132284 0.000000
vt -4.853315 -0.230144 0.000000
vt -4.908089 -0.172357 0.000000
vt -4.992923 -0.216613 0.000000
vt -5.019386 -0.204213 0.000000
vt -5.132750 -0.227672 0.000000
vt -4.301268 -0.626999 0.000000
vt -4.243966 -0.755023 0.000000
vt -4.209904 -0.891087 0.000000
vt -4.200130 -1.031009 0.000000
vt -3.606621 -1.062124 0.000000
vt -3.421519 -1.028009 0.000000
vt -3.786222 -1.118423 0.000000
vt -4.214944 -1.170488 0.000000
vt -3.957676 -1.196077 0.000000
vt -4.118453 -1.293939 0.000000
vt -4.253891 -1.305235 0.000000
vt -4.266184 -1.410567 0.000000
vt -4.315773 -1.431109 0.000000
vt -4.398689 -1.544241 0.000000
vt 4.750000 -1.016581 0.000000
vt 4.991481 -0.831286 0.000000
vt 4.966506 -0.891581 0.000000
vt 4.926777 -0.943358 0.000000
vt 4.875000 -0.983088 0.000000
vt 4.814705 -1.008063 0.000000
vt -0.100000 -0.196350 0.000000
vt 0.100000 -0.196350 0.000000
vt -0.100000 -0.130900 0.000000
vt 0.100000 -0.130900 0.000000
vt -0.100000 -0.065450 0.000000
vt 0.100000 -0.065450 0.000000
vt -0.100000 -0.000000 0.000000
vt 0.100000 -0.000000 0.000000
vt -0.100000 0.065450 0.000000
vt 0.100000 0.065450 0.000000
vt -0.100000 0.130900 0.000000
vt 0.100000 0.130900 0.000000
vt -0.100000 0.196350 0.000000
vt 0.100000 0.196350 0.000000
vt -8.950000 -0.100000 0.000000
vt -0.966352 -0.100000 0.000000
vt -8.950000 0.100000 0.000000
vt -0.966352 0.100000 0.000000
vt -0.100000 -0.196350 0.000000
vt 0.100000 -0.196350 0.000000
vt -0.100000 -0.130900 0.000000
vt 0.100000 -0.130900 0.000000
vt -0.100000 -0.065450 0.000000
vt 0.100000 -0.065450 0.000000
vt -0.100000 -0.000000 0.000000
vt 0.100000 -0.000000 0.000000
vt -0.100000 0.065450 0.000000
vt 0.100000 0.065450 0.000000
vt -0.100000 0.130900 0.000000
vt 0.100000 0.130900 0.000000
vt -0.100000 0.196350 0.000000
vt 0.100000 0.196350 0.000000
vt -8.950000 -0.100000 0.000000
vt -0.966352 -0.100000 0.000000
vt -8.950000 0.100000 0.000000
vt -0.966352 0.100000 0.000000
vt 4.991481 0.831286 0.000000
vt 4.750000 1.016581 0.000000
vt 5.000000 0.766581 0.000000
vt -3.233648 1.016581 0.000000
vt -3.061916 -0.463851 0.000000
vt -3.648941 -0.288490 0.000000
vt -4.380050 0.510951 0.000000
vt -4.477889 0.410446 0.000000
vt 4.966506 0.891581 0.000000
vt 4.926777 0.943358 0.000000
vt 4.875000 0.983088 0.000000
vt 4.814705 1.008063 0.000000
vt -3.421519 1.028009 0.000000
vt -4.209904 0.891087 0.000000
vt -4.243966 0.755023 0.000000
vt -4.301268 0.626999 0.000000
vt -3.606621 1.062124 0.000000
vt -4.200130 1.031009 0.000000
vt -3.786222 1.118423 0.000000
vt -4.214944 1.170488 0.000000
vt -3.957676 1.196077 0.000000
vt -4.118453 1.293939 0.000000
vt -4.253891 1.305235 0.000000
vt -4.266184 1.410567 0.000000
vt -4.315773 1.431109 0.000000
vt -4.398689 1.544241 0.000000
vt -4.228441 -0.089671 0.000000
vt -4.591778 0.328574 0.000000
vt -4.718215 0.267851 0.000000
vt -4.799480 0.132284 0.000000
vt -4.853315 0.230144 0.000000
vt -4.908089 0.172357 0.000000
vt -4.992923 0.216613 0.000000
vt -5.019386 0.204213 0.000000
vt -5.132750 0.227672 0.000000
vt -2.468315 -0.615469 0.000000
vt 5.000000 -0.291028 0.000000
vt -1.869099 -0.743101 0.000000
vt -1.265236 -0.846539 0.000000
vt -0.657703 -0.925617 0.000000
vt 3.009348 -0.884128 0.000000
vt 3.614936 -0.791325 0.000000
vt 2.400518 -0.952510 0.000000
vt -0.047482 -0.980206 0.000000
vt 1.789431 -0.996359 0.000000
vt 0.564441 -1.010219 0.000000
vt 1.177075 -1.015606 0.000000
vt 4.216304 -0.674251 0.000000
vt 4.993991 -0.345512 0.000000
vt 4.976252 -0.397377 0.000000
vt 4.947636 -0.444130 0.000000
vt 4.812479 -0.533095 0.000000
vt 4.909519 -0.483522 0.000000
vt 4.863733 -0.513660 0.000000
vt -0.100000 -0.164775 0.000000
vt 0.100000 -0.164775 0.000000
vt -0.100000 -0.109850 0.000000
vt 0.100000 -0.109850 0.000000
vt 0.100000 -0.054925 0.000000
vt -0.100000 -0.054925 0.000000
vt 0.100000 -0.000000 0.000000
vt -0.100000 -0.000000 0.000000
vt 0.100000 0.054925 0.000000
vt -0.100000 0.054925 0.000000
vt 0.100000 0.109850 0.000000
vt -0.100000 0.109850 0.000000
vt -0.100000 0.164775 0.000000
vt 0.100000 0.164775 0.000000
vt -0.100000 0.193990 0.000000
vt 0.100000 0.193990 0.000000
vt -0.100000 0.806689 0.000000
vt 0.100000 0.806689 0.000000
vt -0.100000 1.419389 0.000000
vt 0.100000 1.419389 0.000000
vt -0.100000 2.032088 0.000000
vt 0.100000 2.032088 0.000000
vt -0.100000 2.644787 0.000000
vt 0.100000 2.644787 0.000000
vt -0.100000 3.257487 0.000000
vt 0.100000 3.257487 0.000000
vt -0.100000 3.870186 0.000000
vt 0.100000 3.870186 0.000000
vt -0.100000 4.482886 0.000000
vt 0.100000 4.482886 0.000000
vt -0.100000 5.095585 0.000000
vt 0.100000 5.095585 0.000000
vt -0.100000 5.708284 0.000000
vt 0.100000 5.708284 0.000000
vt -0.100000 6.320984 0.000000
vt 0.100000 6.320984 0.000000
vt -0.100000 6.933683 0.000000
vt 0.100000 6.933683 0.000000
vt -0.100000 7.546382 0.000000
vt 0.100000 7.546382 0.000000
vt -0.100000 8.159082 0.000000
vt 0.100000 8.159082 0.000000
vt -0.100000 8.771781 0.000000
vt 0.100000 8.771781 0.000000
vt -0.100000 9.384480 0.000000
vt 0.100000 9.384480 0.000000
vt -0.100000 9.997180 0.000000
vt 0.100000 9.997180 0.000000
vt -0.100000 -0.659171 0.000000
vt 0.100000 -0.659171 0.000000
vt -0.100000 -0.470837 0.000000
vt 0.100000 -0.470837 0.000000
vt -0.100000 -0.282502 0.000000
vt 0.100000 -0.282502 0.000000
vt -0.100000 -0.094167 0.000000
vt 0.100000 -0.094167 0.000000
vt -0.100000 0.094167 0.000000
vt 0.100000 0.094167 0.000000
vt -0.100000 0.282502 0.000000
vt 0.100000 0.282502 0.000000
vt -0.100000 0.470837 0.000000
vt 0.100000 0.470837 0.000000
vt -0.100000 0.659171 0.000000
vt 0.100000 0.659171 0.000000
vt -0.100000 -0.173689 0.000000
vt 0.100000 -0.173689 0.000000
vt -0.100000 -0.057896 0.000000
vt 0.100000 -0.057896 0.000000
vt 0.100000 0.057896 0.000000
vt 0.100000 0.173689 0.000000
vt -0.100000 0.173689 0.000000
vt -0.100000 0.057896 0.000000
vt -0.100000 -0.659171 0.000000
vt 0.100000 -0.659171 0.000000
vt -0.100000 -0.470837 0.000000
vt 0.100000 -0.470837 0.000000
vt -0.100000 -0.282502 0.000000
vt 0.100000 -0.282502 0.000000
vt -0.100000 -0.094167 0.000000
vt 0.100000 -0.094167 0.000000
vt -0.100000 0.094167 0.000000
vt 0.100000 0.094167 0.000000
vt -0.100000 0.282502 0.000000
vt 0.100000 0.282502 0.000000
vt -0.100000 0.470837 0.000000
vt 0.100000 0.470837 0.000000
vt -0.100000 0.659171 0.000000
vt 0.100000 0.659171 0.000000
vt -0.100000 -0.173689 0.000000
vt 0.100000 -0.173689 0.000000
vt -0.100000 -0.057896 0.000000
vt 0.100000 -0.057896 0.000000
vt 0.100000 0.057896 0.000000
vt 0.100000 0.173689 0.000000
vt -0.100000 0.173689 0.000000
vt -0.100000 0.057896 0.000000
vt -4.814705 1.008063 0.000000
vt -4.875000 0.983088 0.000000
vt -4.750000 1.016581 0.000000
vt -4.926777 0.943358 0.000000
vt -4.966506 0.891581 0.000000
vt -4.991481 0.831286 0.000000
vt -5.000000 0.766581 0.000000
vt 3.233648 1.016581 0.000000
vt 3.061916 -0.463851 0.000000
vt 3.648941 -0.288490 0.000000
vt 2.468315 -0.615469 0.000000
vt -5.000000 -0.291028 0.000000
vt 1.869099 -0.743101 0.000000
vt 1.265236 -0.846539 0.000000
vt 0.657703 -0.925617 0.000000
vt -3.009348 -0.884128 0.000000
vt -2.400518 -0.952510 0.000000
vt -4.993991 -0.345512 0.000000
vt -4.216304 -0.674251 0.000000
vt -3.614936 -0.791325 0.000000
vt -4.976252 -0.397377 0.000000
vt -4.947636 -0.444130 0.000000
vt -4.812479 -0.533095 0.000000
vt -4.909519 -0.483522 0.000000
vt -4.863733 -0.513660 0.000000
vt 0.047482 -0.980206 0.000000
vt -1.789431 -0.996359 0.000000
vt -0.564441 -1.010219 0.000000
vt -1.177075 -1.015606 0.000000
vt 4.228441 -0.089671 0.000000
vt 4.477889 0.410446 0.000000
vt 4.380050 0.510951 0.000000
vt 4.301268 0.626999 0.000000
vt 4.243966 0.755023 0.000000
vt 4.799480 0.132284 0.000000
vt 4.718215 0.267851 0.000000
vt 4.591778 0.328574 0.000000
vt 4.853315 0.230144 0.000000
vt 4.908089 0.172357 0.000000
vt 4.992923 0.216613 0.000000
vt 5.019386 0.204213 0.000000
vt 5.132750 0.227672 0.000000
vt 4.209904 0.891087 0.000000
vt 3.421519 1.028009 0.000000
vt 3.606621 1.062124 0.000000
vt 4.200130 1.031009 0.000000
vt 3.786222 1.118423 0.000000
vt 4.214944 1.170488 0.000000
vt 3.957676 1.196077 0.000000
vt 4.118453 1.293939 0.000000
vt 4.253891 1.305235 0.000000
vt 4.266184 1.410567 0.000000
vt 4.315773 1.431109 0.000000
vt 4.398689 1.544241 0.000000
vt -0.250000 0.100000 0.000000
vt -1.307609 0.100000 0.000000
vt -0.250000 -0.100000 0.000000
vt -1.307609 -0.100000 0.000000
vt -1.307609 -0.100000 0.000000
vt -0.250000 -0.100000 0.000000
vt -1.307609 0.100000 0.000000
vt -0.250000 0.100000 0.000000
vt -4.863733 0.513660 0.000000
vt -4.909519 0.483522 0.000000
vt -4.812479 0.533095 0.000000
vt -4.947636 0.444130 0.000000
vt -4.216304 0.674251 0.000000
vt -4.976252 0.397377 0.000000
vt -4.993991 0.345512 0.000000
vt -5.000000 0.291028 0.000000
vt -3.614936 0.791325 0.000000
vt -3.009348 0.884128 0.000000
vt 0.657703 0.925617 0.000000
vt -2.400518 0.952510 0.000000
vt 0.047482 0.980206 0.000000
vt -1.789431 0.996359 0.000000
vt -0.564441 1.010219 0.000000
vt -1.177075 1.015606 0.000000
vt -5.000000 -0.766581 0.000000
vt 2.468315 0.615469 0.000000
vt 1.869099 0.743101 0.000000
vt 1.265236 0.846539 0.000000
vt -4.991481 -0.831286 0.000000
vt -4.750000 -1.016581 0.000000
vt 3.233648 -1.016581 0.000000
vt 3.061916 0.463851 0.000000
vt 3.648941 0.288490 0.000000
vt 4.380050 -0.510951 0.000000
vt 4.477889 -0.410446 0.000000
vt -4.966506 -0.891581 0.000000
vt -4.926777 -0.943358 0.000000
vt -4.875000 -0.983088 0.000000
vt -4.814705 -1.008063 0.000000
vt 3.421519 -1.028009 0.000000
vt 4.209904 -0.891087 0.000000
vt 4.243966 -0.755023 0.000000
vt 4.301268 -0.626999 0.000000
vt 3.606621 -1.062124 0.000000
vt 4.200130 -1.031009 0.000000
vt 3.786222 -1.118423 0.000000
vt 4.214944 -1.170488 0.000000
vt 3.957676 -1.196077 0.000000
vt 4.118453 -1.293939 0.000000
vt 4.253891 -1.305235 0.000000
vt 4.266184 -1.410567 0.000000
vt 4.315773 -1.431109 0.000000
vt 4.398689 -1.544241 0.000000
vt 4.228441 0.089671 0.000000
vt 4.591778 -0.328574 0.000000
vt 4.718215 -0.267851 0.000000
vt 4.799480 -0.132284 0.000000
vt 4.853315 -0.230144 0.000000
vt 4.908089 -0.172357 0.000000
vt 4.992923 -0.216613 0.000000
vt 5.019386 -0.204213 0.000000
vt 5.132750 -0.227672 0.000000
vt -0.241481 0.064705 0.000000
vt -0.787144 0.142846 0.000000
vt -0.250000 0.000000 0.000000
vt -0.800000 0.000000 0.000000
vt -0.787144 -0.142846 0.000000
vt -0.748988 0.281100 0.000000
vt -0.216506 0.125000 0.000000
vt -0.686759 0.410319 0.000000
vt -0.602457 0.526351 0.000000
vt -0.176777 0.176777 0.000000
vt -0.498792 0.625465 0.000000
vt -0.125000 0.216506 0.000000
vt -0.379095 0.704476 0.000000
vt -0.247214 0.760845 0.000000
vt -0.064705 0.241481 0.000000
vt -0.107387 0.792760 0.000000
vt 0.000000 0.250000 0.000000
vt 0.035892 0.799194 0.000000
vt 0.064705 0.241481 0.000000
vt 0.178017 0.779942 0.000000
vt 0.314420 0.735622 0.000000
vt 0.125000 0.216506 0.000000
vt 0.440718 0.667659 0.000000
vt 0.176777 0.176777 0.000000
vt 0.552850 0.578236 0.000000
vt 0.647214 0.470228 0.000000
vt 0.216506 0.125000 0.000000
vt 0.720775 0.347107 0.000000
vt 0.241481 0.064705 0.000000
vt 0.771170 0.212829 0.000000
vt 0.796779 0.071711 0.000000
vt 0.250000 -0.000000 0.000000
vt 0.796779 -0.071711 0.000000
vt 0.241481 -0.064705 0.000000
vt 0.771170 -0.212829 0.000000
vt 0.720775 -0.347107 0.000000
vt 0.216506 -0.125000 0.000000
vt 0.647214 -0.470228 0.000000
vt 0.176777 -0.176777 0.000000
vt 0.552850 -0.578236 0.000000
vt 0.440718 -0.667659 0.000000
vt 0.125000 -0.216506 0.000000
vt 0.314420 -0.735622 0.000000
vt 0.064705 -0.241481 0.000000
vt 0.178017 -0.779942 0.000000
vt 0.035892 -0.799194 0.000000
vt 0.000000 -0.250000 0.000000
vt -0.107387 -0.792760 0.000000
vt -0.064705 -0.241481 0.000000
vt -0.247214 -0.760845 0.000000
vt -0.125000 -0.216506 0.000000
vt -0.379095 -0.704476 0.000000
vt -0.498792 -0.625465 0.000000
vt -0.176777 -0.176777 0.000000
vt -0.602457 -0.526351 0.000000
vt -0.216506 -0.125000 0.000000
vt -0.686759 -0.410319 0.000000
vt -0.748988 -0.281100 0.000000
vt -0.241481 -0.064705 0.000000
vt 0.300000 -0.719948 0.000000
vt -0.300000 -0.719948 0.000000
vt 0.300000 -0.785398 0.000000
vt -0.300000 -0.785398 0.000000
vt 0.300000 0.785398 0.000000
vt -0.300000 0.785398 0.000000
vt 0.300000 0.719948 0.000000
vt -0.300000 0.719948 0.000000
vt 0.300000 0.654498 0.000000
vt -0.300000 0.654498 0.000000
vt 0.300000 0.589049 0.000000
vt -0.300000 0.589049 0.000000
vt 0.300000 0.523599 0.000000
vt -0.300000 0.523599 0.000000
vt 0.300000 0.458149 0.000000
vt -0.300000 0.458149 0.000000
vt 0.300000 0.392699 0.000000
vt -0.300000 0.392699 0.000000
vt 0.300000 0.327249 0.000000
vt -0.300000 0.327249 0.000000
vt 0.300000 0.261799 0.000000
vt -0.300000 0.261799 0.000000
vt 0.300000 0.196350 0.000000
vt -0.300000 0.196350 0.000000
vt 0.300000 0.130900 0.000000
vt -0.300000 0.130900 0.000000
vt 0.300000 0.065450 0.000000
vt -0.300000 0.065450 0.000000
vt 0.300000 0.000000 0.000000
vt -0.300000 0.000000 0.000000
vt 0.300000 -0.065450 0.000000
vt -0.300000 -0.065450 0.000000
vt 0.300000 -0.130900 0.000000
vt -0.300000 -0.130900 0.000000
vt 0.300000 -0.196350 0.000000
vt -0.300000 -0.196350 0.000000
vt 0.300000 -0.261799 0.000000
vt -0.300000 -0.261799 0.000000
vt 0.300000 -0.327249 0.000000
vt -0.300000 -0.327249 0.000000
vt 0.300000 -0.392699 0.000000
vt -0.300000 -0.392699 0.000000
vt 0.300000 -0.458149 0.000000
vt -0.300000 -0.458149 0.000000
vt 0.300000 -0.523599 0.000000
vt -0.300000 -0.523599 0.000000
vt 0.300000 -0.589049 0.000000
vt -0.300000 -0.589049 0.000000
vt 0.300000 -0.654498 0.000000
vt -0.300000 -0.654498 0.000000
vt 0.100000 1.249560 0.000000
vt 0.300000 1.364349 0.000000
vt 0.100000 1.390004 0.000000
vt 0.300000 1.507964 0.000000
vt -0.300000 1.507964 0.000000
vt -0.300000 1.651580 0.000000
vt 0.300000 1.651580 0.000000
vt -0.300000 1.795196 0.000000
vt 0.300000 1.795196 0.000000
vt -0.100000 1.937072 0.000000
vt 0.100000 1.937072 0.000000
vt 0.300000 1.938811 0.000000
vt 0.100000 2.077515 0.000000
vt 0.300000 2.082427 0.000000
vt 0.100000 2.217959 0.000000
vt 0.300000 2.226043 0.000000
vt 0.100000 2.358402 0.000000
vt 0.300000 2.369658 0.000000
vt 0.100000 2.498845 0.000000
vt 0.300000 2.513274 0.000000
vt 0.100000 2.639288 0.000000
vt 0.100000 -2.387260 0.000000
vt 0.300000 -2.513274 0.000000
vt 0.300000 -2.369658 0.000000
vt 0.100000 -2.246817 0.000000
vt 0.300000 -2.226043 0.000000
vt 0.100000 -2.106373 0.000000
vt 0.300000 -2.082427 0.000000
vt 0.100000 -1.965930 0.000000
vt 0.300000 -1.938811 0.000000
vt 0.100000 -1.825487 0.000000
vt 0.300000 -1.795196 0.000000
vt 0.100000 -1.685044 0.000000
vt 0.300000 -1.651580 0.000000
vt 0.100000 -1.544600 0.000000
vt 0.300000 -1.507964 0.000000
vt 0.100000 -1.404157 0.000000
vt 0.300000 -1.364349 0.000000
vt 0.100000 -1.263714 0.000000
vt 0.300000 -1.220733 0.000000
vt 0.100000 -1.123270 0.000000
vt 0.300000 -1.077117 0.000000
vt -0.300000 -1.077117 0.000000
vt -0.300000 -0.933502 0.000000
vt 0.300000 -0.933502 0.000000
vt -0.300000 -0.789886 0.000000
vt 0.300000 -0.789886 0.000000
vt -0.300000 -0.646270 0.000000
vt 0.300000 -0.646270 0.000000
vt -0.100000 -0.576202 0.000000
vt 0.100000 -0.576202 0.000000
vt 0.300000 -0.502655 0.000000
vt 0.100000 -0.435759 0.000000
vt 0.300000 -0.359039 0.000000
vt 0.100000 -0.295315 0.000000
vt 0.300000 -0.215423 0.000000
vt 0.100000 -0.154872 0.000000
vt 0.300000 -0.071808 0.000000
vt 0.100000 -0.014429 0.000000
vt 0.300000 0.071808 0.000000
vt 0.100000 0.126014 0.000000
vt 0.300000 0.215423 0.000000
vt 0.100000 0.266458 0.000000
vt 0.300000 0.359039 0.000000
vt 0.100000 0.406901 0.000000
vt 0.300000 0.502655 0.000000
vt 0.100000 0.547344 0.000000
vt 0.300000 0.646270 0.000000
vt 0.100000 0.687787 0.000000
vt 0.300000 0.789886 0.000000
vt 0.100000 0.828231 0.000000
vt 0.300000 0.933502 0.000000
vt 0.100000 0.968674 0.000000
vt 0.300000 1.077117 0.000000
vt 0.100000 1.109117 0.000000
vt 0.300000 1.220733 0.000000
vt -0.300000 -0.502655 0.000000
vt -0.100000 -0.435759 0.000000
vt -0.300000 -0.359039 0.000000
vt -0.100000 -0.295315 0.000000
vt -0.300000 -0.215423 0.000000
vt -0.100000 -0.154872 0.000000
vt -0.300000 -0.071808 0.000000
vt -0.100000 -0.014429 0.000000
vt -0.300000 0.071808 0.000000
vt -0.100000 0.126014 0.000000
vt -0.300000 0.215423 0.000000
vt -0.100000 0.266458 0.000000
vt -0.300000 0.359039 0.000000
vt -0.100000 0.406901 0.000000
vt -0.300000 0.502655 0.000000
vt -0.100000 0.547344 0.000000
vt -0.300000 0.646270 0.000000
vt -0.100000 0.687787 0.000000
vt -0.300000 0.789886 0.000000
vt -0.100000 0.828231 0.000000
vt -0.300000 0.933502 0.000000
vt -0.100000 0.968674 0.000000
vt -0.300000 1.077117 0.000000
vt -0.100000 1.109117 0.000000
vt -0.300000 1.220733 0.000000
vt -0.100000 1.249560 0.000000
vt -0.300000 1.364349 0.000000
vt -0.100000 1.390004 0.000000
vt -0.300000 1.938811 0.000000
vt -0.100000 2.077515 0.000000
vt -0.300000 2.082427 0.000000
vt -0.100000 2.217959 0.000000
vt -0.300000 2.226043 0.000000
vt -0.100000 2.358402 0.000000
vt -0.300000 2.369658 0.000000
vt -0.100000 2.498845 0.000000
vt -0.300000 2.513274 0.000000
vt -0.300000 -2.513274 0.000000
vt -0.100000 -2.527703 0.000000
vt -0.100000 -2.387260 0.000000
vt -0.300000 -2.369658 0.000000
vt -0.100000 -2.246817 0.000000
vt -0.300000 -2.226043 0.000000
vt -0.100000 -2.106373 0.000000
vt -0.300000 -2.082427 0.000000
vt -0.100000 -1.965930 0.000000
vt -0.300000 -1.938811 0.000000
vt -0.100000 -1.825487 0.000000
vt -0.300000 -1.795196 0.000000
vt -0.100000 -1.685044 0.000000
vt -0.300000 -1.651580 0.000000
vt -0.100000 -1.544600 0.000000
vt -0.300000 -1.507964 0.000000
vt -0.100000 -1.404157 0.000000
vt -0.300000 -1.364349 0.000000
vt -0.100000 -1.263714 0.000000
vt -0.300000 -1.220733 0.000000
vt -0.100000 -1.123270 0.000000
vt 0.241481 -0.064705 0.000000
vt 0.787144 -0.142846 0.000000
vt 0.250000 0.000000 0.000000
vt 0.800000 0.000000 0.000000
vt 0.787144 0.142846 0.000000
vt 0.748988 -0.281100 0.000000
vt 0.216506 -0.125000 0.000000
vt 0.686759 -0.410319 0.000000
vt 0.602457 -0.526351 0.000000
vt 0.176777 -0.176777 0.000000
vt 0.498792 -0.625465 0.000000
vt 0.125000 -0.216506 0.000000
vt 0.379095 -0.704476 0.000000
vt 0.247214 -0.760845 0.000000
vt 0.064705 -0.241481 0.000000
vt 0.107387 -0.792760 0.000000
vt -0.000000 -0.250000 0.000000
vt -0.035892 -0.799194 0.000000
vt -0.064705 -0.241481 0.000000
vt -0.178017 -0.779942 0.000000
vt -0.314420 -0.735622 0.000000
vt -0.125000 -0.216506 0.000000
vt -0.440718 -0.667659 0.000000
vt -0.176777 -0.176777 0.000000
vt -0.552850 -0.578236 0.000000
vt -0.647214 -0.470228 0.000000
vt -0.216506 -0.125000 0.000000
vt -0.720775 -0.347107 0.000000
vt -0.241481 -0.064705 0.000000
vt -0.771170 -0.212829 0.000000
vt -0.796779 -0.071711 0.000000
vt -0.250000 -0.000000 0.000000
vt -0.796779 0.071711 0.000000
vt -0.241481 0.064705 0.000000
vt -0.771170 0.212829 0.000000
vt -0.720775 0.347107 0.000000
vt -0.216506 0.125000 0.000000
vt -0.647214 0.470228 0.000000
vt -0.176777 0.176777 0.000000
vt -0.552850 0.578236 0.000000
vt -0.440718 0.667659 0.000000
vt -0.125000 0.216506 0.000000
vt -0.314420 0.735622 0.000000
vt -0.064705 0.241481 0.000000
vt -0.178017 0.779942 0.000000
vt -0.035892 0.799194 0.000000
vt -0.000000 0.250000 0.000000
vt 0.107387 0.792760 0.000000
vt 0.064705 0.241481 0.000000
vt 0.247214 0.760845 0.000000
vt 0.125000 0.216506 0.000000
vt 0.379095 0.704476 0.000000
vt 0.498792 0.625465 0.000000
vt 0.176777 0.176777 0.000000
vt 0.602457 0.526351 0.000000
vt 0.216506 0.125000 0.000000
vt 0.686759 0.410319 0.000000
vt 0.748988 0.281100 0.000000
vt 0.241481 0.064705 0.000000
vn 100.000000 0.000000 0.000000
vn 100.000000 0.000000 0.000000
vn 97.596284 -21.793700 0.000000
vn 97.596284 -21.793700 0.000000
vn 90.500693 -42.539683 0.000000
vn 90.500693 -42.539683 0.000000
vn 79.054342 -61.240599 0.000000
vn 79.054342 -61.240599 0.000000
vn 63.807508 -76.997415 0.000000
vn 63.807508 -76.997415 0.000000
vn 45.493171 -89.052633 0.000000
vn 45.493171 -89.052633 0.000000
vn 24.991780 -96.826706 0.000000
vn 24.991780 -96.826706 0.000000
vn 21.078870 -97.753165 0.000000
vn 21.078870 -97.753165 0.000000
vn 17.131876 -98.521565 0.000000
vn 17.131876 -98.521565 0.000000
vn 13.157182 -99.130664 0.000000
vn 13.157182 -99.130664 0.000000
vn 9.161213 -99.579477 0.000000
vn 9.161213 -99.579477 0.000000
vn 5.150432 -99.867277 0.000000
vn 5.150432 -99.867277 0.000000
vn 1.131322 -99.993600 0.000000
vn 1.131322 -99.993600 0.000000
vn -2.889616 -99.958242 0.000000
vn -2.889616 -99.958242 0.000000
vn -6.905883 -99.761259 0.000000
vn -6.905883 -99.761259 0.000000
vn -10.910983 -99.402970 0.000000
vn -10.910983 -99.402970 0.000000
vn -14.898440 -98.883955 0.000000
vn -14.898440 -98.883955 0.000000
vn -18.861809 -98.205052 0.000000
vn -18.861809 -98.205052 0.000000
vn -22.794679 -97.367359 0.000000
vn -22.794679 -97.367359 0.000000
vn -26.690692 -96.372231 0.000000
vn -26.690692 -96.372231 0.000000
vn -30.543548 -95.221277 0.000000
vn -30.543548 -95.221277 0.000000
vn -34.347018 -93.916358 0.000000
vn -34.347018 -93.916358 0.000000
vn -38.094952 -92.459584 0.000000
vn -38.094952 -92.459584 0.000000
vn 0.000000 0.000000 -100.000000
vn 0.000000 0.000000 -100.000000
vn 0.000000 0.000000 -100.000000
vn 0.000000 0.000000 -100.000000
vn 0.000000 0.000000 -100.000000
vn 0.000000 0.000000 -100.000000
vn 0.000000 0.000000 -100.000000
vn 0.000000 0.000000 -100.000000
vn 0.000000 0.000000 -100.000000
vn 0.000000 0.000000 -100.000000
vn 0.000000 0.000000 -100.000000
vn 0.000000 0.000000 -100.000000
vn 0.000000 0.000000 -100.000000
vn 0.000000 0.000000 -100.000000
vn 0.000000 0.000000 -100.000000
vn 0.000000 0.000000 -100.000000
vn 0.000000 0.000000 -100.000000
vn 0.000000 0.000000 -100.000000
vn 0.000000 0.000000 -100.000000
vn 0.000000 0.000000 -100.000000
vn 0.000000 0.000000 -100.000000
vn 0.000000 0.000000 -100.000000
vn 0.000000 0.000000 -100.000000
vn 0.000000 0.000000 -100.000000
vn 0.000000 0.000000 -100.000000
vn 0.000000 0.000000 -100.000000
vn 0.000000 0.000000 -100.000000
vn 0.000000 0.000000 -100.000000
vn 0.000000 0.000000 -100.000000
vn 0.000000 0.000000 -100.000000
vn 0.000000 0.000000 -100.000000
vn 0.000000 0.000000 -100.000000
vn 0.000000 0.000000 -100.000000
vn 0.000000 0.000000 -100.000000
vn 0.000000 0.000000 -100.000000
vn 0.000000 0.000000 -100.000000
vn 0.000000 0.000000 -100.000000
vn 0.000000 0.000000 -100.000000
vn 0.000000 0.000000 -100.000000
vn 0.000000 0.000000 -100.000000
vn 0.000000 0.000000 -100.000000
vn 0.000000 0.000000 -100.000000
vn 0.000000 0.000000 -100.000000
vn 0.000000 0.000000 -100.000000
vn 0.000000 0.000000 -100.000000
vn 0.000000 0.000000 -100.000000
vn 0.000000 0.000000 -100.000000
vn 0.000000 0.000000 -100.000000
vn 0.000000 0.000000 -100.000000
vn 0.000000 0.000000 -100.000000
vn 0.000000 0.000000 -100.000000
vn 0.000000 0.000000 -100.000000
vn 0.000000 0.000000 -100.000000
vn 0.000000 0.000000 -100.000000
vn 0.000000 100.000000 0.000000
vn 0.000000 100.000000 0.000000
vn 25.881905 96.592583 0.000000
vn 25.881905 96.592583 0.000000
vn 50.000000 86.602540 0.000000
vn 50.000000 86.602540 0.000000
vn 70.710678 70.710678 0.000000
vn 70.710678 70.710678 0.000000
vn 86.602540 50.000000 0.000000
vn 86.602540 50.000000 0.000000
vn 96.592583 25.881905 0.000000
vn 96.592583 25.881905 0.000000
vn 100.000000 0.000000 0.000000
vn 100.000000 0.000000 0.000000
vn 0.000000 100.000000 0.000000
vn 0.000000 100.000000 0.000000
vn 0.000000 -100.000000 0.000000
vn 0.000000 -100.000000 0.000000
vn -25.881905 -96.592583 0.000000
vn -25.881905 -96.592583 0.000000
vn -50.000000 -86.602540 0.000000
vn -50.000000 -86.602540 0.000000
vn -70.710678 -70.710678 0.000000
vn -70.710678 -70.710678 0.000000
vn -86.602540 -50.000000 0.000000
vn -86.602540 -50.000000 0.000000
vn -96.592583 -25.881905 0.000000
vn -96.592583 -25.881905 0.000000
vn -100.000000 0.000000 0.000000
vn -100.000000 0.000000 0.000000
vn 0.000000 -100.000000 0.000000
vn 0.000000 -100.000000 0.000000
vn 0.000000 0.000000 100.000000
vn 0.000000 0.000000 100.000000
vn 0.000000 0.000000 100.000000
vn 0.000000 0.000000 100.000000
vn 0.000000 0.000000 100.000000
vn 0.000000 0.000000 100.000000
vn 0.000000 0.000000 100.000000
vn 0.000000 0.000000 100.000000
vn 0.000000 0.000000 100.000000
vn 0.000000 0.000000 100.000000
vn 0.000000 0.000000 100.000000
vn 0.000000 0.000000 100.000000
vn 0.000000 0.000000 100.000000
vn 0.000000 0.000000 100.000000
vn 0.000000 0.000000 100.000000
vn 0.000000 0.000000 100.000000
vn 0.000000 0.000000 100.000000
vn 0.000000 0.000000 100.000000
vn 0.000000 0.000000 100.000000
vn 0.000000 0.000000 100.000000
vn 0.000000 0.000000 100.000000
vn 0.000000 0.000000 100.000000
vn 0.000000 0.000000 100.000000
vn 0.000000 0.000000 100.000000
vn 0.000000 0.000000 100.000000
vn 0.000000 0.000000 100.000000
vn 0.000000 0.000000 100.000000
vn 0.000000 0.000000 100.000000
vn 0.000000 0.000000 100.000000
vn 0.000000 0.000000 100.000000
vn 0.000000 0.000000 100.000000
vn 0.000000 0.000000 100.000000
vn 0.000000 0.000000 100.000000
vn 0.000000 0.000000 100.000000
vn 0.000000 0.000000 100.000000
vn 0.000000 0.000000 100.000000
vn 0.000000 0.000000 100.000000
vn 0.000000 0.000000 100.000000
vn 0.000000 0.000000 100.000000
vn 0.000000 0.000000 100.000000
vn 0.000000 0.000000 100.000000
vn 0.000000 0.000000 100.000000
vn 0.000000 0.000000 100.000000
vn 0.000000 0.000000 100.000000
vn 0.000000 0.000000 100.000000
vn 0.000000 0.000000 100.000000
vn 0.000000 0.000000 100.000000
vn 0.000000 0.000000 100.000000
vn 0.000000 0.000000 100.000000
vn 0.000000 0.000000 100.000000
vn 0.000000 0.000000 100.000000
vn 0.000000 0.000000 100.000000
vn 0.000000 0.000000 100.000000
vn 0.000000 0.000000 100.000000
vn -100.000000 -0.000000 0.000000
vn -100.000000 -0.000000 0.000000
vn -97.596284 21.793700 0.000000
vn -97.596284 21.793700 0.000000
vn -90.500693 42.539683 0.000000
vn -90.500693 42.539683 0.000000
vn -79.054342 61.240599 0.000000
vn -79.054342 61.240599 0.000000
vn -63.807508 76.997415 0.000000
vn -63.807508 76.997415 0.000000
vn -45.493171 89.052633 0.000000
vn -45.493171 89.052633 0.000000
vn -24.991780 96.826706 0.000000
vn -24.991780 96.826706 0.000000
vn -21.078870 97.753165 0.000000
vn -21.078870 97.753165 0.000000
vn -17.131876 98.521565 0.000000
vn -17.131876 98.521565 0.000000
vn -13.157182 99.130664 0.000000
vn -13.157182 99.130664 0.000000
vn -9.161213 99.579477 0.000000
vn -9.161213 99.579477 0.000000
vn -5.150432 99.867277 0.000000
vn -5.150432 99.867277 0.000000
vn -1.131322 99.993600 0.000000
vn -1.131322 99.993600 0.000000
vn 2.889616 99.958242 0.000000
vn 2.889616 99.958242 0.000000
vn 6.905883 99.761259 0.000000
vn 6.905883 99.761259 0.000000
vn 10.910983 99.402970 0.000000
vn 10.910983 99.402970 0.000000
vn 14.898440 98.883955 0.000000
vn 14.898440 98.883955 0.000000
vn 18.861809 98.205052 0.000000
vn 18.861809 98.205052 0.000000
vn 22.794679 97.367359 0.000000
vn 22.794679 97.367359 0.000000
vn 26.690692 96.372231 0.000000
vn 26.690692 96.372231 0.000000
vn 30.543548 95.221277 0.000000
vn 30.543548 95.221277 0.000000
vn 34.347018 93.916358 0.000000
vn 34.347018 93.916358 0.000000
vn 38.094952 92.459584 0.000000
vn 38.094952 92.459584 0.000000
vn 12.120750 99.262719 0.000000
vn 12.120750 99.262719 0.000000
vn 24.062773 97.061748 0.000000
vn 24.062773 97.061748 0.000000
vn 35.649975 93.429542 0.000000
vn 35.649975 93.429542 0.000000
vn 46.711496 88.419659 0.000000
vn 46.711496 88.419659 0.000000
vn 57.084227 82.105974 0.000000
vn 57.084227 82.105974 0.000000
vn 66.615216 74.581586 0.000000
vn 66.615216 74.581586 0.000000
vn 75.163923 65.957446 0.000000
vn 75.163923 65.957446 0.000000
vn 31.087936 95.044938 0.000000
vn 31.087936 95.044938 0.000000
vn 23.907505 97.100109 0.000000
vn 16.593712 98.613633 0.000000
vn 16.593712 98.613633 0.000000
vn 23.907505 97.100109 0.000000
vn -12.120750 -99.262719 0.000000
vn -12.120750 -99.262719 0.000000
vn -24.062773 -97.061748 0.000000
vn -24.062773 -97.061748 0.000000
vn -35.649975 -93.429542 0.000000
vn -35.649975 -93.429542 0.000000
vn -46.711496 -88.419659 0.000000
vn -46.711496 -88.419659 0.000000
vn -57.084227 -82.105974 0.000000
vn -57.084227 -82.105974 0.000000
vn -66.615216 -74.581586 0.000000
vn -66.615216 -74.581586 0.000000
vn -75.163923 -65.957446 0.000000
vn -75.163923 -65.957446 0.000000
vn -31.087936 -95.044938 0.000000
vn -31.087936 -95.044938 0.000000
vn -23.907505 -97.100109 0.000000
vn -16.593712 -98.613633 0.000000
vn -16.593712 -98.613633 0.000000
vn -23.907505 -97.100109 0.000000
vn 0.000000 0.000000 -100.000000
vn 0.000000 0.000000 -100.000000
vn 0.000000 0.000000 -100.000000
vn 0.000000 0.000000 -100.000000
vn 0.000000 0.000000 -100.000000
vn 0.000000 0.000000 -100.000000
vn 0.000000 0.000000 -100.000000
vn 0.000000 0.000000 -100.000000
vn 0.000000 0.000000 -100.000000
vn 0.000000 0.000000 -100.000000
vn 0.000000 0.000000 -100.000000
vn 0.000000 0.000000 -100.000000
vn 0.000000 0.000000 -100.000000
vn 0.000000 0.000000 -100.000000
vn 0.000000 0.000000 -100.000000
vn 0.000000 0.000000 -100.000000
vn 0.000000 0.000000 -100.000000
vn 0.000000 0.000000 -100.000000
vn 0.000000 0.000000 -100.000000
vn 0.000000 0.000000 -100.000000
vn 0.000000 0.000000 -100.000000
vn 0.000000 0.000000 -100.000000
vn 0.000000 0.000000 -100.000000
vn 0.000000 0.000000 -100.000000
vn 0.000000 0.000000 -100.000000
vn 0.000000 0.000000 -100.000000
vn 0.000000 0.000000 -100.000000
vn 0.000000 0.000000 -100.000000
vn 0.000000 0.000000 -100.000000
vn 0.000000 0.000000 -100.000000
vn 0.000000 0.000000 -100.000000
vn 0.000000 0.000000 -100.000000
vn 0.000000 0.000000 -100.000000
vn 0.000000 0.000000 -100.000000
vn 0.000000 0.000000 -100.000000
vn 0.000000 0.000000 -100.000000
vn 0.000000 0.000000 -100.000000
vn 0.000000 0.000000 -100.000000
vn 0.000000 0.000000 -100.000000
vn 0.000000 0.000000 -100.000000
vn 0.000000 0.000000 -100.000000
vn 0.000000 0.000000 -100.000000
vn 0.000000 0.000000 -100.000000
vn 0.000000 0.000000 -100.000000
vn 0.000000 0.000000 -100.000000
vn 0.000000 0.000000 -100.000000
vn 0.000000 0.000000 -100.000000
vn 0.000000 0.000000 -100.000000
vn 0.000000 0.000000 -100.000000
vn 0.000000 0.000000 -100.000000
vn 0.000000 0.000000 -100.000000
vn 0.000000 0.000000 -100.000000
vn 0.000000 0.000000 -100.000000
vn 0.000000 0.000000 -100.000000
vn 0.000000 0.000000 100.000000
vn 0.000000 0.000000 100.000000
vn 0.000000 0.000000 100.000000
vn 0.000000 0.000000 100.000000
vn 0.000000 0.000000 100.000000
vn 0.000000 0.000000 100.000000
vn 0.000000 0.000000 100.000000
vn 0.000000 0.000000 100.000000
vn 0.000000 0.000000 100.000000
vn 0.000000 0.000000 100.000000
vn 0.000000 0.000000 100.000000
vn 0.000000 0.000000 100.000000
vn 0.000000 0.000000 100.000000
vn 0.000000 0.000000 100.000000
vn 0.000000 0.000000 100.000000
vn 0.000000 0.000000 100.000000
vn 0.000000 0.000000 100.000000
vn 0.000000 0.000000 100.000000
vn 0.000000 0.000000 100.000000
vn 0.000000 0.000000 100.000000
vn 0.000000 0.000000 100.000000
vn 0.000000 0.000000 100.000000
vn 0.000000 0.000000 100.000000
vn 0.000000 0.000000 100.000000
vn 0.000000 0.000000 100.000000
vn 0.000000 0.000000 100.000000
vn 0.000000 0.000000 100.000000
vn 0.000000 0.000000 100.000000
vn 0.000000 0.000000 100.000000
vn 0.000000 0.000000 100.000000
vn 0.000000 0.000000 100.000000
vn 0.000000 0.000000 100.000000
vn 0.000000 0.000000 100.000000
vn 0.000000 0.000000 100.000000
vn 0.000000 0.000000 100.000000
vn 0.000000 0.000000 100.000000
vn 0.000000 0.000000 100.000000
vn 0.000000 0.000000 100.000000
vn 0.000000 0.000000 100.000000
vn 0.000000 0.000000 100.000000
vn 0.000000 0.000000 100.000000
vn 0.000000 0.000000 100.000000
vn 0.000000 0.000000 100.000000
vn 0.000000 0.000000 100.000000
vn 0.000000 0.000000 100.000000
vn 0.000000 0.000000 100.000000
vn 0.000000 0.000000 100.000000
vn 0.000000 0.000000 100.000000
vn 0.000000 0.000000 100.000000
vn 0.000000 0.000000 100.000000
vn 0.000000 0.000000 100.000000
vn 0.000000 0.000000 100.000000
vn 0.000000 0.000000 100.000000
vn 0.000000 0.000000 100.000000
vn 0.000000 0.000000 -100.000000
vn 0.000000 0.000000 -100.000000
vn 0.000000 0.000000 -100.000000
vn 0.000000 0.000000 -100.000000
vn 0.000000 0.000000 -100.000000
vn 0.000000 0.000000 -100.000000
vn 0.000000 0.000000 -100.000000
vn 0.000000 0.000000 -100.000000
vn 0.000000 0.000000 -100.000000
vn 0.000000 0.000000 -100.000000
vn 0.000000 0.000000 -100.000000
vn 0.000000 0.000000 -100.000000
vn 0.000000 0.000000 -100.000000
vn 0.000000 0.000000 -100.000000
vn 0.000000 0.000000 -100.000000
vn 0.000000 0.000000 -100.000000
vn 0.000000 0.000000 -100.000000
vn 0.000000 0.000000 -100.000000
vn 0.000000 0.000000 -100.000000
vn 0.000000 0.000000 -100.000000
vn 0.000000 0.000000 -100.000000
vn 0.000000 0.000000 -100.000000
vn 0.000000 0.000000 -100.000000
vn 0.000000 0.000000 -100.000000
vn 0.000000 0.000000 -100.000000
vn 0.000000 0.000000 -100.000000
vn 0.000000 0.000000 -100.000000
vn 0.000000 0.000000 -100.000000
vn 0.000000 0.000000 -100.000000
vn 0.000000 0.000000 -100.000000
vn 0.000000 0.000000 -100.000000
vn 0.000000 0.000000 -100.000000
vn 0.000000 0.000000 -100.000000
vn 0.000000 0.000000 -100.000000
vn 0.000000 0.000000 -100.000000
vn 0.000000 0.000000 -100.000000
vn 0.000000 0.000000 -100.000000
vn 0.000000 0.000000 -100.000000
vn 0.000000 0.000000 -100.000000
vn 0.000000 0.000000 -100.000000
vn 0.000000 0.000000 -100.000000
vn 0.000000 0.000000 -100.000000
vn 0.000000 0.000000 -100.000000
vn 0.000000 0.000000 -100.000000
vn 0.000000 0.000000 -100.000000
vn 0.000000 0.000000 -100.000000
vn 0.000000 0.000000 -100.000000
vn 0.000000 0.000000 -100.000000
vn 0.000000 0.000000 -100.000000
vn 0.000000 0.000000 -100.000000
vn 0.000000 0.000000 -100.000000
vn 0.000000 0.000000 -100.000000
vn 0.000000 0.000000 -100.000000
vn 0.000000 0.000000 -100.000000
vn 0.000000 0.000000 -100.000000
vn 0.000000 0.000000 -100.000000
vn 0.000000 0.000000 -100.000000
vn 0.000000 0.000000 -100.000000
vn 0.000000 0.000000 -100.000000
vn 96.592583 -25.881905 0.000000
vn 96.592583 -25.881905 0.000000
vn 100.000000 -0.000000 0.000000
vn 100.000000 -0.000000 0.000000
vn 96.592583 25.881905 0.000000
vn 96.592583 25.881905 0.000000
vn 86.602540 50.000000 0.000000
vn 86.602540 50.000000 0.000000
vn 70.710678 70.710678 0.000000
vn 70.710678 70.710678 0.000000
vn 50.000000 86.602540 0.000000
vn 50.000000 86.602540 0.000000
vn 25.881905 96.592583 0.000000
vn 25.881905 96.592583 0.000000
vn -0.000000 100.000000 -0.000000
vn -0.000000 100.000000 -0.000000
vn -25.881905 96.592583 -0.000000
vn -25.881905 96.592583 -0.000000
vn -50.000000 86.602540 -0.000000
vn -50.000000 86.602540 -0.000000
vn -70.710678 70.710678 -0.000000
vn -70.710678 70.710678 -0.000000
vn -86.602540 50.000000 -0.000000
vn -86.602540 50.000000 -0.000000
vn -96.592583 25.881905 -0.000000
vn -96.592583 25.881905 -0.000000
vn -100.000000 0.000000 0.000000
vn -100.000000 0.000000 0.000000
vn -96.592583 -25.881905 0.000000
vn -96.592583 -25.881905 0.000000
vn -86.602540 -50.000000 0.000000
vn -86.602540 -50.000000 0.000000
vn -70.710678 -70.710678 0.000000
vn -70.710678 -70.710678 0.000000
vn -50.000000 -86.602540 0.000000
vn -50.000000 -86.602540 0.000000
vn -25.881905 -96.592583 0.000000
vn -25.881905 -96.592583 0.000000
vn -0.000000 -100.000000 0.000000
vn -0.000000 -100.000000 0.000000
vn 25.881905 -96.592583 0.000000
vn 25.881905 -96.592583 0.000000
vn 50.000000 -86.602540 0.000000
vn 50.000000 -86.602540 0.000000
vn 70.710678 -70.710678 0.000000
vn 70.710678 -70.710678 0.000000
vn 86.602540 -50.000000 0.000000
vn 86.602540 -50.000000 0.000000
vn 0.884572 -99.996088 0.000000
vn -13.423327 -99.094976 0.000000
vn -30.901699 -95.105652 0.000000
vn -30.901699 -95.105652 0.000000
vn -47.386866 -88.059553 0.000000
vn -47.386866 -88.059553 0.000000
vn -62.348980 -78.183148 0.000000
vn -62.348980 -78.183148 0.000000
vn -75.307147 -65.793873 0.000000
vn -85.528361 -51.816016 0.000000
vn -85.844879 -51.289928 0.000000
vn -93.263643 -36.081753 0.000000
vn -93.623487 -35.137482 0.000000
vn -98.131986 -19.238332 0.000000
vn -98.392959 -17.855689 0.000000
vn -99.983735 -1.803520 0.000000
vn -100.000000 -0.000000 0.000000
vn -98.761969 15.686732 0.000000
vn -98.392959 17.855689 0.000000
vn -94.504243 32.694771 0.000000
vn -93.623487 35.137482 0.000000
vn -87.341442 48.697767 0.000000
vn -85.844879 51.289928 0.000000
vn -77.493751 63.203787 0.000000
vn -75.307147 65.793873 0.000000
vn -65.263889 75.766911 0.000000
vn -62.348980 78.183148 0.000000
vn -51.027804 86.000949 0.000000
vn -47.386866 88.059553 0.000000
vn -35.223117 93.591303 0.000000
vn -30.901699 95.105652 0.000000
vn -18.335665 98.304646 0.000000
vn -13.423327 99.094976 0.000000
vn -0.884572 99.996088 0.000000
vn 4.486483 99.899307 0.000000
vn 22.252093 97.492791 0.000000
vn 22.252093 97.492791 0.000000
vn 39.302503 91.952777 0.000000
vn 39.302503 91.952777 0.000000
vn 55.089698 83.457325 0.000000
vn 55.089698 83.457325 0.000000
vn 69.106265 72.279486 0.000000
vn 69.106265 72.279486 0.000000
vn 80.901699 58.778525 0.000000
vn 85.528361 51.816016 0.000000
vn 90.096887 43.388374 0.000000
vn 93.263643 36.081753 0.000000
vn 96.396286 26.603685 0.000000
vn 98.131986 19.238332 0.000000
vn 99.597429 8.963931 0.000000
vn 99.983735 1.803520 0.000000
vn 99.597429 -8.963931 0.000000
vn 98.761969 -15.686732 0.000000
vn 96.396286 -26.603685 0.000000
vn 94.504243 -32.694771 0.000000
vn 90.096887 -43.388374 0.000000
vn 87.341442 -48.697767 0.000000
vn 80.901699 -58.778525 0.000000
vn 77.493751 -63.203787 0.000000
vn 69.106265 -72.279486 0.000000
vn 65.263889 -75.766911 0.000000
vn 55.089698 -83.457325 0.000000
vn 51.027804 -86.000949 0.000000
vn 39.302503 -91.952777 0.000000
vn 35.223117 -93.591303 0.000000
vn 22.252093 -97.492791 0.000000
vn 18.335665 -98.304646 0.000000
vn 4.486483 -99.899307 0.000000
vn 80.901699 58.778525 0.000000
vn 85.528361 51.816016 0.000000
vn 90.096887 43.388374 0.000000
vn 93.263643 36.081753 0.000000
vn 96.396286 26.603685 0.000000
vn 98.131986 19.238332 0.000000
vn 99.597429 8.963931 0.000000
vn 99.983735 1.803520 0.000000
vn 99.597429 -8.963931 0.000000
vn 98.761969 -15.686732 0.000000
vn 96.396286 -26.603685 0.000000
vn 94.504243 -32.694771 0.000000
vn 90.096887 -43.388374 0.000000
vn 87.341442 -48.697767 0.000000
vn 80.901699 -58.778525 0.000000
vn 77.493751 -63.203787 0.000000
vn 69.106265 -72.279486 0.000000
vn 65.263889 -75.766911 0.000000
vn 55.089698 -83.457325 0.000000
vn 51.027804 -86.000949 0.000000
vn 39.302503 -91.952777 0.000000
vn 35.223117 -93.591303 0.000000
vn 22.252093 -97.492791 0.000000
vn 18.335665 -98.304646 0.000000
vn 4.486483 -99.899307 0.000000
vn 0.884572 -99.996088 0.000000
vn -13.423327 -99.094976 0.000000
vn -75.307147 -65.793873 0.000000
vn -85.528361 -51.816016 0.000000
vn -85.844879 -51.289928 0.000000
vn -93.263643 -36.081753 0.000000
vn -93.623487 -35.137482 0.000000
vn -98.131986 -19.238332 0.000000
vn -98.392959 -17.855689 0.000000
vn -99.983735 -1.803520 0.000000
vn -100.000000 -0.000000 0.000000
vn -98.761969 15.686732 0.000000
vn -98.392959 17.855689 0.000000
vn -94.504243 32.694771 0.000000
vn -93.623487 35.137482 0.000000
vn -87.341442 48.697767 0.000000
vn -85.844879 51.289928 0.000000
vn -77.493751 63.203787 0.000000
vn -75.307147 65.793873 0.000000
vn -65.263889 75.766911 0.000000
vn -62.348980 78.183148 0.000000
vn -51.027804 86.000949 0.000000
vn -47.386866 88.059553 0.000000
vn -35.223117 93.591303 0.000000
vn -30.901699 95.105652 0.000000
vn -18.335665 98.304646 0.000000
vn -13.423327 99.094976 0.000000
vn -0.884572 99.996088 0.000000
vn 4.486483 99.899307 0.000000
vn 0.000000 0.000000 100.000000
vn 0.000000 0.000000 100.000000
vn 0.000000 0.000000 100.000000
vn 0.000000 0.000000 100.000000
vn 0.000000 0.000000 100.000000
vn 0.000000 0.000000 100.000000
vn 0.000000 0.000000 100.000000
vn 0.000000 0.000000 100.000000
vn 0.000000 0.000000 100.000000
vn 0.000000 0.000000 100.000000
vn 0.000000 0.000000 100.000000
vn 0.000000 0.000000 100.000000
vn 0.000000 0.000000 100.000000
vn 0.000000 0.000000 100.000000
vn 0.000000 0.000000 100.000000
vn 0.000000 0.000000 100.000000
vn 0.000000 0.000000 100.000000
vn 0.000000 0.000000 100.000000
vn 0.000000 0.000000 100.000000
vn 0.000000 0.000000 100.000000
vn 0.000000 0.000000 100.000000
vn 0.000000 0.000000 100.000000
vn 0.000000 0.000000 100.000000
vn 0.000000 0.000000 100.000000
vn 0.000000 0.000000 100.000000
vn 0.000000 0.000000 100.000000
vn 0.000000 0.000000 100.000000
vn 0.000000 0.000000 100.000000
vn 0.000000 0.000000 100.000000
vn 0.000000 0.000000 100.000000
vn 0.000000 0.000000 100.000000
vn 0.000000 0.000000 100.000000
vn 0.000000 0.000000 100.000000
vn 0.000000 0.000000 100.000000
vn 0.000000 0.000000 100.000000
vn 0.000000 0.000000 100.000000
vn 0.000000 0.000000 100.000000
vn 0.000000 0.000000 100.000000
vn 0.000000 0.000000 100.000000
vn 0.000000 0.000000 100.000000
vn 0.000000 0.000000 100.000000
vn 0.000000 0.000000 100.000000
vn 0.000000 0.000000 100.000000
vn 0.000000 0.000000 100.000000
vn 0.000000 0.000000 100.000000
vn 0.000000 0.000000 100.000000
vn 0.000000 0.000000 100.000000
vn 0.000000 0.000000 100.000000
vn 0.000000 0.000000 100.000000
vn 0.000000 0.000000 100.000000
vn 0.000000 0.000000 100.000000
vn 0.000000 0.000000 100.000000
vn 0.000000 0.000000 100.000000
vn 0.000000 0.000000 100.000000
vn 0.000000 0.000000 100.000000
vn 0.000000 0.000000 100.000000
vn 0.000000 0.000000 100.000000
vn 0.000000 0.000000 100.000000
vn 0.000000 0.000000 100.000000
usemtl Steel_-_Satin
f 14/1/1 1/2/2 13/3/3
f 13/3/3 1/2/2 2/4/4
f 13/3/3 2/4/4 3/5/5
f 13/3/3 3/5/5 12/6/6
f 12/6/6 3/5/5 4/7/7
f 12/6/6 4/7/7 11/8/8
f 11/8/8 4/7/7 5/9/9
f 11/8/8 5/9/9 10/10/10
f 10/10/10 5/9/9 6/11/11
f 10/10/10 6/11/11 9/12/12
f 9/12/12 6/11/11 8/13/13
f 8/13/13 6/11/11 7/14/14
f 8/15/13 7/16/14 46/17/15
f 46/17/15 7/16/14 15/18/16
f 46/17/15 15/18/16 45/19/17
f 45/19/17 15/18/16 16/20/18
f 45/19/17 16/20/18 44/21/19
f 44/21/19 16/20/18 17/22/20
f 44/21/19 17/22/20 43/23/21
f 43/23/21 17/22/20 18/24/22
f 43/23/21 18/24/22 42/25/23
f 42/25/23 18/24/22 19/26/24
f 42/25/23 19/26/24 41/27/25
f 41/27/25 19/26/24 20/28/26
f 41/27/25 20/28/26 40/29/27
f 40/29/27 20/28/26 21/30/28
f 40/29/27 21/30/28 39/31/29
f 39/31/29 21/30/28 22/32/30
f 39/31/29 22/32/30 38/33/31
f 38/33/31 22/32/30 23/34/32
f 38/33/31 23/34/32 37/35/33
f 37/35/33 23/34/32 24/36/34
f 37/35/33 24/36/34 36/37/35
f 36/37/35 24/36/34 25/38/36
f 36/37/35 25/38/36 35/39/37
f 35/39/37 25/38/36 26/40/38
f 35/39/37 26/40/38 34/41/39
f 34/41/39 26/40/38 27/42/40
f 34/41/39 27/42/40 33/43/41
f 33/43/41 27/42/40 28/44/42
f 33/43/41 28/44/42 32/45/43
f 32/45/43 28/44/42 29/46/44
f 32/45/43 29/46/44 31/47/45
f 31/47/45 29/46/44 30/48/46
f 13/49/47 46/50/48 14/51/49
f 14/51/49 46/50/48 45/52/50
f 14/51/49 45/52/50 44/53/51
f 13/49/47 12/54/52 46/50/48
f 46/50/48 12/54/52 11/55/53
f 46/50/48 11/55/53 8/56/54
f 8/56/54 11/55/53 10/57/55
f 8/56/54 10/57/55 9/58/56
f 14/51/49 44/53/51 38/59/57
f 38/59/57 44/53/51 43/60/58
f 38/59/57 43/60/58 39/61/59
f 39/61/59 43/60/58 42/62/60
f 39/61/59 42/62/60 40/63/61
f 40/63/61 42/62/60 41/64/62
f 38/59/57 37/65/63 14/51/49
f 14/51/49 37/65/63 36/66/64
f 14/51/49 36/66/64 35/67/65
f 14/51/49 35/67/65 77/68/66
f 77/68/66 35/67/65 34/69/67
f 77/68/66 34/69/67 70/70/68
f 70/70/68 34/69/67 33/71/69
f 70/70/68 33/71/69 55/72/70
f 55/72/70 33/71/69 54/73/71
f 54/73/71 33/71/69 32/74/72
f 54/73/71 32/74/72 53/75/73
f 53/75/73 32/74/72 52/76/74
f 52/76/74 32/74/72 31/77/75
f 52/76/74 31/77/75 51/78/76
f 51/78/76 31/77/75 47/79/77
f 51/78/76 47/79/77 50/80/78
f 50/80/78 47/79/77 48/81/79
f 50/80/78 48/81/79 49/82/80
f 55/72/70 56/83/81 70/70/68
f 70/70/68 56/83/81 57/84/82
f 70/70/68 57/84/82 58/85/83
f 59/86/84 68/87/85 58/85/83
f 58/85/83 68/87/85 69/88/86
f 58/85/83 69/88/86 70/70/68
f 68/87/85 59/86/84 67/89/87
f 67/89/87 59/86/84 60/90/88
f 67/89/87 60/90/88 66/91/89
f 66/91/89 60/90/88 65/92/90
f 65/92/90 60/90/88 61/93/91
f 65/92/90 61/93/91 64/94/92
f 64/94/92 61/93/91 62/95/93
f 64/94/92 62/95/93 63/96/94
f 70/70/68 71/97/95 77/68/66
f 77/68/66 71/97/95 76/98/96
f 76/98/96 71/97/95 75/99/97
f 75/99/97 71/97/95 74/100/98
f 74/100/98 71/97/95 73/101/99
f 73/101/99 71/97/95 72/102/100
f 71/103/101 78/104/102 72/105/103
f 72/105/103 78/104/102 79/106/104
f 72/105/103 79/106/104 73/107/105
f 73/107/105 79/106/104 80/108/106
f 73/107/105 80/108/106 74/109/107
f 74/109/107 80/108/106 81/110/108
f 74/109/107 81/110/108 75/111/109
f 75/111/109 81/110/108 82/112/110
f 75/111/109 82/112/110 76/113/111
f 76/113/111 82/112/110 83/114/112
f 76/113/111 83/114/112 77/115/113
f 77/115/113 83/114/112 84/116/114
f 71/117/101 70/118/115 78/119/102
f 78/119/102 70/118/115 85/120/116
f 99/121/117 86/122/118 98/123/119
f 98/123/119 86/122/118 87/124/120
f 98/123/119 87/124/120 97/125/121
f 97/125/121 87/124/120 88/126/122
f 97/125/121 88/126/122 96/127/123
f 96/127/123 88/126/122 89/128/124
f 96/127/123 89/128/124 95/129/125
f 95/129/125 89/128/124 90/130/126
f 95/129/125 90/130/126 94/131/127
f 94/131/127 90/130/126 91/132/128
f 94/131/127 91/132/128 93/133/129
f 93/133/129 91/132/128 92/134/130
f 99/135/117 100/136/131 86/137/118
f 86/137/118 100/136/131 101/138/132
f 91/139/133 86/140/134 92/141/135
f 92/141/135 86/140/134 101/142/136
f 92/141/135 101/142/136 128/143/137
f 128/143/137 101/142/136 127/144/138
f 127/144/138 101/142/136 116/145/139
f 127/144/138 116/145/139 117/146/140
f 91/139/133 90/147/141 86/140/134
f 86/140/134 90/147/141 89/148/142
f 86/140/134 89/148/142 88/149/143
f 88/149/143 87/150/144 86/140/134
f 102/151/145 113/152/146 101/142/136
f 101/142/136 113/152/146 114/153/147
f 101/142/136 114/153/147 115/154/148
f 102/151/145 103/155/149 113/152/146
f 113/152/146 103/155/149 112/156/150
f 112/156/150 103/155/149 104/157/151
f 112/156/150 104/157/151 111/158/152
f 111/158/152 104/157/151 105/159/153
f 111/158/152 105/159/153 106/160/154
f 111/158/152 106/160/154 110/161/155
f 110/161/155 106/160/154 107/162/156
f 110/161/155 107/162/156 109/163/157
f 109/163/157 107/162/156 108/164/158
f 115/154/148 116/145/139 101/142/136
f 127/144/138 117/146/140 126/165/159
f 126/165/159 117/146/140 118/166/160
f 126/165/159 118/166/160 119/167/161
f 126/165/159 119/167/161 125/168/162
f 125/168/162 119/167/161 120/169/163
f 125/168/162 120/169/163 124/170/164
f 124/170/164 120/169/163 121/171/165
f 124/170/164 121/171/165 123/172/166
f 123/172/166 121/171/165 122/173/167
f 128/143/137 129/174/168 92/141/135
f 92/141/135 129/174/168 147/175/169
f 147/175/169 129/174/168 130/176/170
f 147/175/169 130/176/170 131/177/171
f 131/177/171 132/178/172 147/175/169
f 147/175/169 132/178/172 138/179/173
f 147/175/169 138/179/173 139/180/174
f 138/179/173 132/178/172 137/181/175
f 137/181/175 132/178/172 133/182/176
f 137/181/175 133/182/176 136/183/177
f 136/183/177 133/182/176 134/184/178
f 136/183/177 134/184/178 135/185/179
f 139/180/174 140/186/180 147/175/169
f 147/175/169 140/186/180 146/187/181
f 146/187/181 140/186/180 145/188/182
f 145/188/182 140/186/180 144/189/183
f 144/189/183 140/186/180 141/190/184
f 144/189/183 141/190/184 143/191/185
f 143/191/185 141/190/184 142/192/186
f 154/193/187 147/194/188 153/195/189
f 153/195/189 147/194/188 146/196/190
f 153/195/189 146/196/190 145/197/191
f 153/195/189 145/197/191 152/198/192
f 152/198/192 145/197/191 144/199/193
f 152/198/192 144/199/193 151/200/194
f 151/200/194 144/199/193 143/201/195
f 151/200/194 143/201/195 150/202/196
f 150/202/196 143/201/195 142/203/197
f 150/202/196 142/203/197 149/204/198
f 149/204/198 142/203/197 148/205/199
f 148/205/199 142/203/197 141/206/200
f 148/207/199 141/208/200 170/209/201
f 170/209/201 141/208/200 140/210/202
f 170/209/201 140/210/202 169/211/203
f 169/211/203 140/210/202 139/212/204
f 169/211/203 139/212/204 168/213/205
f 168/213/205 139/212/204 138/214/206
f 168/213/205 138/214/206 167/215/207
f 167/215/207 138/214/206 137/216/208
f 167/215/207 137/216/208 166/217/209
f 166/217/209 137/216/208 136/218/210
f 166/217/209 136/218/210 165/219/211
f 165/219/211 136/218/210 135/220/212
f 165/219/211 135/220/212 164/221/213
f 164/221/213 135/220/212 134/222/214
f 164/221/213 134/222/214 163/223/215
f 163/223/215 134/222/214 133/224/216
f 163/223/215 133/224/216 162/225/217
f 162/225/217 133/224/216 132/226/218
f 162/225/217 132/226/218 161/227/219
f 161/227/219 132/226/218 131/228/220
f 161/227/219 131/228/220 160/229/221
f 160/229/221 131/228/220 130/230/222
f 160/229/221 130/230/222 159/231/223
f 159/231/223 130/230/222 129/232/224
f 159/231/223 129/232/224 158/233/225
f 158/233/225 129/232/224 128/234/226
f 158/233/225 128/234/226 157/235/227
f 157/235/227 128/234/226 127/236/228
f 157/235/227 127/236/228 156/237/229
f 156/237/229 127/236/228 126/238/230
f 156/237/229 126/238/230 155/239/231
f 155/239/231 126/238/230 125/240/232
f 85/241/116 70/242/115 177/243/233
f 177/243/233 70/242/115 69/244/234
f 177/243/233 69/244/234 176/245/235
f 176/245/235 69/244/234 68/246/236
f 176/245/235 68/246/236 175/247/237
f 175/247/237 68/246/236 67/248/238
f 175/247/237 67/248/238 174/249/239
f 174/249/239 67/248/238 66/250/240
f 174/249/239 66/250/240 173/251/241
f 173/251/241 66/250/240 65/252/242
f 173/251/241 65/252/242 172/253/243
f 172/253/243 65/252/242 64/254/244
f 172/253/243 64/254/244 171/255/245
f 171/255/245 64/254/244 63/256/246
f 155/257/231 125/258/232 180/259/247
f 180/259/247 125/258/232 124/260/248
f 180/259/247 124/260/248 123/261/249
f 122/262/250 178/263/251 123/261/249
f 123/261/249 178/263/251 179/264/252
f 123/261/249 179/264/252 180/259/247
f 101/265/132 100/266/131 102/267/253
f 102/267/253 100/266/131 181/268/254
f 102/267/253 181/268/254 103/269/255
f 103/269/255 181/268/254 182/270/256
f 103/269/255 182/270/256 104/271/257
f 104/271/257 182/270/256 183/272/258
f 104/271/257 183/272/258 105/273/259
f 105/273/259 183/272/258 184/274/260
f 105/273/259 184/274/260 106/275/261
f 106/275/261 184/274/260 185/276/262
f 106/275/261 185/276/262 107/277/263
f 107/277/263 185/276/262 186/278/264
f 107/277/263 186/278/264 108/279/265
f 108/279/265 186/278/264 187/280/266
f 31/281/45 30/282/46 47/283/267
f 47/283/267 30/282/46 188/284/268
f 47/283/267 188/284/268 189/285/269
f 190/286/270 49/287/271 189/285/269
f 189/285/269 49/287/271 48/288/272
f 189/285/269 48/288/272 47/283/267
f 98/289/273 97/290/274 99/291/275
f 99/291/275 97/290/274 96/292/276
f 99/291/275 96/292/276 95/293/277
f 95/293/277 94/294/278 99/291/275
f 99/291/275 94/294/278 93/295/279
f 99/291/275 93/295/279 100/296/280
f 100/296/280 93/295/279 158/297/281
f 100/296/280 158/297/281 157/298/282
f 158/297/281 93/295/279 159/299/283
f 159/299/283 93/295/279 154/300/284
f 159/299/283 154/300/284 160/301/285
f 160/301/285 154/300/284 161/302/286
f 161/302/286 154/300/284 162/303/287
f 162/303/287 154/300/284 168/304/288
f 162/303/287 168/304/288 167/305/289
f 153/306/290 170/307/291 154/300/284
f 154/300/284 170/307/291 169/308/292
f 154/300/284 169/308/292 168/304/288
f 153/306/290 152/309/293 170/307/291
f 170/307/291 152/309/293 151/310/294
f 170/307/291 151/310/294 148/311/295
f 148/311/295 151/310/294 150/312/296
f 148/311/295 150/312/296 149/313/297
f 162/303/287 167/305/289 163/314/298
f 163/314/298 167/305/289 166/315/299
f 163/314/298 166/315/299 164/316/300
f 164/316/300 166/315/299 165/317/301
f 156/318/302 195/319/303 157/298/282
f 157/298/282 195/319/303 196/320/304
f 157/298/282 196/320/304 100/296/280
f 100/296/280 196/320/304 197/321/305
f 100/296/280 197/321/305 198/322/306
f 155/323/307 193/324/308 156/318/302
f 156/318/302 193/324/308 194/325/309
f 156/318/302 194/325/309 195/319/303
f 193/324/308 155/323/307 192/326/310
f 192/326/310 155/323/307 180/327/311
f 192/326/310 180/327/311 191/328/312
f 191/328/312 180/327/311 179/329/313
f 191/328/312 179/329/313 178/330/314
f 198/322/306 199/331/315 100/296/280
f 100/296/280 199/331/315 181/332/316
f 181/332/316 199/331/315 182/333/317
f 182/333/317 199/331/315 200/334/318
f 182/333/317 200/334/318 183/335/319
f 183/335/319 200/334/318 201/336/320
f 183/335/319 201/336/320 184/337/321
f 184/337/321 201/336/320 185/338/322
f 185/338/322 201/336/320 202/339/323
f 185/338/322 202/339/323 186/340/324
f 186/340/324 202/339/323 203/341/325
f 186/340/324 203/341/325 187/342/326
f 92/343/130 147/344/188 93/345/129
f 93/345/129 147/344/188 154/346/187
f 14/347/1 77/348/113 1/349/2
f 1/349/2 77/348/113 84/350/114
f 6/351/327 5/352/328 7/353/329
f 7/353/329 5/352/328 4/354/330
f 7/353/329 4/354/330 15/355/331
f 15/355/331 4/354/330 3/356/332
f 15/355/331 3/356/332 2/357/333
f 2/357/333 1/358/334 15/355/331
f 15/355/331 1/358/334 16/359/335
f 16/359/335 1/358/334 17/360/336
f 17/360/336 1/358/334 23/361/337
f 17/360/336 23/361/337 18/362/338
f 18/362/338 23/361/337 22/363/339
f 18/362/338 22/363/339 19/364/340
f 19/364/340 22/363/339 21/365/341
f 19/364/340 21/365/341 20/366/342
f 84/367/343 26/368/344 1/358/334
f 1/358/334 26/368/344 25/369/345
f 1/358/334 25/369/345 24/370/346
f 83/371/347 78/372/348 84/367/343
f 84/367/343 78/372/348 85/373/349
f 84/367/343 85/373/349 27/374/350
f 27/374/350 85/373/349 28/375/351
f 28/375/351 85/373/349 211/376/352
f 28/375/351 211/376/352 212/377/353
f 83/371/347 82/378/354 78/372/348
f 78/372/348 82/378/354 81/379/355
f 78/372/348 81/379/355 80/380/356
f 80/380/356 79/381/357 78/372/348
f 177/382/358 208/383/359 85/373/349
f 85/373/349 208/383/359 209/384/360
f 85/373/349 209/384/360 210/385/361
f 177/382/358 176/386/362 208/383/359
f 208/383/359 176/386/362 207/387/363
f 207/387/363 176/386/362 175/388/364
f 207/387/363 175/388/364 206/389/365
f 206/389/365 175/388/364 174/390/366
f 206/389/365 174/390/366 173/391/367
f 206/389/365 173/391/367 205/392/368
f 205/392/368 173/391/367 172/393/369
f 205/392/368 172/393/369 204/394/370
f 204/394/370 172/393/369 171/395/371
f 210/385/361 211/376/352 85/373/349
f 28/375/351 212/377/353 29/396/372
f 29/396/372 212/377/353 213/397/373
f 29/396/372 213/397/373 214/398/374
f 29/396/372 214/398/374 30/399/375
f 30/399/375 214/398/374 215/400/376
f 30/399/375 215/400/376 188/401/377
f 188/401/377 215/400/376 216/402/378
f 188/401/377 216/402/378 189/403/379
f 189/403/379 216/402/378 190/404/380
f 27/374/350 26/368/344 84/367/343
f 24/370/346 23/361/337 1/358/334
f 218/405/381 275/406/382 217/407/383
f 217/407/383 275/406/382 241/408/384
f 217/407/383 241/408/384 242/409/385
f 275/406/382 218/405/381 274/410/386
f 274/410/386 218/405/381 219/411/387
f 274/410/386 219/411/387 273/412/388
f 273/412/388 219/411/387 272/413/389
f 272/413/389 219/411/387 220/414/390
f 272/413/389 220/414/390 271/415/391
f 271/415/391 220/414/390 221/416/392
f 271/415/391 221/416/392 270/417/393
f 270/417/393 221/416/392 269/418/394
f 269/418/394 221/416/392 222/419/395
f 269/418/394 222/419/395 268/420/396
f 268/420/396 222/419/395 223/421/397
f 268/420/396 223/421/397 267/422/398
f 267/422/398 223/421/397 224/423/399
f 267/422/398 224/423/399 266/424/400
f 266/424/400 224/423/399 265/425/401
f 265/425/401 224/423/399 225/426/402
f 265/425/401 225/426/402 264/427/403
f 264/427/403 225/426/402 226/428/404
f 264/427/403 226/428/404 263/429/405
f 263/429/405 226/428/404 262/430/406
f 262/430/406 226/428/404 227/431/407
f 262/430/406 227/431/407 261/432/408
f 261/432/408 227/431/407 228/433/409
f 261/432/408 228/433/409 260/434/410
f 260/434/410 228/433/409 259/435/411
f 259/435/411 228/433/409 229/436/412
f 259/435/411 229/436/412 258/437/413
f 258/437/413 229/436/412 230/438/414
f 258/437/413 230/438/414 257/439/415
f 257/439/415 230/438/414 256/440/416
f 256/440/416 230/438/414 231/441/417
f 256/440/416 231/441/417 255/442/418
f 255/442/418 231/441/417 232/443/419
f 255/442/418 232/443/419 254/444/420
f 254/444/420 232/443/419 253/445/421
f 253/445/421 232/443/419 233/446/422
f 253/445/421 233/446/422 252/447/423
f 252/447/423 233/446/422 234/448/424
f 252/447/423 234/448/424 251/449/425
f 251/449/425 234/448/424 250/450/426
f 250/450/426 234/448/424 235/451/427
f 250/450/426 235/451/427 249/452/428
f 249/452/428 235/451/427 236/453/429
f 249/452/428 236/453/429 248/454/430
f 248/454/430 236/453/429 237/455/431
f 248/454/430 237/455/431 247/456/432
f 247/456/432 237/455/431 246/457/433
f 246/457/433 237/455/431 238/458/434
f 246/457/433 238/458/434 245/459/435
f 245/459/435 238/458/434 239/460/436
f 245/459/435 239/460/436 244/461/437
f 244/461/437 239/460/436 243/462/438
f 243/462/438 239/460/436 240/463/439
f 243/462/438 240/463/439 242/409/385
f 242/409/385 240/463/439 217/407/383
f 240/464/440 299/465/441 217/466/442
f 217/466/442 299/465/441 276/467/443
f 217/468/442 276/469/443 218/470/444
f 218/470/444 276/469/443 277/471/445
f 218/470/444 277/471/445 219/472/446
f 219/472/446 277/471/445 278/473/447
f 219/472/446 278/473/447 220/474/448
f 220/474/448 278/473/447 279/475/449
f 220/474/448 279/475/449 221/476/450
f 221/476/450 279/475/449 280/477/451
f 221/476/450 280/477/451 222/478/452
f 222/478/452 280/477/451 281/479/453
f 222/478/452 281/479/453 223/480/454
f 223/480/454 281/479/453 282/481/455
f 223/480/454 282/481/455 224/482/456
f 224/482/456 282/481/455 283/483/457
f 224/482/456 283/483/457 225/484/458
f 225/484/458 283/483/457 284/485/459
f 225/484/458 284/485/459 226/486/460
f 226/486/460 284/485/459 285/487/461
f 226/486/460 285/487/461 227/488/462
f 227/488/462 285/487/461 286/489/463
f 227/488/462 286/489/463 228/490/464
f 228/490/464 286/489/463 287/491/465
f 228/490/464 287/491/465 229/492/466
f 229/492/466 287/491/465 288/493/467
f 229/492/466 288/493/467 230/494/468
f 230/494/468 288/493/467 289/495/469
f 230/494/468 289/495/469 231/496/470
f 231/496/470 289/495/469 290/497/471
f 231/496/470 290/497/471 232/498/472
f 232/498/472 290/497/471 291/499/473
f 232/498/472 291/499/473 233/500/474
f 233/500/474 291/499/473 292/501/475
f 233/500/474 292/501/475 234/502/476
f 234/502/476 292/501/475 293/503/477
f 234/502/476 293/503/477 235/504/478
f 235/504/478 293/503/477 294/505/479
f 235/504/478 294/505/479 236/506/480
f 236/506/480 294/505/479 295/507/481
f 236/506/480 295/507/481 237/508/482
f 237/508/482 295/507/481 296/509/483
f 237/508/482 296/509/483 238/510/484
f 238/510/484 296/509/483 297/511/485
f 238/510/484 297/511/485 239/512/486
f 239/512/486 297/511/485 298/513/487
f 239/512/486 298/513/487 240/464/440
f 240/464/440 298/513/487 299/465/441
f 216/514/488 327/515/489 190/516/270
f 190/516/270 327/515/489 328/517/490
f 190/516/270 328/517/490 269/518/491
f 269/518/491 328/517/490 270/519/492
f 270/519/492 328/517/490 329/520/493
f 270/519/492 329/520/493 271/521/494
f 271/521/494 329/520/493 330/522/495
f 271/521/494 330/522/495 187/523/266
f 187/523/266 330/522/495 108/524/265
f 108/524/265 330/522/495 331/525/496
f 108/524/265 331/525/496 109/526/497
f 109/526/497 331/525/496 332/527/498
f 109/526/497 332/527/498 110/528/499
f 110/528/499 332/527/498 333/529/500
f 110/528/499 333/529/500 111/530/501
f 111/530/501 333/529/500 334/531/502
f 111/530/501 334/531/502 112/532/503
f 112/532/503 334/531/502 300/533/504
f 112/532/503 300/533/504 113/534/505
f 113/535/505 300/536/504 301/537/506
f 113/535/505 301/537/506 114/538/507
f 114/538/507 301/537/506 302/539/508
f 114/538/507 302/539/508 115/540/509
f 115/540/509 302/539/508 303/541/510
f 115/540/509 303/541/510 116/542/511
f 116/542/511 303/541/510 304/543/512
f 116/542/511 304/543/512 117/544/513
f 117/544/513 304/543/512 305/545/514
f 117/544/513 305/545/514 118/546/515
f 118/546/515 305/545/514 306/547/516
f 118/546/515 306/547/516 119/548/517
f 119/548/517 306/547/516 307/549/518
f 119/548/517 307/549/518 120/550/519
f 120/550/519 307/549/518 308/551/520
f 120/550/519 308/551/520 121/552/521
f 121/552/521 308/551/520 309/553/522
f 121/552/521 309/553/522 122/554/250
f 122/554/250 309/553/522 310/555/523
f 122/554/250 310/555/523 251/556/524
f 251/556/524 310/555/523 252/557/525
f 252/557/525 310/555/523 311/558/526
f 252/557/525 311/558/526 253/559/527
f 253/559/527 311/558/526 312/560/528
f 253/559/527 312/560/528 254/561/529
f 254/561/529 312/560/528 313/562/530
f 254/561/529 313/562/530 63/563/246
f 63/563/246 313/562/530 171/564/245
f 171/564/245 313/562/530 314/565/531
f 171/564/245 314/565/531 204/566/532
f 204/566/532 314/565/531 315/567/533
f 204/566/532 315/567/533 205/568/534
f 205/568/534 315/567/533 316/569/535
f 205/568/534 316/569/535 206/570/536
f 206/570/536 316/569/535 317/571/537
f 206/570/536 317/571/537 207/572/538
f 207/572/538 317/571/537 318/573/539
f 207/572/538 318/573/539 208/574/540
f 208/574/540 318/573/539 319/575/541
f 208/574/540 319/575/541 209/576/542
f 209/576/542 319/575/541 320/577/543
f 209/576/542 320/577/543 210/578/544
f 210/578/544 320/577/543 321/579/545
f 210/578/544 321/579/545 211/580/546
f 211/580/546 321/579/545 322/581/547
f 211/580/546 322/581/547 212/582/548
f 212/582/548 322/581/547 323/583/549
f 212/582/548 323/583/549 213/584/550
f 213/584/550 323/583/549 324/585/551
f 213/584/550 324/585/551 214/586/552
f 214/586/552 324/585/551 325/587/553
f 214/586/552 325/587/553 215/588/554
f 215/588/554 325/587/553 326/589/555
f 215/588/554 326/589/555 216/514/488
f 216/514/488 326/589/555 327/515/489
f 254/561/529 63/563/246 255/590/556
f 255/590/556 63/563/246 62/591/557
f 255/590/556 62/591/557 256/592/558
f 256/592/558 62/591/557 61/593/559
f 256/592/558 61/593/559 257/594/560
f 257/594/560 61/593/559 60/595/561
f 257/594/560 60/595/561 258/596/562
f 258/596/562 60/595/561 59/597/563
f 258/596/562 59/597/563 259/598/564
f 259/598/564 59/597/563 58/599/565
f 259/598/564 58/599/565 260/600/566
f 260/600/566 58/599/565 57/601/567
f 260/600/566 57/601/567 261/602/568
f 261/602/568 57/601/567 56/603/569
f 261/602/568 56/603/569 262/604/570
f 262/604/570 56/603/569 55/605/571
f 262/604/570 55/605/571 263/606/572
f 263/606/572 55/605/571 54/607/573
f 263/606/572 54/607/573 264/608/574
f 264/608/574 54/607/573 53/609/575
f 264/608/574 53/609/575 265/610/576
f 265/610/576 53/609/575 52/611/577
f 265/610/576 52/611/577 266/612/578
f 266/612/578 52/611/577 51/613/579
f 266/612/578 51/613/579 267/614/580
f 267/614/580 51/613/579 50/615/581
f 267/614/580 50/615/581 268/616/582
f 268/616/582 50/615/581 49/617/271
f 268/616/582 49/617/271 269/518/491
f 269/518/491 49/617/271 190/516/270
f 271/521/494 187/523/266 272/618/583
f 272/618/583 187/523/266 203/619/584
f 272/618/583 203/619/584 273/620/585
f 273/620/585 203/619/584 202/621/586
f 273/620/585 202/621/586 274/622/587
f 274/622/587 202/621/586 201/623/588
f 274/622/587 201/623/588 275/624/589
f 275/624/589 201/623/588 200/625/590
f 275/624/589 200/625/590 241/626/591
f 241/627/591 200/628/590 199/629/592
f 241/627/591 199/629/592 242/630/593
f 242/630/593 199/629/592 198/631/594
f 242/630/593 198/631/594 243/632/595
f 243/632/595 198/631/594 197/633/596
f 243/632/595 197/633/596 244/634/597
f 244/634/597 197/633/596 196/635/598
f 244/634/597 196/635/598 245/636/599
f 245/636/599 196/635/598 195/637/600
f 245/636/599 195/637/600 246/638/601
f 246/638/601 195/637/600 194/639/602
f 246/638/601 194/639/602 247/640/603
f 247/640/603 194/639/602 193/641/604
f 247/640/603 193/641/604 248/642/605
f 248/642/605 193/641/604 192/643/606
f 248/642/605 192/643/606 249/644/607
f 249/644/607 192/643/606 191/645/608
f 249/644/607 191/645/608 250/646/609
f 250/646/609 191/645/608 178/647/251
f 250/646/609 178/647/251 251/556/524
f 251/556/524 178/647/251 122/554/250
f 299/648/610 301/649/611 276/650/612
f 276/650/612 301/649/611 300/651/613
f 276/650/612 300/651/613 334/652/614
f 301/649/611 299/648/610 302/653/615
f 302/653/615 299/648/610 298/654/616
f 302/653/615 298/654/616 303/655/617
f 303/655/617 298/654/616 304/656/618
f 304/656/618 298/654/616 297/657/619
f 304/656/618 297/657/619 305/658/620
f 305/658/620 297/657/619 296/659/621
f 305/658/620 296/659/621 306/660/622
f 306/660/622 296/659/621 307/661/623
f 307/661/623 296/659/621 295/662/624
f 307/661/623 295/662/624 308/663/625
f 308/663/625 295/662/624 294/664/626
f 308/663/625 294/664/626 309/665/627
f 309/665/627 294/664/626 293/666/628
f 309/665/627 293/666/628 310/667/629
f 310/667/629 293/666/628 311/668/630
f 311/668/630 293/666/628 292/669/631
f 311/668/630 292/669/631 312/670/632
f 312/670/632 292/669/631 291/671/633
f 312/670/632 291/671/633 313/672/634
f 313/672/634 291/671/633 314/673/635
f 314/673/635 291/671/633 290/674/636
f 314/673/635 290/674/636 315/675/637
f 315/675/637 290/674/636 289/676/638
f 315/675/637 289/676/638 316/677/639
f 316/677/639 289/676/638 317/678/640
f 317/678/640 289/676/638 288/679/641
f 317/678/640 288/679/641 318/680/642
f 318/680/642 288/679/641 287/681/643
f 318/680/642 287/681/643 319/682/644
f 319/682/644 287/681/643 320/683/645
f 320/683/645 287/681/643 286/684/646
f 320/683/645 286/684/646 321/685/647
f 321/685/647 286/684/646 285/686/648
f 321/685/647 285/686/648 322/687/649
f 322/687/649 285/686/648 323/688/650
f 323/688/650 285/686/648 284/689/651
f 323/688/650 284/689/651 324/690/652
f 324/690/652 284/689/651 283/691/653
f 324/690/652 283/691/653 325/692/654
f 325/692/654 283/691/653 326/693/655
f 326/693/655 283/691/653 282/694/656
f 326/693/655 282/694/656 327/695/657
f 327/695/657 282/694/656 281/696/658
f 327/695/657 281/696/658 328/697/659
f 328/697/659 281/696/658 280/698/660
f 328/697/659 280/698/660 329/699/661
f 329/699/661 280/698/660 330/700/662
f 330/700/662 280/698/660 279/701/663
f 330/700/662 279/701/663 331/702/664
f 331/702/664 279/701/663 278/703/665
f 331/702/664 278/703/665 332/704/666
f 332/704/666 278/703/665 333/705/667
f 333/705/667 278/703/665 277/706/668
f 333/705/667 277/706/668 334/652/614
f 334/652/614 277/706/668 276/650/612
# 334 vertices
# 706 texture params
# 668 normals
# 668 facets

# 1 groups
